<?xml version="1.0" standalone="no"?>
<!DOCTYPE svg PUBLIC "-//W3C//DTD SVG 20010904//EN"
 "http://www.w3.org/TR/2001/REC-SVG-20010904/DTD/svg10.dtd">
<svg version="1.0" xmlns="http://www.w3.org/2000/svg"
 width="2287.000000pt" height="4096.000000pt" viewBox="0 0 2287.000000 4096.000000"
 preserveAspectRatio="xMidYMid meet">
<metadata>
Created by potrace 1.16, written by Peter Selinger 2001-2019
</metadata>
<g transform="translate(0.000000,4096.000000) scale(0.100000,-0.100000)"
fill="#FCFCFC" stroke="none">
<path d="M10940 40885 c-19 -13 -48 -34 -64 -47 -16 -13 -44 -32 -62 -43 -18
-11 -71 -47 -119 -80 -47 -33 -100 -68 -117 -77 -16 -9 -40 -25 -52 -36 -11
-11 -34 -27 -51 -36 -16 -9 -50 -32 -75 -51 -25 -19 -54 -39 -66 -44 -11 -5
-33 -20 -50 -33 -16 -14 -56 -42 -89 -63 -33 -21 -71 -46 -85 -56 -14 -10 -68
-47 -120 -82 -147 -98 -150 -100 -196 -132 -73 -51 -305 -209 -338 -230 -18
-11 -45 -30 -60 -42 -16 -13 -34 -23 -41 -23 -7 0 -19 -7 -26 -16 -13 -16 -31
-29 -129 -94 -21 -14 -84 -56 -141 -95 -117 -80 -230 -156 -274 -184 -42 -27
-88 -60 -138 -98 -23 -18 -45 -33 -50 -33 -4 0 -33 -18 -65 -40 -63 -45 -145
-101 -202 -140 -21 -14 -55 -37 -76 -52 -22 -15 -50 -35 -64 -45 -14 -9 -72
-48 -130 -87 -58 -38 -132 -89 -165 -113 -33 -24 -71 -48 -85 -54 -14 -6 -34
-19 -45 -29 -11 -10 -65 -47 -120 -83 -137 -90 -157 -111 -152 -162 4 -41 26
-174 52 -320 8 -44 17 -102 20 -130 3 -27 12 -84 20 -125 13 -68 23 -133 71
-445 9 -55 31 -188 49 -295 37 -219 51 -304 70 -435 7 -49 18 -117 24 -150 14
-81 29 -175 42 -265 5 -41 17 -104 24 -140 8 -36 18 -94 21 -130 4 -36 13 -90
20 -120 8 -30 14 -78 14 -107 0 -30 7 -70 15 -89 8 -20 19 -68 24 -107 5 -40
16 -115 25 -167 9 -52 23 -140 32 -195 8 -55 22 -138 29 -185 8 -47 23 -148
35 -225 11 -77 25 -165 31 -195 5 -30 16 -98 24 -150 8 -52 21 -131 29 -175
17 -88 61 -351 101 -600 14 -88 32 -200 40 -250 8 -49 35 -220 60 -379 25
-160 52 -315 59 -345 8 -31 17 -81 20 -111 3 -30 13 -93 21 -140 8 -47 24
-139 35 -205 17 -108 31 -198 101 -650 11 -71 29 -182 40 -245 39 -224 62
-362 80 -490 5 -41 17 -104 25 -140 8 -36 17 -96 20 -135 4 -38 11 -81 16 -95
5 -14 14 -65 19 -115 5 -49 14 -104 19 -121 6 -17 15 -69 19 -115 10 -92 24
-179 46 -279 8 -36 17 -85 20 -110 3 -25 12 -83 20 -130 36 -214 47 -291 56
-364 5 -43 12 -82 14 -87 3 -4 10 -43 15 -86 5 -43 16 -116 24 -163 23 -131
45 -268 56 -350 6 -41 17 -99 25 -130 7 -30 30 -156 49 -280 20 -124 67 -425
106 -670 39 -245 83 -515 99 -600 16 -85 36 -200 45 -255 22 -138 65 -423 81
-525 24 -159 36 -235 56 -341 10 -58 19 -121 19 -140 0 -19 9 -66 20 -104 11
-38 20 -90 20 -115 0 -25 7 -66 14 -92 8 -26 18 -80 21 -120 4 -40 13 -95 21
-122 8 -27 14 -73 14 -101 0 -28 7 -74 15 -101 8 -27 19 -89 25 -139 5 -49 14
-106 20 -125 5 -19 10 -55 10 -80 0 -25 5 -61 10 -80 6 -19 17 -82 26 -140 8
-58 21 -136 28 -175 13 -67 30 -168 62 -360 8 -49 22 -133 30 -185 9 -52 20
-127 24 -167 5 -39 13 -89 19 -110 5 -21 12 -63 16 -93 6 -53 17 -125 49 -310
9 -47 18 -112 22 -145 3 -33 12 -82 20 -110 8 -27 20 -93 28 -145 14 -88 29
-187 76 -480 10 -63 41 -261 69 -440 28 -179 60 -365 70 -415 11 -49 34 -184
51 -300 17 -115 37 -244 45 -285 7 -41 16 -100 20 -130 3 -30 12 -89 20 -130
13 -71 20 -116 50 -310 27 -176 37 -237 52 -300 8 -36 21 -110 28 -165 8 -55
18 -118 24 -140 6 -22 11 -60 11 -85 0 -25 5 -61 10 -80 6 -19 17 -80 25 -135
25 -180 37 -252 80 -517 9 -51 19 -122 24 -158 5 -36 16 -96 24 -135 8 -38 22
-117 31 -175 9 -58 23 -143 31 -190 8 -47 18 -105 21 -130 3 -25 12 -83 20
-130 38 -227 79 -494 109 -710 9 -62 14 -75 25 -64 5 5 10 92 10 194 3 714
-12 23728 -15 23738 -6 16 -14 14 -55 -13z"/>
<path d="M11356 40883 c-9 -10 4 -23896 14 -23907 12 -12 20 28 69 344 23 144
53 328 61 375 13 66 39 225 50 300 5 33 13 87 19 120 5 33 17 110 26 170 8 61
18 117 21 125 3 8 9 44 14 80 5 36 14 92 20 125 6 33 15 87 20 120 5 33 14 87
19 120 21 125 31 182 41 250 23 144 29 182 40 240 5 33 14 87 20 120 5 33 14
87 20 120 6 33 15 94 20 135 5 41 16 111 25 155 19 107 44 256 55 330 10 70
36 228 49 300 6 28 15 84 21 125 6 41 18 111 26 155 8 44 18 107 23 140 4 33
20 134 35 225 14 91 31 194 36 230 6 36 18 106 26 155 9 50 20 115 24 145 8
55 63 383 100 600 46 263 83 491 96 590 7 58 18 130 23 160 9 49 62 369 121
720 11 69 27 161 35 205 32 179 59 349 80 495 16 121 190 1172 204 1240 5 25
15 83 21 130 7 47 16 98 21 114 5 16 9 42 9 57 0 16 20 151 46 301 25 150 49
300 54 333 6 33 15 87 20 120 6 33 15 87 20 120 13 88 39 243 49 295 5 25 15
81 21 125 6 44 15 98 20 120 5 22 14 76 20 120 10 77 40 269 60 388 6 31 15
84 20 117 6 33 14 86 20 118 5 31 15 91 21 132 6 41 17 107 24 145 8 39 16 93
20 120 3 28 10 70 16 95 5 25 16 88 24 140 8 52 24 151 35 220 12 69 25 154
30 190 5 36 14 92 19 125 6 33 15 89 21 125 9 61 22 136 34 205 3 17 19 116
36 220 17 105 34 213 39 240 5 28 14 79 20 115 6 36 18 103 26 150 8 47 20
118 25 159 6 40 13 77 15 82 3 4 12 59 19 121 13 103 26 187 86 538 11 63 38
225 60 360 23 135 50 299 61 365 11 66 27 165 35 219 17 119 120 751 134 821
5 28 17 95 25 150 22 137 41 251 91 548 8 50 21 137 29 192 8 55 26 168 40
250 14 83 30 177 34 210 5 33 16 101 25 150 30 169 36 200 50 295 8 52 22 136
30 185 9 50 20 122 27 160 6 39 15 90 20 115 4 25 11 72 14 105 4 33 12 94 20
135 8 41 19 103 25 138 5 34 14 88 20 120 23 136 42 251 51 312 5 36 16 101
23 145 8 44 20 112 26 150 6 39 15 90 20 115 4 25 13 79 20 120 6 41 15 95 20
120 5 25 14 81 20 125 21 152 34 234 60 383 5 31 23 143 40 247 17 105 34 210
39 235 5 25 14 79 21 120 6 41 15 98 20 125 39 206 61 369 54 385 -5 10 -70
63 -144 116 -122 88 -537 390 -795 578 -573 417 -732 530 -760 542 -27 11
-616 432 -860 614 -214 159 -748 541 -780 558 -22 11 -67 41 -99 66 -61 48
-68 51 -80 39z"/>
<path d="M8765 28025 c-22 -7 -92 -25 -155 -40 -125 -29 -150 -35 -225 -58
-200 -60 -299 -92 -355 -114 -36 -14 -81 -31 -100 -38 -99 -36 -261 -100 -305
-120 -173 -80 -420 -204 -544 -274 -79 -45 -147 -81 -149 -81 -3 0 -37 -22
-76 -48 -39 -26 -78 -51 -86 -55 -17 -7 -156 -102 -210 -142 -19 -15 -67 -50
-106 -78 -121 -89 -178 -134 -198 -156 -11 -11 -24 -21 -29 -21 -10 0 -57 -40
-178 -151 -31 -29 -68 -58 -82 -65 -14 -8 -28 -23 -32 -33 -3 -11 -22 -32 -43
-47 -49 -38 -240 -230 -322 -324 -36 -42 -87 -96 -114 -120 -26 -25 -60 -63
-74 -85 -14 -22 -60 -83 -102 -135 -100 -124 -298 -397 -385 -530 -37 -58 -82
-122 -98 -144 -17 -21 -43 -64 -59 -97 -16 -32 -52 -96 -80 -141 -29 -46 -73
-126 -99 -180 -26 -53 -61 -115 -78 -139 -17 -23 -31 -49 -31 -57 0 -8 -20
-53 -44 -101 -54 -106 -126 -258 -126 -265 0 -4 -12 -30 -26 -59 -14 -28 -34
-74 -44 -102 -10 -27 -34 -88 -55 -135 -20 -47 -43 -103 -50 -125 -14 -41 -57
-158 -102 -275 -13 -36 -28 -78 -33 -95 -8 -27 -21 -66 -55 -165 -16 -45 -73
-238 -105 -355 -56 -202 -74 -269 -86 -320 -7 -33 -25 -107 -39 -165 -14 -58
-29 -125 -34 -150 -5 -25 -27 -137 -50 -249 -23 -112 -39 -206 -37 -209 13
-13 57 12 76 43 12 19 41 48 63 64 23 16 56 44 73 62 17 19 69 68 115 110 188
170 367 335 419 385 30 29 147 137 260 239 113 103 258 237 323 298 65 61 128
118 140 127 12 8 45 38 73 65 28 28 82 78 120 113 38 35 92 85 119 111 28 27
115 108 195 180 80 73 176 160 213 194 38 34 95 87 127 117 56 53 113 105 263
243 37 34 96 89 132 122 36 33 94 87 130 120 36 33 92 85 124 115 33 30 94 87
136 125 43 39 103 95 134 126 31 31 61 58 68 60 6 2 67 56 135 120 67 64 332
308 588 543 256 234 493 452 526 484 173 162 276 257 397 366 37 33 96 88 130
121 35 33 92 86 127 119 36 32 90 82 120 110 30 29 73 67 96 84 22 17 49 46
59 66 21 38 24 5 -40 356 -8 41 -19 107 -24 145 -6 39 -19 117 -30 175 -11 58
-24 139 -31 180 -23 149 -63 345 -73 358 -11 14 -29 14 -82 -3z"/>
<path d="M13514 27925 c-13 -9 -23 -36 -30 -82 -14 -83 -43 -249 -49 -283 -3
-14 -14 -81 -26 -150 -11 -69 -24 -145 -29 -170 -4 -25 -24 -137 -44 -250 -20
-113 -39 -217 -42 -231 -6 -27 26 -62 308 -332 53 -50 122 -119 155 -152 32
-33 71 -71 87 -85 17 -14 67 -61 112 -105 45 -44 141 -136 214 -205 72 -69
148 -143 168 -165 20 -22 50 -51 66 -65 16 -14 69 -63 117 -110 48 -47 169
-164 270 -260 100 -96 222 -213 270 -260 48 -47 172 -166 275 -265 103 -99
230 -220 280 -270 51 -49 115 -110 142 -135 28 -25 58 -57 68 -73 11 -15 36
-38 56 -52 20 -13 58 -48 85 -77 26 -29 64 -66 83 -83 19 -16 74 -68 121 -115
47 -47 168 -164 269 -260 102 -96 226 -215 276 -265 50 -49 176 -171 279 -270
104 -99 227 -218 275 -265 48 -47 171 -166 275 -265 104 -99 227 -218 275
-265 47 -47 104 -101 125 -120 22 -19 59 -55 83 -80 23 -25 90 -90 148 -145
59 -55 146 -138 195 -185 49 -47 98 -94 110 -105 12 -11 51 -49 87 -85 169
-170 211 -210 221 -210 15 0 14 14 -10 127 -12 54 -24 123 -29 153 -4 30 -17
98 -30 150 -12 52 -34 149 -50 215 -15 66 -32 140 -38 165 -23 98 -99 371
-157 565 -57 190 -63 208 -79 250 -47 122 -68 184 -77 220 -6 21 -14 44 -18
50 -5 5 -21 46 -36 90 -42 122 -162 413 -243 590 -62 135 -239 489 -273 545
-14 25 -46 79 -69 120 -53 91 -226 377 -260 429 -14 21 -35 53 -47 72 -32 50
-96 140 -109 153 -6 6 -23 29 -38 51 -66 99 -112 161 -176 241 -19 24 -55 69
-80 100 -25 31 -66 80 -92 107 -27 28 -48 55 -48 59 0 5 -21 31 -47 58 -27 27
-77 81 -113 120 -145 157 -504 502 -576 553 -21 15 -77 59 -124 97 -133 110
-361 279 -410 306 -46 24 -119 73 -245 163 -38 28 -112 71 -163 96 -52 25
-119 63 -150 85 -30 22 -62 40 -71 40 -18 0 -107 45 -132 66 -8 8 -42 23 -75
34 -32 11 -76 32 -96 45 -20 13 -57 29 -82 36 -25 6 -60 22 -77 35 -18 13 -44
24 -58 24 -14 0 -44 11 -66 25 -22 13 -49 25 -61 25 -12 0 -42 11 -68 25 -26
14 -57 25 -69 25 -12 0 -37 9 -55 20 -18 11 -40 20 -50 20 -9 0 -39 8 -67 19
-82 31 -118 43 -155 51 -19 4 -48 13 -65 18 -16 6 -57 18 -90 27 -33 10 -76
23 -96 31 -31 11 -40 11 -55 -1z"/>
<path d="M9027 26298 c-42 -40 -113 -107 -159 -148 -80 -73 -185 -170 -278
-255 -25 -23 -74 -70 -110 -104 -35 -34 -79 -71 -96 -83 -17 -12 -39 -33 -49
-48 -10 -15 -34 -37 -54 -51 -19 -13 -60 -49 -91 -79 -86 -85 -310 -293 -334
-310 -12 -8 -45 -37 -73 -65 -28 -27 -80 -77 -115 -110 -35 -33 -119 -112
-187 -175 -67 -63 -132 -121 -145 -130 -13 -8 -46 -37 -73 -65 -28 -27 -80
-77 -117 -110 -36 -33 -93 -85 -126 -115 -121 -112 -202 -187 -264 -245 -36
-33 -97 -89 -136 -125 -40 -36 -98 -90 -130 -120 -32 -30 -91 -84 -130 -120
-39 -36 -102 -95 -139 -131 -37 -37 -76 -69 -87 -73 -11 -3 -28 -20 -38 -37
-10 -16 -36 -43 -59 -60 -40 -29 -87 -72 -193 -178 -29 -30 -65 -62 -78 -70
-23 -15 -223 -197 -336 -305 -30 -29 -149 -139 -265 -245 -115 -105 -232 -213
-260 -240 -27 -27 -144 -135 -260 -241 -115 -105 -237 -217 -271 -248 -33 -31
-93 -86 -133 -122 -40 -36 -94 -85 -121 -110 -80 -75 -183 -171 -264 -245 -42
-38 -101 -93 -130 -121 -29 -29 -65 -59 -79 -68 -38 -25 -81 -92 -72 -113 3
-10 10 -52 15 -93 18 -151 40 -326 45 -350 4 -23 17 -128 45 -375 6 -49 15
-115 20 -145 16 -90 61 -428 70 -530 5 -52 14 -113 19 -135 6 -22 11 -67 11
-100 0 -33 6 -80 14 -105 7 -25 16 -76 20 -115 7 -72 17 -154 36 -288 6 -43
15 -112 20 -155 16 -144 55 -444 69 -535 6 -34 18 -127 27 -207 9 -80 23 -154
30 -166 11 -19 40 -30 191 -76 18 -5 35 -14 38 -19 4 -5 17 -9 31 -9 14 0 37
-6 52 -14 15 -7 45 -17 66 -20 22 -4 49 -14 60 -22 11 -8 32 -14 46 -14 15 0
35 -7 46 -15 10 -8 30 -15 44 -15 14 0 42 -9 63 -20 20 -11 49 -20 64 -20 16
0 42 -9 58 -20 17 -11 41 -20 55 -20 14 -1 36 -7 50 -15 14 -8 35 -14 47 -15
12 0 42 -8 65 -19 24 -10 77 -29 118 -41 41 -12 90 -29 108 -36 18 -8 40 -14
50 -14 9 -1 35 -9 57 -20 22 -11 49 -20 60 -20 11 0 31 -7 45 -15 14 -8 36
-14 50 -15 14 0 39 -9 55 -20 17 -11 44 -20 61 -20 16 0 39 -7 50 -15 10 -8
30 -15 44 -15 14 0 42 -9 63 -20 20 -11 45 -20 54 -20 10 0 40 -8 68 -19 84
-31 118 -43 155 -51 19 -4 51 -14 70 -22 19 -9 62 -24 95 -33 33 -10 98 -31
145 -47 47 -16 102 -34 124 -39 21 -5 51 -16 67 -24 15 -8 37 -15 49 -15 11 0
37 -9 57 -20 21 -11 49 -20 63 -20 14 0 34 -7 44 -15 11 -8 30 -15 43 -15 13
0 41 -9 63 -20 22 -11 50 -20 63 -20 13 0 32 -7 43 -15 10 -8 29 -15 42 -15
13 0 44 -8 70 -19 72 -28 233 -82 272 -90 19 -5 51 -15 70 -23 50 -22 135 -48
154 -48 9 0 33 -9 53 -20 21 -11 47 -20 58 -20 11 -1 31 -7 45 -15 14 -8 35
-14 48 -15 12 0 40 -9 62 -20 22 -11 48 -20 60 -20 11 0 37 -9 57 -20 21 -11
49 -20 63 -20 14 0 31 -5 37 -11 6 -6 29 -15 50 -19 21 -5 61 -16 88 -26 28
-9 66 -22 85 -29 19 -7 69 -22 110 -35 41 -12 87 -29 102 -36 14 -8 37 -14 50
-14 12 0 36 -7 52 -15 16 -9 46 -20 65 -25 59 -15 134 -41 163 -56 14 -8 39
-14 55 -14 16 0 38 -7 49 -15 10 -8 29 -15 42 -15 13 0 37 -8 55 -17 18 -9 48
-20 67 -24 19 -4 58 -15 85 -25 28 -10 73 -25 100 -35 28 -9 66 -22 85 -29 19
-6 51 -15 70 -20 19 -4 51 -14 70 -22 52 -23 101 -39 140 -47 19 -4 45 -13 57
-19 12 -7 30 -12 40 -12 10 0 36 -9 58 -20 22 -11 50 -20 63 -20 13 0 37 -14
54 -30 l30 -30 -4 -2378 c-1 -1307 1 -2383 5 -2390 5 -7 32 -28 60 -47 29 -19
70 -49 93 -67 22 -18 65 -52 95 -76 85 -68 185 -152 258 -217 37 -33 94 -78
127 -100 32 -22 102 -75 155 -117 53 -43 105 -78 115 -78 19 0 19 62 17 2842
-3 2531 -5 2856 -19 2958 -8 63 -22 138 -29 165 -8 28 -17 82 -20 120 -4 39
-13 99 -20 135 -8 36 -19 97 -24 135 -5 39 -16 106 -24 150 -16 89 -40 227
-62 355 -8 47 -17 108 -20 135 -4 28 -19 115 -35 195 -16 80 -31 163 -34 185
-17 122 -59 373 -75 460 -19 95 -29 157 -51 305 -20 130 -42 257 -60 340 -10
47 -22 114 -25 150 -4 36 -13 90 -21 120 -8 30 -14 74 -14 98 0 23 -6 71 -14
105 -19 82 -50 259 -76 437 -12 80 -32 199 -45 265 -13 66 -42 237 -65 380
-23 143 -47 285 -55 315 -7 30 -17 78 -20 105 -4 28 -13 88 -20 135 -8 47 -21
132 -30 190 -9 58 -25 148 -35 200 -17 89 -26 149 -51 330 -5 41 -16 107 -24
145 -34 168 -48 246 -61 335 -18 133 -31 208 -69 415 -19 99 -46 259 -60 355
-14 96 -35 216 -45 265 -10 50 -21 110 -24 135 -4 25 -13 83 -21 130 -8 47
-19 117 -25 155 -25 162 -39 242 -49 273 -5 18 -13 65 -16 105 -4 40 -13 94
-21 121 -8 27 -14 75 -14 107 0 31 -6 74 -14 95 -7 22 -25 113 -40 204 -41
261 -56 347 -78 465 -22 116 -27 151 -78 470 -17 110 -40 238 -50 285 -16 78
-41 229 -71 438 -10 64 -16 82 -29 82 -9 0 -51 -33 -93 -72z"/>
<path d="M13221 26277 c-6 -6 -11 -27 -11 -46 -1 -20 -7 -72 -16 -116 -8 -44
-19 -109 -24 -145 -6 -36 -26 -157 -45 -270 -19 -113 -46 -277 -60 -365 -14
-88 -32 -189 -39 -225 -8 -36 -19 -96 -25 -135 -7 -38 -16 -95 -21 -125 -23
-131 -42 -249 -50 -305 -5 -33 -14 -87 -20 -120 -6 -33 -15 -85 -19 -115 -5
-30 -16 -95 -25 -145 -16 -92 -72 -420 -87 -510 -4 -27 -13 -77 -19 -110 -16
-86 -48 -280 -70 -420 -10 -66 -21 -131 -24 -145 -4 -14 -13 -68 -21 -120 -20
-138 -44 -278 -55 -335 -6 -27 -17 -93 -26 -145 -8 -52 -23 -148 -34 -212 -10
-65 -21 -122 -24 -127 -3 -5 -11 -44 -16 -87 -6 -44 -17 -115 -25 -159 -8 -44
-23 -134 -34 -200 -11 -66 -28 -163 -36 -215 -9 -52 -20 -122 -25 -155 -6 -33
-15 -87 -20 -120 -6 -33 -15 -89 -21 -125 -5 -36 -16 -101 -24 -145 -8 -44
-21 -120 -29 -170 -8 -49 -26 -153 -40 -230 -31 -171 -102 -595 -121 -725 -8
-52 -17 -106 -21 -120 -3 -14 -12 -68 -21 -120 -27 -177 -42 -265 -64 -380
-11 -63 -25 -137 -29 -165 -5 -27 -14 -81 -20 -120 -6 -38 -15 -92 -20 -120
-5 -27 -13 -79 -19 -115 -10 -67 -104 -628 -141 -850 -12 -69 -30 -172 -40
-230 -25 -133 -46 -255 -60 -345 -6 -38 -16 -92 -20 -120 -5 -27 -18 -104 -29
-170 -73 -447 -96 -590 -108 -650 -4 -22 -8 -1324 -8 -2892 l0 -2853 23 0 c13
0 35 12 50 28 14 15 43 38 63 52 86 59 205 148 244 182 23 21 46 38 50 38 4 0
24 15 45 33 33 28 134 105 233 175 17 13 43 34 57 46 14 13 39 31 55 40 17 9
47 31 68 50 l39 35 -1 2375 c-1 1571 2 2382 8 2395 10 18 40 28 327 116 44 14
89 25 101 25 11 0 37 7 58 15 20 9 85 29 143 45 59 15 145 39 192 53 47 13
114 32 150 41 36 10 92 26 126 37 33 11 85 26 115 34 69 17 433 119 519 145
68 21 646 183 715 201 22 6 83 23 135 39 52 16 154 45 225 65 72 20 158 45
193 56 34 10 71 19 81 19 10 0 57 14 104 30 48 17 93 30 101 30 8 0 54 13 103
28 80 26 146 45 258 74 22 6 83 23 135 38 146 43 380 110 460 130 25 7 81 23
125 35 83 25 225 65 380 109 50 14 135 39 191 56 55 16 107 30 114 30 7 0 59
14 114 31 134 40 238 70 371 107 289 79 341 95 357 111 12 12 22 61 37 186 12
94 26 199 31 235 6 36 15 101 19 145 8 74 27 215 51 375 5 36 16 126 25 200 9
74 23 185 31 245 7 61 19 148 25 195 5 47 12 96 15 110 2 14 11 79 19 145 12
101 32 248 70 535 28 202 45 334 50 385 3 33 10 85 15 115 5 30 16 114 25 185
8 72 20 154 26 183 13 67 -1 114 -44 143 -18 12 -70 59 -117 105 -119 118
-418 408 -555 539 -64 61 -189 180 -278 266 -89 86 -206 199 -260 250 -54 52
-123 121 -155 154 -31 32 -68 68 -81 80 -30 25 -192 178 -316 300 -51 50 -107
104 -126 120 -19 17 -56 53 -84 81 -27 28 -94 93 -149 145 -54 52 -137 132
-185 179 -48 47 -98 94 -111 105 -14 12 -54 50 -88 85 -35 36 -105 104 -155
153 -51 48 -175 168 -277 268 -101 99 -196 187 -210 196 -14 8 -47 42 -75 76
-27 33 -62 67 -76 76 -14 9 -106 95 -204 191 -98 96 -217 213 -265 260 -47 47
-169 164 -270 260 -101 96 -225 216 -276 265 -50 50 -111 108 -135 130 -24 22
-61 58 -81 80 -21 22 -86 85 -144 140 -59 55 -146 138 -193 185 -125 123 -428
411 -484 461 -26 23 -63 63 -82 89 -36 49 -65 66 -84 47z"/>
<path d="M3140 21118 c-30 -5 -80 -15 -110 -23 -30 -7 -89 -19 -130 -25 -41
-6 -98 -18 -126 -26 -28 -8 -55 -14 -60 -12 -11 3 -148 -21 -188 -33 -16 -5
-45 -9 -65 -9 -52 0 -109 -18 -120 -38 -5 -10 -8 -1316 -6 -3132 2 -2840 3
-3118 18 -3153 9 -20 31 -61 50 -90 19 -28 47 -74 62 -102 16 -27 67 -115 115
-195 47 -80 119 -201 160 -270 40 -69 90 -153 112 -188 21 -35 43 -82 48 -105
7 -28 11 -708 13 -1992 l3 -1950 31 -71 c26 -60 79 -205 134 -364 6 -19 20
-55 30 -80 10 -25 37 -94 60 -155 23 -60 53 -137 66 -170 14 -33 27 -69 30
-80 6 -20 87 -232 145 -375 16 -41 38 -92 49 -112 10 -20 19 -42 19 -48 0 -7
6 -26 14 -43 8 -18 45 -106 81 -196 36 -90 77 -186 89 -215 13 -28 36 -82 51
-119 16 -37 32 -70 37 -73 4 -3 8 -12 8 -21 0 -8 29 -81 64 -162 95 -217 203
-459 230 -516 13 -27 59 -126 102 -220 42 -93 97 -213 122 -265 55 -119 490
-991 501 -1005 5 -5 41 -73 81 -150 40 -77 76 -144 80 -150 4 -5 23 -39 43
-75 124 -229 191 -347 401 -710 55 -95 93 -156 163 -261 12 -19 23 -38 23 -42
0 -4 21 -40 48 -81 58 -91 121 -190 147 -233 11 -18 42 -65 69 -105 27 -40 59
-89 71 -108 76 -121 149 -229 170 -253 14 -15 25 -31 25 -36 0 -5 16 -28 35
-51 19 -23 35 -48 35 -55 0 -7 7 -18 15 -25 9 -7 40 -50 69 -94 30 -45 62 -88
71 -96 9 -7 25 -30 35 -51 11 -20 23 -39 28 -41 5 -1 21 -21 36 -43 54 -81 75
-111 100 -140 14 -16 46 -57 70 -90 48 -64 92 -120 157 -199 23 -27 46 -60 52
-73 5 -12 21 -30 33 -38 13 -8 33 -33 44 -55 11 -22 31 -47 45 -56 13 -9 36
-36 50 -60 14 -24 30 -44 35 -44 6 0 23 -19 40 -43 29 -42 78 -98 155 -180 23
-23 53 -60 68 -83 15 -23 39 -47 52 -54 13 -7 35 -29 49 -49 22 -33 125 -148
176 -196 11 -11 35 -35 53 -54 34 -35 196 -197 357 -354 52 -52 111 -105 130
-119 19 -14 83 -70 142 -124 115 -106 202 -179 276 -231 25 -18 64 -50 86 -71
23 -22 91 -75 151 -118 61 -43 145 -104 187 -136 42 -32 84 -58 94 -58 18 0
17 34 -6 275 -5 50 -15 171 -24 270 -8 99 -20 216 -25 260 -6 44 -15 136 -21
205 -21 272 -39 469 -50 550 -6 47 -20 189 -31 315 -11 127 -25 277 -30 335
-5 58 -16 179 -24 270 -8 91 -20 212 -26 270 -19 191 -27 283 -38 430 -6 80
-16 181 -21 225 -20 165 -31 305 -26 313 3 5 -1 40 -9 78 -7 38 -17 130 -20
204 -4 74 -12 155 -17 180 -5 25 -16 124 -23 220 -19 235 -42 486 -55 590 -6
47 -15 144 -20 215 -5 72 -16 198 -24 280 -27 264 -37 367 -46 485 -5 63 -14
162 -20 220 -23 222 -29 290 -40 445 -6 88 -15 187 -20 220 -5 33 -14 121 -20
195 -6 74 -15 167 -20 205 -5 39 -12 120 -15 180 -4 61 -13 155 -21 210 -7 55
-18 165 -24 245 -6 80 -15 176 -20 213 -5 37 -11 117 -14 177 -3 61 -8 115
-12 122 -4 6 -13 93 -20 192 -7 100 -18 218 -24 264 -5 45 -15 138 -20 205
-15 191 -38 452 -50 567 -19 188 -30 312 -45 485 -8 94 -19 208 -25 255 -6 47
-14 137 -20 200 -25 317 -40 480 -50 540 -6 36 -15 130 -20 210 -6 80 -15 183
-20 230 -10 85 -16 151 -44 480 -8 96 -20 222 -26 280 -7 58 -16 152 -20 210
-5 58 -16 179 -24 270 -9 91 -20 217 -26 280 -6 63 -15 158 -20 210 -16 161
-31 334 -32 365 0 17 -2 38 -4 47 -5 18 -122 88 -148 88 -9 0 -42 14 -73 30
-31 17 -63 30 -71 30 -9 0 -39 13 -67 29 -29 16 -72 35 -96 41 -24 7 -51 19
-61 27 -9 8 -38 21 -64 29 -26 8 -66 25 -88 38 -23 13 -56 26 -74 29 -19 4
-47 16 -64 28 -16 12 -47 25 -69 30 -22 5 -57 20 -77 33 -20 14 -57 30 -82 36
-25 7 -56 20 -70 29 -14 10 -47 24 -73 31 -26 7 -59 22 -73 33 -14 11 -44 24
-67 29 -23 5 -58 19 -77 32 -19 12 -50 26 -69 29 -18 4 -50 17 -70 29 -20 13
-61 31 -91 41 -30 10 -62 25 -70 32 -8 7 -35 18 -60 25 -25 6 -62 22 -82 36
-21 13 -47 24 -58 24 -12 0 -51 16 -87 35 -36 19 -73 35 -83 35 -9 0 -37 14
-63 30 -26 17 -58 30 -70 30 -12 0 -44 14 -72 30 -27 16 -58 30 -68 30 -10 0
-48 16 -86 35 -37 19 -76 35 -87 35 -11 0 -35 11 -53 24 -18 13 -49 27 -69 31
-20 3 -54 18 -74 32 -20 13 -55 29 -78 34 -23 5 -58 21 -78 34 -20 14 -44 25
-53 25 -9 0 -41 13 -71 28 -29 16 -69 32 -88 35 -18 4 -54 20 -79 36 -25 16
-62 32 -82 35 -19 3 -51 17 -69 31 -19 14 -42 25 -51 25 -10 0 -50 16 -90 35
-41 19 -80 35 -89 35 -8 0 -32 11 -52 25 -21 14 -52 28 -70 32 -38 7 -150 66
-169 89 -13 16 -19 57 -39 249 -5 55 -14 116 -19 135 -5 19 -12 71 -16 115 -3
44 -10 96 -15 115 -5 19 -14 89 -20 155 -7 66 -18 156 -26 201 -8 44 -14 103
-14 130 0 27 -5 65 -10 85 -6 20 -15 79 -20 130 -5 52 -17 146 -25 209 -26
196 -34 261 -44 368 -6 56 -13 108 -17 114 -4 5 -10 56 -14 112 -4 56 -12 118
-18 137 -6 19 -16 81 -22 139 -7 58 -16 137 -21 175 -5 39 -13 115 -18 170 -5
55 -15 116 -20 135 -6 19 -11 60 -11 90 0 30 -6 87 -14 125 -9 39 -20 117 -26
175 -6 58 -17 150 -25 205 -8 55 -17 120 -19 145 -15 159 -27 260 -36 290 -5
19 -10 55 -10 80 0 25 -6 81 -15 125 -18 100 -35 239 -35 291 -1 21 -7 66 -15
99 -8 33 -15 91 -15 128 0 38 -5 78 -12 90 -6 12 -15 63 -19 112 -4 50 -15
140 -24 200 -8 61 -19 153 -24 205 -5 52 -12 102 -16 111 -3 9 -9 54 -13 99
-9 101 -19 111 -102 98z"/>
<path d="M19136 20758 c-7 -22 -24 -145 -41 -283 -8 -71 -20 -159 -25 -195
-16 -103 -51 -377 -61 -470 -4 -47 -13 -116 -19 -155 -12 -79 -46 -347 -60
-475 -11 -92 -44 -353 -61 -465 -5 -38 -14 -108 -19 -155 -6 -47 -15 -119 -20
-160 -12 -81 -28 -212 -59 -469 -11 -91 -23 -176 -26 -190 -3 -14 -12 -84 -20
-156 -15 -128 -23 -190 -45 -350 -6 -44 -17 -132 -25 -195 -52 -422 -59 -476
-101 -790 -8 -63 -21 -169 -29 -235 -8 -66 -19 -151 -25 -190 -6 -38 -14 -108
-19 -155 -5 -47 -14 -116 -20 -155 -5 -38 -15 -108 -21 -154 -5 -47 -16 -94
-24 -105 -15 -24 -55 -43 -226 -109 -63 -24 -191 -74 -285 -110 -93 -36 -181
-69 -195 -73 -14 -3 -29 -10 -35 -14 -5 -3 -32 -15 -60 -25 -27 -10 -68 -25
-90 -35 -40 -16 -73 -30 -174 -69 -29 -12 -58 -21 -63 -21 -6 0 -24 -6 -41
-14 -55 -25 -110 -47 -196 -78 -46 -16 -122 -45 -170 -65 -94 -39 -172 -69
-300 -114 -46 -17 -97 -37 -112 -45 -16 -8 -61 -26 -101 -40 -76 -26 -231 -86
-283 -109 -16 -7 -55 -22 -85 -33 -30 -11 -127 -47 -215 -81 -88 -34 -182 -70
-210 -80 -27 -11 -104 -40 -170 -66 -66 -26 -136 -53 -155 -60 -19 -7 -78 -30
-130 -50 -123 -49 -215 -83 -265 -100 -112 -38 -253 -105 -256 -123 -1 -4 -3
-18 -4 -32 -1 -14 -7 -77 -14 -140 -6 -63 -21 -216 -32 -340 -52 -587 -60
-678 -64 -715 -3 -22 -9 -94 -15 -160 -6 -66 -17 -192 -26 -280 -24 -257 -52
-553 -73 -800 -11 -126 -25 -264 -30 -305 -6 -41 -15 -145 -22 -230 -6 -85
-14 -173 -19 -195 -4 -22 -8 -58 -9 -80 0 -22 -5 -89 -11 -150 -5 -60 -15
-162 -20 -225 -6 -63 -12 -126 -15 -140 -2 -14 -11 -115 -20 -225 -8 -110 -20
-240 -25 -290 -6 -49 -20 -189 -30 -310 -39 -437 -59 -661 -65 -695 -3 -19
-12 -116 -21 -215 -15 -190 -19 -226 -28 -315 -3 -30 -12 -136 -21 -235 -9
-99 -22 -243 -30 -320 -7 -77 -19 -203 -25 -280 -6 -77 -15 -169 -20 -205 -5
-36 -17 -159 -25 -275 -8 -115 -20 -241 -25 -280 -5 -38 -14 -131 -20 -205 -6
-74 -15 -175 -21 -225 -5 -49 -18 -189 -29 -310 -11 -121 -24 -265 -30 -320
-5 -55 -14 -161 -20 -235 -6 -74 -15 -171 -20 -215 -6 -44 -17 -161 -25 -260
-8 -99 -20 -223 -25 -275 -11 -100 -38 -392 -70 -750 -48 -549 -61 -690 -70
-755 -5 -38 -15 -140 -20 -225 -6 -85 -13 -164 -16 -176 -3 -11 -7 -43 -8 -70
-4 -53 -17 -203 -41 -459 -8 -88 -24 -261 -35 -385 -11 -124 -22 -243 -25
-265 -2 -22 -14 -137 -25 -255 -11 -118 -29 -309 -41 -425 -11 -116 -20 -226
-20 -245 0 -19 -4 -60 -9 -89 -6 -30 -6 -59 -2 -63 8 -8 219 126 292 184 60
48 117 88 126 88 4 0 22 13 39 29 29 29 40 38 142 110 26 19 50 39 51 43 2 5
25 23 50 40 56 38 181 145 440 377 90 80 587 580 710 714 57 62 145 162 195
222 50 61 111 129 135 152 23 23 57 64 75 90 18 27 60 82 92 122 33 41 84 106
113 145 29 39 61 78 71 86 22 18 543 737 586 809 54 91 208 315 243 355 19 21
43 59 54 85 11 25 30 60 43 76 12 17 30 46 40 65 10 19 55 91 100 160 45 69
98 154 117 190 54 101 109 193 128 215 9 11 43 70 75 132 32 61 65 120 74 130
10 10 43 70 74 133 32 63 68 128 80 145 13 16 42 71 66 120 23 50 51 99 61
110 10 11 32 52 47 90 16 39 43 91 61 117 17 25 41 71 52 102 12 31 39 82 61
115 21 32 39 63 39 69 0 15 42 103 66 137 11 17 29 53 39 80 10 28 35 79 57
114 21 36 38 70 38 76 0 7 16 42 36 79 19 37 42 86 50 109 8 23 27 62 43 87
16 25 32 56 36 70 4 14 41 94 81 178 41 84 74 156 74 159 0 4 15 36 34 72 18
36 37 80 41 98 3 18 17 48 29 66 13 19 29 52 36 73 6 22 24 66 40 99 15 33 44
98 65 145 21 47 50 112 66 145 16 33 29 66 29 73 0 7 14 39 30 72 17 33 30 65
30 72 0 7 11 36 25 63 13 28 25 54 25 60 0 5 16 45 36 90 42 93 77 177 92 220
5 17 27 68 47 115 21 47 43 105 50 130 7 25 22 66 34 93 54 121 61 138 61 150
0 6 11 34 24 62 13 27 31 70 39 95 8 25 26 74 40 110 14 36 31 81 37 100 7 19
21 55 31 80 9 25 24 65 32 90 26 80 39 114 58 155 10 22 23 62 29 89 7 33 10
650 9 1987 l-1 1939 32 57 c49 87 141 235 162 259 10 11 39 61 64 109 25 49
75 133 112 188 80 118 66 96 141 233 l61 111 0 3126 c-1 2439 -3 3127 -13
3135 -13 9 -41 17 -202 52 -55 12 -127 29 -160 37 -33 8 -78 19 -100 23 -89
19 -134 30 -230 53 -148 36 -184 41 -189 25z"/>
</g>
</svg>
