<?xml version="1.0" encoding="UTF-8"?>
<svg version="1.1" xmlns="http://www.w3.org/2000/svg" width="512" height="512">
<path d="M0 0 C0.83076034 -0.00581376 1.66152068 -0.01162753 2.51745558 -0.01761746 C5.2956874 -0.03219225 8.07303224 -0.01834409 10.85125732 -0.00457001 C12.86536739 -0.00917991 14.87947409 -0.01553343 16.89357376 -0.02347898 C22.42411369 -0.04018301 27.95437765 -0.03192092 33.48491859 -0.01953411 C39.45092263 -0.01049041 45.41687895 -0.02444999 51.38287354 -0.0354538 C62.39325335 -0.05222222 73.40355111 -0.05075547 84.41393411 -0.03980792 C94.58563754 -0.02974398 104.75730873 -0.02711969 114.92901611 -0.0318985 C115.60384243 -0.03220404 116.27866874 -0.03250958 116.97394434 -0.03282438 C119.7133142 -0.03406974 122.45268404 -0.03534334 125.19205387 -0.03666343 C150.88718105 -0.04889825 176.58225221 -0.03780747 202.27737075 -0.01627585 C225.10378743 0.00270646 247.93011486 0.00100794 270.75653076 -0.01811981 C296.40478764 -0.03954035 322.05299503 -0.04803055 347.70125961 -0.03567076 C350.4356257 -0.0343879 353.1699918 -0.03313653 355.90435791 -0.0318985 C356.57762396 -0.03158219 357.25089001 -0.03126588 357.94455805 -0.03093999 C368.10963839 -0.02639092 378.27468293 -0.03170965 388.4397583 -0.04181671 C399.99842283 -0.05325214 411.55698708 -0.05001276 423.11563969 -0.02869374 C429.01432337 -0.01817306 434.91282579 -0.01407901 440.81150818 -0.02729034 C446.2100351 -0.03919871 451.60821251 -0.03267702 457.00670767 -0.01138014 C458.96083401 -0.00690752 460.91498979 -0.00919507 462.86909723 -0.01888329 C465.52427659 -0.03103874 468.17825726 -0.01858083 470.83337402 0 C471.59299171 -0.00936466 472.3526094 -0.01872933 473.1352458 -0.02837777 C479.84260341 0.06550618 485.12792176 2.20683848 489.8849411 6.9799881 C492.17956685 12.25816791 491.96781945 17.18000806 491.92462158 22.877388 C491.93086154 24.13601528 491.93710151 25.39464256 491.94353056 26.69141006 C491.96021459 30.17810064 491.95198208 33.66435278 491.93958569 37.15104485 C491.9305336 40.91390057 491.94450569 44.67668103 491.95550537 48.43952179 C491.97329354 55.80819676 491.96944932 63.17670877 491.95785481 70.54539013 C491.94882192 76.53395869 491.94759586 82.52248157 491.95195007 88.51105499 C491.95256301 89.36332098 491.95317594 90.21558696 491.95380744 91.09367919 C491.95508634 92.82503161 491.9563832 94.55638402 491.95769781 96.28773642 C491.96910448 112.52332521 491.95598855 128.75882366 491.93449634 144.99439764 C491.91662527 158.92581727 491.91972936 172.85710359 491.93817139 186.78852081 C491.95957658 202.96593801 491.96800583 219.14327603 491.95572233 235.32070541 C491.95444813 237.04569497 491.95319065 238.77068455 491.95195007 240.49567413 C491.95133297 241.3444059 491.95071587 242.19313766 491.95008007 243.06758857 C491.94662611 249.04908889 491.95245649 255.03053901 491.96186829 261.01203156 C491.97308575 268.30132878 491.97005361 275.5904537 491.94874531 282.87973118 C491.93823139 286.59900203 491.93411864 290.31798559 491.94734192 294.03725433 C491.96145659 298.06820015 491.94460589 302.09842032 491.92462158 306.12934113 C491.93354447 307.30618343 491.94246736 308.48302574 491.95166063 309.69552994 C491.85172681 320.05328627 491.85172681 320.05328627 487.41668701 324.50336456 C481.96804045 328.04862047 477.2490014 329.08582181 470.83337402 329.00672913 C470.00261368 329.01254289 469.17185334 329.01835665 468.31591845 329.02434659 C465.53768663 329.03892137 462.76034178 329.02507322 459.9821167 329.01129913 C457.96800663 329.01590904 455.95389993 329.02226255 453.93980026 329.03020811 C448.40926034 329.04691213 442.87899637 329.03865004 437.34845543 329.02626324 C431.38245139 329.01721954 425.41649507 329.03117911 419.45050049 329.04218292 C408.44012067 329.05895134 397.42982291 329.0574846 386.41943991 329.04653705 C376.24773648 329.0364731 366.0760653 329.03384882 355.90435791 329.03862762 C355.2295316 329.03893316 354.55470528 329.03923871 353.85942969 329.0395535 C351.12005983 329.04079887 348.38068998 329.04207247 345.64132015 329.04339256 C319.94619297 329.05562738 294.25112181 329.0445366 268.55600327 329.02300497 C245.72958659 329.00402267 222.90325917 329.00572118 200.07684326 329.02484894 C174.42858638 329.04626948 148.780379 329.05475968 123.13211441 329.04239988 C120.39774832 329.04111702 117.66338222 329.03986566 114.92901611 329.03862762 C114.25575007 329.03831132 113.58248402 329.03799501 112.88881597 329.03766911 C102.72373564 329.03312005 92.5586911 329.03843877 82.39361572 329.04854584 C70.83495119 329.05998126 59.27638694 329.05674189 47.71773434 329.03542286 C41.81905065 329.02490219 35.92054823 329.02080813 30.02186584 329.03401947 C24.62333893 329.04592784 19.22516151 329.03940615 13.82666636 329.01810926 C11.87254002 329.01363665 9.91838423 329.0159242 7.96427679 329.02561241 C5.30909744 329.03776787 2.65511677 329.02530996 0 329.00672913 C-0.75961769 329.01609379 -1.51923537 329.02545846 -2.30187178 329.0351069 C-9.00922939 328.94122294 -14.29454774 326.79989064 -19.05156708 322.02674103 C-21.34619282 316.74856121 -21.13444542 311.82672106 -21.09124756 306.12934113 C-21.1006075 304.2414002 -21.1006075 304.2414002 -21.11015654 302.31531906 C-21.12684057 298.82862848 -21.11860805 295.34237635 -21.10621166 291.85568428 C-21.09715957 288.09282855 -21.11113166 284.3300481 -21.12213135 280.56720734 C-21.13991951 273.19853237 -21.1360753 265.83002036 -21.12448078 258.461339 C-21.11544789 252.47277044 -21.11422183 246.48424755 -21.11857605 240.49567413 C-21.11918898 239.64340815 -21.11980191 238.79114216 -21.12043342 237.91304994 C-21.12171232 236.18169751 -21.12300917 234.45034511 -21.12432379 232.71899271 C-21.13573045 216.48340392 -21.12261453 200.24790546 -21.10112232 184.01233149 C-21.08325125 170.08091185 -21.08635533 156.14962554 -21.10479736 142.21820831 C-21.12620255 126.04079111 -21.13463181 109.86345309 -21.12234831 93.68602371 C-21.12107411 91.96103415 -21.11981663 90.23604458 -21.11857605 88.51105499 C-21.11795895 87.66232323 -21.11734185 86.81359147 -21.11670604 85.93914056 C-21.11325209 79.95764023 -21.11908247 73.97619012 -21.12849426 67.99469757 C-21.13971173 60.70540035 -21.13667959 53.41627543 -21.11537129 46.12699795 C-21.10485737 42.40772709 -21.10074461 38.68874353 -21.1139679 34.96947479 C-21.12808257 30.93852897 -21.11123187 26.9083088 -21.09124756 22.877388 C-21.10017045 21.70054569 -21.10909333 20.52370338 -21.11828661 19.31119919 C-21.01835279 8.95344286 -21.01835279 8.95344286 -16.58331299 4.50336456 C-11.13466643 0.95810866 -6.41562738 -0.07909268 0 0 Z " fill="#ECF5FE" transform="translate(20.58331298828125,91.49663543701172)"/>
<path d="M0 0 C0.83979904 -0.00700928 1.67959808 -0.01401855 2.54484558 -0.02124023 C5.30823275 -0.03877984 8.07058762 -0.02721205 10.83398438 -0.01367188 C12.76159867 -0.01636795 14.68921164 -0.02025134 16.61682129 -0.02526855 C20.65174337 -0.03115813 24.68631065 -0.02261803 28.72119141 -0.00390625 C33.88629653 0.01888292 39.0505702 0.00575695 44.21564484 -0.01819611 C48.19458246 -0.03266866 52.17332383 -0.0280414 56.15226746 -0.01768494 C58.05641275 -0.01502168 59.96057602 -0.01827326 61.86470032 -0.02760315 C64.52876807 -0.03779278 67.19150017 -0.02223448 69.85546875 0 C71.02924324 -0.01214539 71.02924324 -0.01214539 72.22673035 -0.02453613 C77.40071441 0.05523181 80.30241923 1.14181611 84.42773438 4.51757812 C88.64837375 9.37976173 89.02148249 13.20157086 88.95898438 19.35351562 C88.96281128 20.1916983 88.96663818 21.02988098 88.97058105 21.89346313 C88.97329306 23.66010748 88.96598179 25.42679248 88.94921875 27.19335938 C88.92785138 29.87787857 88.9490152 32.55970546 88.97460938 35.24414062 C88.97196492 36.9681048 88.96683751 38.69206731 88.95898438 40.41601562 C88.9670813 41.20898041 88.97517822 42.00194519 88.98352051 42.81893921 C88.89129598 48.38401163 87.73147366 52.95258017 84.42773438 57.51757812 C83.10773438 58.50757813 81.78773438 59.49757813 80.42773438 60.51757812 C151.70773438 60.51757812 222.98773438 60.51757812 296.42773438 60.51757812 C295.43773437 58.86757813 294.44773437 57.21757812 293.42773438 55.51757812 C292.33611986 52.30694719 292.16654884 49.14699224 292.05273438 45.76757812 C292.00375 44.78273438 291.95476562 43.79789062 291.90429688 42.78320312 C292.63494408 38.22483697 294.10410698 34.79123665 297.42773438 31.51757812 C300.95299653 30.40757151 304.31223689 30.58191806 307.97851562 30.73632812 C308.99245895 30.74764771 310.00640228 30.75896729 311.05107117 30.77062988 C314.28273222 30.81533829 317.50991996 30.91569214 320.74023438 31.01757812 C322.93352957 31.05771221 325.12689447 31.0942131 327.3203125 31.12695312 C332.69097374 31.21505325 338.05903457 31.3488302 343.42773438 31.51757812 C343.60144967 33.70452966 343.76616766 35.89219554 343.92773438 38.08007812 C344.02054687 39.29824219 344.11335938 40.51640625 344.20898438 41.77148438 C344.51205059 48.34693897 344.42773438 54.935143 344.42773438 61.51757812 C383.36773437 61.51757812 422.30773437 61.51757812 462.42773438 61.51757812 C462.42773438 83.51757812 462.42773438 83.51757812 458.42773438 89.51757812 C453.42121031 93.44696383 448.01658359 94.0970339 441.84442139 94.02094269 C441.01366105 94.02675645 440.18290071 94.03257021 439.32696581 94.03856015 C436.54873399 94.05313493 433.77138914 94.03928678 430.99316406 94.0255127 C428.979054 94.0301226 426.96494729 94.03647612 424.95084763 94.04442167 C419.4203077 94.06112569 413.89004373 94.05286361 408.35950279 94.0404768 C402.39349875 94.0314331 396.42754244 94.04539268 390.46154785 94.05639648 C379.45116804 94.07316491 368.44087028 94.07169816 357.43048728 94.06075061 C347.25878385 94.05068666 337.08711266 94.04806238 326.91540527 94.05284119 C326.24057896 94.05314673 325.56575265 94.05345227 324.87047705 94.05376707 C322.13110719 94.05501243 319.39173734 94.05628603 316.65236752 94.05760612 C290.95724033 94.06984094 265.26216917 94.05875016 239.56705064 94.03721853 C216.74063395 94.01823623 193.91430653 94.01993475 171.08789062 94.0390625 C145.43963374 94.06048304 119.79142636 94.06897324 94.14316177 94.05661345 C91.40879569 94.05533058 88.67442959 94.05407922 85.94006348 94.05284119 C85.26679743 94.05252488 84.59353138 94.05220857 83.89986333 94.05188267 C73.734783 94.04733361 63.56973846 94.05265234 53.40466309 94.0627594 C41.84599855 94.07419483 30.2874343 94.07095545 18.7287817 94.04963642 C12.83009802 94.03911575 6.9315956 94.0350217 1.03291321 94.04823303 C-4.36561371 94.0601414 -9.76379112 94.05361971 -15.16228628 94.03232282 C-17.11641262 94.02785021 -19.07056841 94.03013776 -21.02467585 94.03982598 C-23.6798552 94.05198143 -26.33383587 94.03952352 -28.98895264 94.02094269 C-29.74857032 94.03030735 -30.50818801 94.03967202 -31.29082441 94.04932046 C-38.02350325 93.95508208 -43.32364712 91.81569452 -48.05664062 86.97851562 C-50.23982188 81.99320998 -50.00101033 77.5120375 -49.82226562 72.14257812 C-49.73976562 68.63632812 -49.65726563 65.13007813 -49.57226562 61.51757812 C-36.70226562 61.18757813 -23.83226562 60.85757813 -10.57226562 60.51757812 C-13.04726562 58.53757812 -13.04726562 58.53757812 -15.57226562 56.51757812 C-19.2279349 52.07008879 -19.02482098 47.77591049 -19.00585938 42.27148438 C-19.01110123 41.38275131 -19.01634308 40.49401825 -19.02174377 39.57835388 C-19.02815244 37.70320681 -19.02684195 35.82801947 -19.01831055 33.95288086 C-19.00980363 31.09285466 -19.03857216 28.23482893 -19.0703125 25.375 C-19.07192483 23.54882872 -19.07134637 21.72265392 -19.06835938 19.89648438 C-19.07959335 19.04631241 -19.09082733 18.19614044 -19.10240173 17.32020569 C-19.03937059 11.91634238 -18.27304636 8.72330863 -14.57226562 4.51757812 C-9.61943602 0.46889459 -6.12873298 -0.06341578 0 0 Z " fill="#7E8B97" transform="translate(49.572265625,326.482421875)"/>
<path d="M0 0 C4.95 0 9.9 0 15 0 C15.13020833 2.18098958 15.26041667 4.36197917 15.390625 6.54296875 C16.23960694 9.96610748 17.45422113 11.54383218 20 14 C22.9182415 14.50141358 25.25723114 14.67406851 28.17593765 14.63085651 C29.01123288 14.63831411 29.84652811 14.6457717 30.70713532 14.65345529 C33.52494768 14.67246653 36.34142801 14.65567018 39.15924072 14.63923645 C41.19210246 14.64554381 43.22495839 14.654044 45.25780272 14.66455668 C50.858472 14.68713708 56.45873103 14.6784695 62.05941343 14.6648711 C68.09351943 14.65563488 74.12753899 14.67513359 80.16162109 14.69119263 C90.62088058 14.71507237 101.08003965 14.72080514 111.53931427 14.71384621 C122.51059239 14.7066224 133.48178775 14.70969722 144.45305634 14.72656822 C145.13486399 14.72761087 145.81667165 14.72865352 146.51914014 14.72972776 C149.98160665 14.73507641 153.44407283 14.74060947 156.90653893 14.74621352 C181.43997281 14.7855894 205.97337292 14.80181135 230.50683594 14.80444336 C254.34279287 14.80705346 278.17870641 14.82013482 302.01464844 14.84741211 C302.74919784 14.84824853 303.48374725 14.84908496 304.24055572 14.84994673 C311.61711024 14.85835793 318.99366449 14.86698221 326.37021857 14.87576263 C341.39750685 14.89364499 356.42479658 14.91010494 371.4520874 14.92570496 C372.48851449 14.92678351 372.48851449 14.92678351 373.54587949 14.92788386 C419.69723885 14.97574824 465.8486185 14.99034972 512 15 C512.18007111 20.38712734 511.61715681 22.84026966 508 27 C502.6252704 30.6143068 497.7873944 31.58190346 491.41668701 31.50336456 C490.58592667 31.50917833 489.75516633 31.51499209 488.89923143 31.52098203 C486.12099961 31.53555681 483.34365477 31.52170866 480.56542969 31.50793457 C478.55131962 31.51254447 476.53721292 31.51889799 474.52311325 31.52684355 C468.99257333 31.54354757 463.46230936 31.53528548 457.93176842 31.52289867 C451.96576438 31.51385498 445.99980806 31.52781455 440.03381348 31.53881836 C429.02343366 31.55558678 418.0131359 31.55412003 407.0027529 31.54317249 C396.83104947 31.53310854 386.65937829 31.53048426 376.4876709 31.53526306 C375.81284458 31.5355686 375.13801827 31.53587414 374.44274268 31.53618894 C371.70337281 31.5374343 368.96400297 31.53870791 366.22463314 31.540028 C340.52950596 31.55226281 314.8344348 31.54117204 289.13931626 31.51964041 C266.31289958 31.50065811 243.48657215 31.50235662 220.66015625 31.52148438 C195.01189937 31.54290492 169.36369198 31.55139511 143.7154274 31.53903532 C140.98106131 31.53775246 138.24669521 31.5365011 135.5123291 31.53526306 C134.83906305 31.53494675 134.16579701 31.53463044 133.47212896 31.53430455 C123.30704863 31.52975548 113.14200408 31.53507421 102.97692871 31.54518127 C91.41826418 31.5566167 79.85969993 31.55337732 68.30104733 31.5320583 C62.40236364 31.52153763 56.50386122 31.51744357 50.60517883 31.53065491 C45.20665191 31.54256328 39.8084745 31.53604158 34.40997934 31.5147447 C32.45585301 31.51027209 30.50169722 31.51255964 28.54758978 31.52224785 C25.89241043 31.53440331 23.23842976 31.5219454 20.58331299 31.50336456 C19.8236953 31.51272923 19.06407762 31.52209389 18.28144121 31.53174233 C12.79601193 31.45496191 8.59957876 30.01489733 4 27 C-0.23422435 22.61930877 -0.43228223 18.81963301 -0.3515625 13.0078125 C-0.31804688 12.05648438 -0.28453125 11.10515625 -0.25 10.125 C-0.23195313 9.15046875 -0.21390625 8.1759375 -0.1953125 7.171875 C-0.14842913 4.78082327 -0.07669352 2.39028127 0 0 Z " fill="#5E6C74" transform="translate(0,389)"/>
<path d="M0 0 C0.83979904 -0.00700928 1.67959808 -0.01401855 2.54484558 -0.02124023 C5.30823275 -0.03877984 8.07058762 -0.02721205 10.83398438 -0.01367188 C12.76159867 -0.01636795 14.68921164 -0.02025134 16.61682129 -0.02526855 C20.65174337 -0.03115813 24.68631065 -0.02261803 28.72119141 -0.00390625 C33.88629653 0.01888292 39.0505702 0.00575695 44.21564484 -0.01819611 C48.19458246 -0.03266866 52.17332383 -0.0280414 56.15226746 -0.01768494 C58.05641275 -0.01502168 59.96057602 -0.01827326 61.86470032 -0.02760315 C64.52876807 -0.03779278 67.19150017 -0.02223448 69.85546875 0 C71.02924324 -0.01214539 71.02924324 -0.01214539 72.22673035 -0.02453613 C77.40071441 0.05523181 80.30241923 1.14181611 84.42773438 4.51757812 C88.64837375 9.37976173 89.02148249 13.20157086 88.95898438 19.35351562 C88.96472473 20.61078964 88.96472473 20.61078964 88.97058105 21.89346313 C88.97329306 23.66010748 88.96598179 25.42679248 88.94921875 27.19335938 C88.92785138 29.87787857 88.9490152 32.55970546 88.97460938 35.24414062 C88.97196492 36.9681048 88.96683751 38.69206731 88.95898438 40.41601562 C88.9670813 41.20898041 88.97517822 42.00194519 88.98352051 42.81893921 C88.89357013 48.24678331 88.02031242 53.27006299 84.42773438 57.51757812 C79.13418376 61.24936828 75.31290713 62.10051745 68.92553711 62.01928711 C68.10509918 62.02469009 67.28466125 62.03009308 66.43936157 62.03565979 C63.74630887 62.04809592 61.05433591 62.0316921 58.36132812 62.01367188 C56.47998499 62.01382697 54.59864153 62.01531765 52.71730042 62.01808167 C48.78249922 62.01946331 44.84806357 62.00694564 40.91333008 61.98413086 C35.87726931 61.95572743 30.84181465 61.95849203 25.80570889 61.97122097 C21.92371978 61.97818493 18.04187006 61.97038099 14.15989876 61.95796394 C12.30320839 61.9534578 10.44650302 61.95310531 8.58981133 61.95702934 C5.99307585 61.95994911 3.39716784 61.94339908 0.80053711 61.92163086 C-0.3428286 61.92838333 -0.3428286 61.92838333 -1.5092926 61.93527222 C-7.02410606 61.85869921 -11.08711787 60.75492258 -15.22984314 57.02528381 C-18.83822476 52.10906307 -19.29572723 48.08027556 -19.20117188 42.07617188 C-19.20358383 41.19026871 -19.20599579 40.30436554 -19.20848083 39.39161682 C-19.20750595 37.52836609 -19.19419836 35.6650851 -19.16918945 33.80200195 C-19.13481842 30.95944398 -19.14856419 28.11998859 -19.16796875 25.27734375 C-19.161071 23.46027331 -19.15139926 21.64321084 -19.13867188 19.82617188 C-19.14363174 18.98227402 -19.14859161 18.13837616 -19.15370178 17.26890564 C-19.04707819 11.89741598 -18.24049915 8.70104094 -14.57226562 4.51757812 C-9.62003437 0.46843673 -6.12841969 -0.06341254 0 0 Z " fill="#5F6C75" transform="translate(49.572265625,326.482421875)"/>
<path d="M0 0 C0.33 86.13 0.66 172.26 1 261 C1.99 259.02 2.98 257.04 4 255 C5.6484375 253.3203125 5.6484375 253.3203125 7.375 252.125 C7.93960937 251.71507812 8.50421875 251.30515625 9.0859375 250.8828125 C11.4863443 249.7756861 13.38372713 249.93935614 16 250 C16.00410889 251.05388916 16.00821777 252.10777832 16.01245117 253.19360352 C16.03433145 257.12833619 16.0887115 261.06208145 16.15258789 264.99633789 C16.17569081 266.69448333 16.19014545 268.39277049 16.19555664 270.09106445 C16.20490339 272.54206873 16.24601291 274.99086784 16.29296875 277.44140625 C16.2890361 278.19273331 16.28510345 278.94406036 16.28105164 279.71815491 C16.43429897 285.3370013 18.10369294 288.93334077 22 293 C23.98 294.485 23.98 294.485 26 296 C12.47 296 -1.06 296 -15 296 C-15.09040577 259.66743979 -15.16202776 223.33491225 -15.20426132 187.00226267 C-15.20926421 182.7139106 -15.21444149 178.42555876 -15.21972656 174.13720703 C-15.2207758 173.28346507 -15.22182505 172.42972311 -15.22290608 171.55011018 C-15.24031642 157.72222819 -15.27185757 143.89441264 -15.30861118 130.06657009 C-15.34600312 115.88036959 -15.36823215 101.69420391 -15.37635398 87.50795615 C-15.38184539 78.75262314 -15.39919614 69.99747792 -15.43166587 61.24220271 C-15.4527922 55.24026355 -15.45920432 49.23842163 -15.45400551 43.23644798 C-15.45144077 39.77236999 -15.45540183 36.30862043 -15.4768219 32.84460068 C-15.49666235 29.08920086 -15.49195979 25.33461086 -15.48101807 21.57919312 C-15.49266943 20.48385895 -15.5043208 19.38852479 -15.51632524 18.25999868 C-15.46841631 12.19514635 -15.07882408 8.60488571 -11 4 C-8.96484375 2.5390625 -8.96484375 2.5390625 -6.9375 1.625 C-6.26589844 1.30789062 -5.59429687 0.99078125 -4.90234375 0.6640625 C-3 0 -3 0 0 0 Z " fill="#CCE1FE" transform="translate(15,92)"/>
<path d="M0 0 C67.32 0 134.64 0 204 0 C204.99 3.63 205.98 7.26 207 11 C207.99 12.98 207.99 12.98 209 15 C136.73 15 64.46 15 -10 15 C-8.35 13.68 -6.7 12.36 -5 11 C-3.63667464 9.02269743 -3.63667464 9.02269743 -2.75 6.9375 C-2.27820313 5.93009766 -2.27820313 5.93009766 -1.796875 4.90234375 C-1.12443901 3.29706764 -0.55037093 1.65111278 0 0 Z " fill="#CCE1FE" transform="translate(138,373)"/>
<path d="M0 0 C0.83979904 -0.00700928 1.67959808 -0.01401855 2.54484558 -0.02124023 C5.30823275 -0.03877984 8.07058762 -0.02721205 10.83398438 -0.01367188 C12.76159867 -0.01636795 14.68921164 -0.02025134 16.61682129 -0.02526855 C20.65174337 -0.03115813 24.68631065 -0.02261803 28.72119141 -0.00390625 C33.88629653 0.01888292 39.0505702 0.00575695 44.21564484 -0.01819611 C48.19458246 -0.03266866 52.17332383 -0.0280414 56.15226746 -0.01768494 C58.05641275 -0.01502168 59.96057602 -0.01827326 61.86470032 -0.02760315 C64.52876807 -0.03779278 67.19150017 -0.02223448 69.85546875 0 C71.02924324 -0.01214539 71.02924324 -0.01214539 72.22673035 -0.02453613 C77.39355381 0.05512142 80.38765466 1.0305905 84.42773438 4.51757812 C88.42773438 10.51757812 88.42773438 10.51757812 88.42773438 30.51757812 C53.11773437 30.51757812 17.80773437 30.51757812 -18.57226562 30.51757812 C-18.57226562 10.51757812 -18.57226562 10.51757812 -14.57226562 4.51757812 C-9.75710733 0.36162117 -6.07595597 -0.06286968 0 0 Z " fill="#D7AA8B" transform="translate(49.572265625,326.482421875)"/>
<path d="M0 0 C16.4723039 -0.14017882 32.94441426 -0.24597478 49.41717052 -0.31087303 C57.06583281 -0.34180782 64.71412445 -0.38398031 72.36254883 -0.45263672 C79.02915914 -0.5124513 85.69550103 -0.55115192 92.36237222 -0.56453097 C95.89240868 -0.5723516 99.42167726 -0.59072143 102.95146751 -0.63438034 C106.8925144 -0.6827303 110.83281095 -0.6839385 114.77416992 -0.68115234 C115.94373734 -0.702724 117.11330475 -0.72429565 118.3183136 -0.746521 C126.0155209 -0.68748968 126.0155209 -0.68748968 128.82732582 1.27607346 C133.42902064 6.56322329 133.32660908 12.03059309 133.296875 18.68359375 C132.87700359 23.37399935 131.42643027 27.57356973 128 31 C125.44410112 31.09506052 122.91532028 31.12556761 120.35913086 31.11352539 C119.15922264 31.11374443 119.15922264 31.11374443 117.93507385 31.1139679 C115.27830335 31.11326855 112.62160207 31.10547518 109.96484375 31.09765625 C108.12781309 31.09579215 106.29078194 31.09436821 104.45375061 31.09336853 C99.60890338 31.08954275 94.76408592 31.07971196 89.91925049 31.06866455 C84.97937422 31.05845172 80.03949315 31.05387119 75.09960938 31.04882812 C65.39972647 31.03808974 55.69986571 31.0210126 46 31 C45.8262847 28.81304846 45.66156671 26.62538259 45.5 24.4375 C45.4071875 23.21933594 45.314375 22.00117188 45.21875 20.74609375 C44.91568378 14.17063916 45 7.58243513 45 1 C30.15 1 15.3 1 0 1 C0 0.67 0 0.34 0 0 Z " fill="#A0C8FA" transform="translate(348,357)"/>
<path d="M0 0 C1.47058113 0.06193542 1.47058113 0.06193542 2.97087097 0.12512207 C3.9848143 0.13644165 4.99875763 0.14776123 6.04342651 0.15942383 C9.27508756 0.20413223 12.50227531 0.30448608 15.73258972 0.40637207 C17.92588492 0.44650615 20.11924982 0.48300704 22.31266785 0.51574707 C27.6849082 0.59705226 33.0475084 0.75353688 38.42008972 0.90637207 C38.42008972 10.80637207 38.42008972 20.70637207 38.42008972 30.90637207 C32.0839163 30.99820067 25.75005075 31.07784038 19.41374207 31.12609863 C17.25838905 31.14621483 15.10309062 31.17351132 12.94792175 31.20812988 C9.84996577 31.25664693 6.75273126 31.2793408 3.65446472 31.29699707 C2.69078979 31.31764221 1.72711487 31.33828735 0.73423767 31.35955811 C-5.95544961 31.36180221 -5.95544961 31.36180221 -9.14143372 29.03820801 C-13.12760338 23.13066667 -13.79230328 15.84159916 -12.57991028 8.90637207 C-9.99023808 2.12857379 -7.22998786 -0.00474562 0 0 Z " fill="#5F6C75" transform="translate(354.5799102783203,357.0936279296875)"/>
<path d="M0 0 C30.36 0 60.72 0 92 0 C92 5.28 92 10.56 92 16 C80.72570478 16.09032777 69.45164944 16.16373136 58.17707443 16.20724869 C52.94196898 16.22813361 47.70712368 16.25646796 42.47216797 16.30175781 C37.42120045 16.345183 32.37048334 16.36913029 27.31934357 16.37950897 C25.39117744 16.38690631 23.46302519 16.40135144 21.53496552 16.42292023 C18.8364844 16.45191007 16.13904118 16.45595787 13.44042969 16.45410156 C12.24172997 16.47567322 12.24172997 16.47567322 11.01881409 16.49768066 C7.42699689 16.47090186 5.42143341 16.32541167 2.53497314 14.09661865 C-1.29770197 8.86157063 0 8.56890143 0 0 Z " fill="#808B95" transform="translate(46,357)"/>
<path d="M0 0 C28.71 0 57.42 0 87 0 C85.75843286 11.17410422 85.75843286 11.17410422 82 15 C79.06404611 15.58940951 76.94933971 15.7651816 74.01855469 15.68115234 C73.2181778 15.6820285 72.4178009 15.68290466 71.59317017 15.68380737 C68.95174007 15.67963225 66.31286042 15.63298799 63.671875 15.5859375 C61.83914579 15.57474499 60.00639861 15.56620506 58.17364502 15.56021118 C53.35301022 15.53731698 48.53346251 15.47838901 43.71325684 15.4119873 C38.79336249 15.35057729 33.87329224 15.32319893 28.953125 15.29296875 C19.30152919 15.22864556 9.65102512 15.12311592 0 15 C0 10.05 0 5.1 0 0 Z " fill="#80B6FC" transform="translate(394,373)"/>
<path d="M0 0 C14.52 0 29.04 0 44 0 C44 4.95 44 9.9 44 15 C38.21595259 15.09880115 32.43239516 15.1714363 26.64770508 15.21972656 C24.6795191 15.23985481 22.71139301 15.26716019 20.7434082 15.30175781 C17.9160282 15.35022311 15.08943799 15.37295618 12.26171875 15.390625 C11.38037766 15.41127014 10.49903656 15.43191528 9.59098816 15.45318604 C8.3600518 15.45363922 8.3600518 15.45363922 7.10424805 15.45410156 C6.38254929 15.46298401 5.66085052 15.47186646 4.9172821 15.48101807 C3 15 3 15 0 11 C0 7.37 0 3.74 0 0 Z " fill="#7D8A95" transform="translate(349,358)"/>
<path d="M0 0 C10.23 0 20.46 0 31 0 C31 4.95 31 9.9 31 15 C19.12 15 7.24 15 -5 15 C-3.68 12.03 -2.36 9.06 -1 6 C-0.67 4.02 -0.34 2.04 0 0 Z " fill="#CCE1FE" transform="translate(481,373)"/>
<path d="M0 0 C0 9.9 0 19.8 0 30 C-4.95 30 -9.9 30 -15 30 C-15.10837983 26.79075291 -15.18749268 23.5851973 -15.25 20.375 C-15.28351562 19.47136719 -15.31703125 18.56773437 -15.3515625 17.63671875 C-15.43558207 11.88137843 -14.92510702 8.52624953 -11 4 C-6.80747596 0.61029971 -5.5540492 0 0 0 Z " fill="#C7875C" transform="translate(46,327)"/>
</svg>
