<?xml version="1.0" encoding="UTF-8"?>
<svg version="1.1" xmlns="http://www.w3.org/2000/svg" width="512" height="512">
<path d="M0 0 C1.26885459 -0.00507454 2.53770918 -0.01014909 3.84501392 -0.0153774 C5.26629559 -0.01597913 6.68757732 -0.01647819 8.10885906 -0.01688576 C9.60845021 -0.02089882 11.10804026 -0.02533678 12.607629 -0.03016531 C16.74362932 -0.04215389 20.87961797 -0.04778453 25.01563227 -0.05234647 C29.47041157 -0.05829384 33.92517685 -0.06990575 38.37994671 -0.08063698 C49.14526052 -0.10517954 59.91057898 -0.11979017 70.67591217 -0.13269705 C73.71481841 -0.13640741 76.75372418 -0.14038076 79.79262996 -0.14444971 C98.65090528 -0.16968292 117.5091813 -0.19174298 136.36746979 -0.20417786 C140.7372955 -0.2071077 145.10712118 -0.21006935 149.47694683 -0.21308327 C150.56308805 -0.21382932 151.64922927 -0.21457537 152.76828387 -0.21534403 C170.37317977 -0.22800457 187.97797482 -0.26123606 205.58282355 -0.3028851 C223.6438999 -0.34526442 241.70492456 -0.3688682 259.76605052 -0.37409842 C269.91220661 -0.37751692 280.05820507 -0.3893238 290.20431232 -0.42220116 C298.84308146 -0.45014779 307.48166067 -0.46122473 316.12047151 -0.4500057 C320.53026187 -0.44480532 324.93965417 -0.44779469 329.34938717 -0.47247124 C333.38433277 -0.49486263 337.41859206 -0.49430354 341.45354887 -0.47526737 C342.91521972 -0.47245306 344.37693612 -0.4781449 345.83853338 -0.4930803 C347.82185921 -0.51211201 349.80542344 -0.49744183 351.78877258 -0.48101807 C352.89153544 -0.4823746 353.99429829 -0.48373112 355.1304782 -0.48512876 C359.04704428 0.34011244 360.55043304 2.11707945 363.083148 5.13701439 C364.66148793 8.29369425 364.22231666 11.68060873 364.21457577 15.14659405 C364.2166284 15.98821385 364.21868104 16.82983365 364.22079587 17.69695708 C364.22649942 20.54794696 364.22500451 23.39888903 364.2235899 26.24988365 C364.22617161 28.30219745 364.22918423 30.35451075 364.2325933 32.40682334 C364.24068929 38.07063784 364.24245431 43.73443968 364.24319077 49.39825928 C364.24503681 55.49722138 364.25258184 61.59617684 364.25932598 67.69513512 C364.27363778 81.73839333 364.27943816 95.78164738 364.28401793 109.82491113 C364.28635222 116.76128931 364.28995468 123.69766665 364.2937133 130.63404418 C364.30654993 154.36790433 364.31726923 178.10176401 364.3207159 201.83562756 C364.32093754 203.32607438 364.32115932 204.8165212 364.32138126 206.30696801 C364.3216019 207.80105953 364.32182238 209.29515105 364.3220427 210.78924257 C364.32248526 213.7867583 364.32293238 216.78427404 364.32338238 219.78178978 C364.32354646 220.89660792 364.32354646 220.89660792 364.32371387 222.03394764 C364.32734553 246.1395476 364.34326912 270.2451175 364.36657274 294.35070594 C364.39115329 319.82363926 364.40488791 345.29655539 364.40608382 370.76950091 C364.40625528 373.56428922 364.40647071 376.35907751 364.40671825 379.15386581 C364.40677402 379.84204464 364.40682979 380.53022346 364.40688725 381.23925619 C364.40803923 392.32736245 364.41907363 403.41543793 364.43360531 414.50353379 C364.44795183 425.64272875 364.45096466 436.78188469 364.44316533 447.92108992 C364.43924632 453.95908155 364.44024921 459.99696936 364.45422268 466.03494835 C364.46688679 471.55746997 364.46583042 477.07980895 364.45363197 482.60233005 C364.45166191 484.6050395 364.45481317 486.60776155 364.46347633 488.61045323 C364.47447483 491.32383072 364.46714808 494.03655286 364.4550848 496.74991131 C364.46647759 497.92779721 364.46647759 497.92779721 364.47810054 499.12947878 C364.43450866 503.64286972 363.90972875 506.56899043 361.083148 510.13701439 C357.57828078 512.47359254 356.18805205 512.38973817 352.04324818 512.39707661 C350.77240254 512.4041422 349.50155689 512.41120779 348.19220078 512.41848749 C346.77386102 512.41623592 345.35552155 512.41378939 343.93718243 512.41116905 C342.43672667 512.41561909 340.93627326 512.42093235 339.43582332 512.42703778 C335.30206356 512.44125629 331.16837883 512.44288034 327.03459811 512.44244087 C322.58050996 512.44408568 318.12645303 512.45714581 313.6723814 512.46863365 C303.92873288 512.49150814 294.18510611 512.49940676 284.44143438 512.5044601 C278.36060574 512.507714 272.27978345 512.51423457 266.1989584 512.52146149 C249.37153928 512.54102989 232.54412607 512.55743293 215.71669483 512.56033802 C214.63934751 512.56052559 213.56200019 512.56071316 212.45200597 512.56090641 C210.26784921 512.56127267 208.08369244 512.56163637 205.89953567 512.56199753 C204.81527911 512.56218034 203.73102254 512.56236315 202.61390972 512.5625515 C201.528334 512.56273205 200.44275828 512.5629126 199.32428633 512.56309862 C181.72591498 512.56664182 164.12766588 512.59367226 146.52933694 512.63104939 C128.4727431 512.6690938 110.41620998 512.68849521 92.35957515 512.68879753 C82.21679514 512.68938294 72.07416098 512.6979288 61.93141842 512.7267952 C53.29632478 512.75125734 44.66143018 512.75862699 36.02631129 512.74354767 C31.61854537 512.73635774 27.21117288 512.73732532 22.80345058 512.75995827 C18.77038498 512.7804695 14.73801725 512.77802242 10.70495985 512.75708342 C9.24399602 512.75357337 7.78298264 512.75856241 6.32208385 512.77278786 C4.33970863 512.79085101 2.35711142 512.77522189 0.37473011 512.75784016 C-1.27860106 512.75906184 -1.27860106 512.75906184 -2.96533287 512.76030821 C-6.90219997 511.92893127 -8.40259326 510.2069385 -10.916852 507.13701439 C-12.16404337 503.39544027 -12.05841251 499.91983964 -12.05107307 496.02279758 C-12.0534253 495.18201191 -12.05577753 494.34122623 -12.05820104 493.4749622 C-12.06490454 490.63282323 -12.06443242 487.79072983 -12.06402302 484.9485836 C-12.06732079 482.9002441 -12.07104617 480.85190525 -12.0751645 478.80356723 C-12.08520225 473.1553458 -12.08890413 467.507135 -12.09155381 461.85890591 C-12.09545153 455.77493786 -12.10503014 449.69097827 -12.11376667 443.60701561 C-12.13260981 429.60081428 -12.1427887 415.59461375 -12.15122735 401.58840341 C-12.15543242 394.66939783 -12.16065457 387.75039312 -12.16591188 380.83138827 C-12.1838017 357.15400532 -12.19879888 333.47662213 -12.20623207 309.79923344 C-12.20670683 308.31257883 -12.20718272 306.82592423 -12.20765973 305.33926963 C-12.20789611 304.60201308 -12.20813249 303.86475654 -12.20837602 303.10515889 C-12.20957724 299.36976502 -12.21079268 295.63437115 -12.21201801 291.89897728 C-12.21225816 291.15767367 -12.21249831 290.41637007 -12.21274574 289.65260272 C-12.22064147 265.60916765 -12.24407912 241.56578187 -12.27657396 217.52236833 C-12.31085472 192.11121479 -12.33058153 166.70009011 -12.33387631 141.28891307 C-12.33429386 138.50058193 -12.33477343 135.7122508 -12.33529949 132.92391968 C-12.33542268 132.23733793 -12.33554588 131.55075618 -12.3356728 130.84336892 C-12.33800689 119.78432782 -12.3536783 108.72534387 -12.37414134 97.66632316 C-12.39437493 86.55523602 -12.39955429 75.44420285 -12.3903707 64.33309682 C-12.385811 58.31114488 -12.38780905 52.28937894 -12.40713215 46.26745224 C-12.4246573 40.75844226 -12.42385312 35.24975544 -12.40823486 29.74074254 C-12.40584254 27.74409952 -12.41026564 25.74743473 -12.42206351 23.75082513 C-12.43707685 21.04307146 -12.42758348 18.33647853 -12.41183662 15.62875462 C-12.42205883 14.84801456 -12.43228104 14.0672745 -12.44281301 13.26287565 C-12.37683304 8.08801795 -11.2070077 5.11488099 -7.916852 1.13701439 C-5.19359672 -0.22461325 -3.05038287 0.0064497 0 0 Z " fill="#EBF3FE" transform="translate(79.91685199737549,-0.13701438903808594)"/>
<path d="M0 0 C0.66 0 1.32 0 2 0 C2.07003977 26.90307522 2.12296351 53.8061368 2.15543652 80.70928478 C2.17091416 93.20050794 2.19202086 105.6916745 2.22631836 118.18286133 C2.2561932 129.06848653 2.27556847 139.95407075 2.28226548 150.83973581 C2.28618097 156.60514004 2.29540165 162.37042699 2.31719017 168.13579369 C2.33752499 173.56036049 2.34383985 178.9847615 2.33932304 184.40936279 C2.34014959 186.40200514 2.34613304 188.39465292 2.35761642 190.38726234 C2.37251345 193.10511525 2.36896377 195.82233986 2.36076355 198.54020691 C2.36950207 199.331069 2.3782406 200.12193109 2.38724393 200.9367587 C2.35019413 205.47106526 1.84552125 208.41733832 -1 212 C-4.50799927 214.33866618 -5.8902323 214.24895537 -10.03824902 214.24609566 C-11.94391763 214.2520688 -11.94391763 214.2520688 -13.88808459 214.25816262 C-15.30593957 214.25245614 -16.72379381 214.24656494 -18.14164734 214.24050903 C-19.64153978 214.24138067 -21.14143192 214.24313088 -22.64132243 214.24568737 C-26.77335441 214.25017313 -30.9052833 214.24214041 -35.03730214 214.23213124 C-39.48923377 214.22351668 -43.94115931 214.22641549 -48.39309692 214.22793579 C-56.10984875 214.22898591 -63.82656683 214.22269608 -71.54331017 214.21146011 C-82.70050374 214.19522522 -93.85768094 214.18999917 -105.01488505 214.18748413 C-123.11548275 214.18310386 -141.21606246 214.16978578 -159.31665039 214.15087891 C-176.90258697 214.13252868 -194.48851867 214.11836798 -212.07446289 214.10986328 C-213.15795411 214.10933783 -214.24144534 214.10881239 -215.35776963 214.10827102 C-220.79317556 214.105661 -226.22858153 214.10313357 -231.66398752 214.10064721 C-276.77600415 214.07990439 -321.88800115 214.04466984 -367 214 C-364.55169045 211.55169045 -363.26734848 211.50031133 -359.890625 210.921875 C-358.83697754 210.73375244 -357.78333008 210.54562988 -356.69775391 210.35180664 C-355.55999512 210.15321045 -354.42223633 209.95461426 -353.25 209.75 C-340.93965367 207.49087089 -329.00536186 204.51024599 -317 201 C-315.40245867 200.54516907 -313.80480494 200.09073274 -312.20703125 199.63671875 C-293.100236 194.1280471 -273.85671294 187.89398395 -255.65234375 179.86328125 C-252.68266968 178.89671576 -251.90833935 179.21734813 -249 180 C-247.58704766 180.10150701 -246.17036954 180.15777363 -244.75390625 180.17700195 C-243.92624756 180.18983719 -243.09858887 180.20267242 -242.24584961 180.21589661 C-240.91759155 180.22697701 -240.91759155 180.22697701 -239.5625 180.23828125 C-238.6454126 180.246353 -237.7283252 180.25442474 -236.78344727 180.26274109 C-234.84686153 180.27655119 -232.91025176 180.28728704 -230.97363281 180.29516602 C-228.01060346 180.31243819 -225.04867338 180.35635793 -222.0859375 180.40039062 C-220.20313319 180.41051312 -218.32031942 180.41903061 -216.4375 180.42578125 C-215.55199463 180.44328934 -214.66648926 180.46079742 -213.75415039 180.47883606 C-208.77259449 180.46373945 -208.77259449 180.46373945 -204.39990234 178.24487305 C-202.76671481 175.62590559 -202.68109654 174.65991924 -203.1640625 171.65625 C-203.70096677 166.22009426 -204.17650561 161.13560962 -202 156 C-196.8004337 150.84390833 -189.73328985 148.05027946 -183.02539062 145.35180664 C-178.88648705 143.50245955 -174.96279776 141.20155431 -171 139 C-170.67 106.33 -170.34 73.66 -170 40 C-169.67 40 -169.34 40 -169 40 C-168.99761165 40.70937147 -168.99522329 41.41874294 -168.99276257 42.14961052 C-168.93368665 59.3915997 -168.85818449 76.63343799 -168.76428509 93.87527275 C-168.71927466 102.21322239 -168.67987226 110.55112881 -168.65356445 118.88916016 C-168.63062669 126.15461319 -168.59727638 133.41993006 -168.55129844 140.6852752 C-168.52730889 144.53403837 -168.50861785 148.38266623 -168.50238609 152.23150253 C-168.49636092 155.85128834 -168.47645543 159.47072763 -168.44572449 163.09038544 C-168.43268408 165.05804929 -168.4345212 167.02579393 -168.4367218 168.99349976 C-168.42418365 170.15740234 -168.41164551 171.32130493 -168.39872742 172.52047729 C-168.39181397 174.0442011 -168.39181397 174.0442011 -168.38476086 175.5987072 C-168.25778977 176.39113382 -168.13081869 177.18356045 -168 178 C-164.94447878 180.03701414 -164.29701295 180.25456598 -160.8515625 180.29052734 C-160.02060059 180.30328705 -159.18963867 180.31604675 -158.33349609 180.32919312 C-157.43969238 180.33141876 -156.54588867 180.33364441 -155.625 180.3359375 C-154.24368896 180.3459227 -154.24368896 180.3459227 -152.83447266 180.35610962 C-150.88771564 180.36623351 -148.94092394 180.37092672 -146.99414062 180.37060547 C-144.01114044 180.37498365 -141.02961382 180.41131926 -138.046875 180.44921875 C-136.15625507 180.45508589 -134.2656281 180.45905597 -132.375 180.4609375 C-131.03429443 180.48249405 -131.03429443 180.48249405 -129.66650391 180.50448608 C-128.42006104 180.4952562 -128.42006104 180.4952562 -127.1484375 180.48583984 C-126.41802246 180.48868988 -125.68760742 180.49153992 -124.93505859 180.49447632 C-122.86039592 180.12739731 -122.86039592 180.12739731 -121.24989319 178.38673401 C-119.57539859 175.18920223 -119.72316266 172.92779237 -119.85327148 169.32641602 C-119.8920716 167.95349937 -119.93075744 166.58057949 -119.96934509 165.20765686 C-119.99523146 164.48266558 -120.02111782 163.75767429 -120.04778862 163.01071358 C-120.17346501 159.14157935 -120.20827147 155.27109371 -120.25976562 151.40039062 C-120.33098149 146.48707276 -120.42781866 141.5784192 -120.62036133 136.66821289 C-121.61857977 110.15362706 -121.61857977 110.15362706 -117.29330444 103.29281616 C-113.23175259 99.08216276 -108.61403964 96.52403147 -103.31632996 94.15592957 C-99.43493346 92.21897712 -96.24266454 89.46535314 -92.9375 86.6875 C-87.14553049 82 -87.14553049 82 -86 82 C-85.99120064 83.7752581 -85.99120064 83.7752581 -85.98222351 85.58638 C-85.9250749 96.72570205 -85.85235469 107.86482739 -85.76428509 119.00394917 C-85.71950799 124.73105279 -85.6802681 130.45808406 -85.65356445 136.18530273 C-85.62760467 141.70971053 -85.58725444 147.23384099 -85.53681374 152.75807762 C-85.52009535 154.86841578 -85.50861215 156.97880196 -85.50238609 159.08919716 C-85.492799 162.03933595 -85.46480467 164.98875718 -85.43237305 167.9387207 C-85.43452568 169.2550222 -85.43452568 169.2550222 -85.4367218 170.59791565 C-85.51459565 174.97225023 -85.51459565 174.97225023 -83.5960207 178.72498989 C-81.55681214 180.35404867 -80.44139797 180.36937164 -77.8515625 180.35644531 C-77.02060059 180.35944641 -76.18963867 180.36244751 -75.33349609 180.36553955 C-73.99279053 180.34701935 -73.99279053 180.34701935 -72.625 180.328125 C-71.70412598 180.32625183 -70.78325195 180.32437866 -69.83447266 180.32244873 C-67.88765848 180.31572676 -65.94085784 180.30180939 -63.99414062 180.28125 C-61.01159127 180.25012098 -58.02957064 180.24028133 -55.046875 180.234375 C-53.15624355 180.22520379 -51.26561748 180.21482764 -49.375 180.203125 C-48.48119629 180.19887512 -47.58739258 180.19462524 -46.66650391 180.19024658 C-45.83554199 180.18063904 -45.00458008 180.17103149 -44.1484375 180.16113281 C-43.41802246 180.15430481 -42.68760742 180.14747681 -41.93505859 180.14044189 C-39.78110077 180.0641034 -39.78110077 180.0641034 -37 179 C-37.02821933 177.94593554 -37.02821933 177.94593554 -37.05700874 176.87057686 C-37.50893542 159.64590381 -37.81187544 142.42476115 -37.95596504 125.19476509 C-38.02912357 116.86117863 -38.15043794 108.53375576 -38.38867188 100.203125 C-40.08324598 39.4817925 -40.08324598 39.4817925 -28.62868309 25.9894619 C-23.98506471 21.13206337 -18.69783921 17.38618841 -12.96917725 13.91986084 C-8.04666974 10.73698269 -4.76122069 6.52874687 -1.44650269 1.76950073 C-0.9691568 1.18556549 -0.49181091 0.60163025 0 0 Z " fill="#CBE1FE" transform="translate(442,298)"/>
<path d="M0 0 C0.80441025 -0.01260864 1.6088205 -0.02521729 2.43760681 -0.03820801 C3.29810135 -0.03011108 4.15859589 -0.02201416 5.04516602 -0.01367188 C6.38394554 -0.01941223 6.38394554 -0.01941223 7.74977112 -0.02526855 C9.63511281 -0.02798734 11.52049223 -0.02062847 13.40576172 -0.00390625 C16.28577204 0.01747936 19.16328072 -0.00369529 22.04321289 -0.02929688 C23.87720276 -0.0266531 25.71119107 -0.02152709 27.54516602 -0.01367188 C28.40363632 -0.0217688 29.26210663 -0.02986572 30.14659119 -0.03820801 C30.95415359 -0.02559937 31.761716 -0.01299072 32.59375 0 C33.65153908 0.00477356 33.65153908 0.00477356 34.73069763 0.00964355 C37.95171786 0.7774351 39.53505237 2.17399497 41.86157227 4.51757812 C42.48798466 7.8097229 42.48798466 7.8097229 42.48976135 11.80517578 C42.49685574 12.54081064 42.50395013 13.2764455 42.5112595 14.03437233 C42.52886926 16.5006591 42.51072119 18.965376 42.49267578 21.43164062 C42.4978135 23.19912434 42.50509366 24.96660293 42.51435852 26.73406982 C42.53289961 31.53579363 42.51991694 36.33696338 42.50026822 41.13866425 C42.48390273 46.16032068 42.49269169 51.18194143 42.49778748 56.20361328 C42.50231078 64.63713448 42.48642388 73.07043405 42.45849609 81.50390625 C42.42644314 91.25836926 42.42645916 101.01243251 42.44371086 110.7669239 C42.4595669 120.145021 42.45284834 129.52297134 42.43577385 138.90106201 C42.4288958 142.89463195 42.42994354 146.88808452 42.4373188 150.88165283 C42.44497203 155.58330007 42.43288709 160.28449161 42.40546989 164.9860611 C42.39857485 166.71303199 42.39850006 168.44004536 42.40568542 170.16701508 C42.41435515 172.52184784 42.3984681 174.87526618 42.37623596 177.22998047 C42.37342904 178.54847992 42.37062212 179.86697937 42.36773014 181.22543335 C41.78106586 185.04120675 40.90741495 186.22684748 37.86157227 188.51757812 C35.81298828 189.0255127 35.81298828 189.0255127 33.61547852 189.03515625 C32.78781982 189.04776489 31.96016113 189.06037354 31.10742188 189.07336426 C30.2219165 189.06526733 29.33641113 189.05717041 28.42407227 189.04882812 C27.50698486 189.05265503 26.58989746 189.05648193 25.64501953 189.0604248 C23.70840353 189.06314361 21.77175079 189.05578458 19.83520508 189.0390625 C16.87180673 189.01765207 13.91083275 189.03886482 10.94750977 189.06445312 C9.06469192 189.06180984 7.18187558 189.05668485 5.29907227 189.04882812 C4.41356689 189.05692505 3.52806152 189.06502197 2.61572266 189.07336426 C1.37423462 189.05445129 1.37423462 189.05445129 0.10766602 189.03515625 C-0.61751221 189.03197388 -1.34269043 189.0287915 -2.08984375 189.0255127 C-5.1232298 188.27340214 -6.21501469 186.96639297 -8.13842773 184.51757812 C-8.6417923 181.22543335 -8.6417923 181.22543335 -8.6463623 177.22998047 C-8.65260227 176.49434561 -8.65884223 175.75871075 -8.66527128 175.00078392 C-8.68123187 172.53470221 -8.66858574 170.06960474 -8.65600586 167.60351562 C-8.66142564 165.83603335 -8.66854749 164.0685556 -8.67724609 162.30108643 C-8.69549956 157.49944254 -8.68840359 152.69814198 -8.67572975 147.896492 C-8.66561256 142.87483281 -8.67499186 137.8532033 -8.68127441 132.83154297 C-8.68855455 124.39805821 -8.67895349 115.9647135 -8.65991211 107.53125 C-8.63814268 97.77679661 -8.64519379 88.02267763 -8.66721773 78.26823235 C-8.68536128 69.89785331 -8.68793517 61.52757503 -8.67746305 53.15718269 C-8.67122237 48.1559005 -8.67040828 43.15477555 -8.68360901 38.15350342 C-8.69515168 33.45187452 -8.68717083 28.75067735 -8.66403198 24.04909515 C-8.65873641 22.32211779 -8.66027315 20.59510419 -8.66908264 18.86814117 C-8.6799887 16.51332652 -8.66633607 14.1599015 -8.6463623 11.80517578 C-8.6448542 10.48667633 -8.6433461 9.16817688 -8.6417923 7.8097229 C-7.85533353 2.66606299 -5.23787732 0.02366404 0 0 Z " fill="#B7E445" transform="translate(364.138427734375,290.482421875)"/>
<path d="M0 0 C12.59742531 8.57895878 19.59760038 19.33203069 24.25390625 33.7109375 C26.87416742 48.10886741 23.22780855 62.51134493 15.6328125 74.79296875 C7.61958372 85.71157872 -4.21176529 94.02732358 -17.71484375 96.375 C-34.46605618 98.29198367 -47.27605776 95.09307407 -60.7421875 85.015625 C-70.4259718 77.0166883 -77.44218368 65.29649821 -79.3671875 52.79296875 C-80.02008072 42.42159935 -79.71345179 33.42909418 -75.3671875 23.79296875 C-75.0165625 23.00664062 -74.6659375 22.2203125 -74.3046875 21.41015625 C-67.62340987 8.09399875 -56.2449788 -0.29452384 -42.55859375 -5.48046875 C-28.72535516 -10.0668901 -12.36831629 -7.30199431 0 0 Z " fill="#E49542" transform="translate(181.3671875,108.20703125)"/>
<path d="M0 0 C0.84775497 -0.01268417 1.69550995 -0.02536835 2.56895447 -0.03843689 C3.4814949 -0.03550125 4.39403534 -0.03256561 5.33422852 -0.02954102 C6.74527611 -0.03740379 6.74527611 -0.03740379 8.18482971 -0.04542542 C10.1744793 -0.05184933 12.16416684 -0.05050385 14.15380859 -0.04199219 C17.19836103 -0.03348853 20.24103371 -0.06222812 23.28540039 -0.09399414 C25.21834254 -0.09560639 27.15128801 -0.09502818 29.08422852 -0.09204102 C29.99474472 -0.10327499 30.90526093 -0.11450897 31.84336853 -0.12608337 C32.69427567 -0.11670242 33.5451828 -0.10732147 34.421875 -0.09765625 C35.54081398 -0.097407 35.54081398 -0.097407 36.68235779 -0.09715271 C39.69501575 0.62418545 40.82903287 2.02655292 42.77563477 4.40405273 C43.27899933 7.02185726 43.27899933 7.02185726 43.28356934 10.05247498 C43.29484863 11.20348694 43.30612793 12.3544989 43.31774902 13.54039001 C43.3096521 14.79920486 43.30155518 16.05801971 43.29321289 17.35498047 C43.29863446 18.69720214 43.30575732 20.03941786 43.31445312 21.38162231 C43.33268755 25.02431541 43.32561835 28.66655531 43.31293678 32.30925632 C43.30280749 36.12261089 43.31220245 39.93592674 43.31848145 43.74928284 C43.32575897 50.15421512 43.31616844 56.55896292 43.29711914 62.96386719 C43.27535932 70.36552683 43.28239459 77.76674559 43.30442476 85.16839451 C43.32258697 91.52522693 43.32513284 97.88192675 43.31467009 104.23877674 C43.30843841 108.034532 43.30759018 111.83008017 43.32081604 115.62582207 C43.33238572 119.1956542 43.32432927 122.76491913 43.30123901 126.33469009 C43.29344108 128.26718113 43.30529903 130.19972023 43.31774902 132.13218689 C43.30646973 133.28601868 43.29519043 134.43985046 43.28356934 135.62864685 C43.28206123 136.62912772 43.28055313 137.62960859 43.27899933 138.66040707 C42.63653272 142.16224422 41.22033472 143.86420487 38.77563477 146.40405273 C36.72705078 147.0255127 36.72705078 147.0255127 34.52954102 147.01928711 C33.70188232 147.02859253 32.87422363 147.03789795 32.02148438 147.04748535 C30.69322632 147.02289246 30.69322632 147.02289246 29.33813477 146.99780273 C28.42104736 146.99784302 27.50395996 146.9978833 26.55908203 146.9979248 C24.62240741 146.99256941 22.68573335 146.97498579 20.74926758 146.94604492 C17.78602642 146.90419948 14.82505897 146.90497569 11.86157227 146.91186523 C9.97874398 146.90137215 8.09592741 146.8884334 6.21313477 146.87280273 C5.32762939 146.87260132 4.44212402 146.8723999 3.52978516 146.87219238 C2.70212646 146.85628052 1.87446777 146.84036865 1.02172852 146.82397461 C-0.06603882 146.81134583 -0.06603882 146.81134583 -1.17578125 146.79846191 C-3.93049563 146.26810307 -5.20095012 145.34829813 -7.22436523 143.40405273 C-7.72493649 140.8568573 -7.72493649 140.8568573 -7.72557068 137.74853516 C-7.73540482 136.57076508 -7.74523895 135.392995 -7.75537109 134.17953491 C-7.74570312 132.88593048 -7.73603516 131.59232605 -7.72607422 130.25952148 C-7.72985686 128.8846481 -7.73535644 127.50977852 -7.7424469 126.13491821 C-7.75642636 122.39931479 -7.74521469 118.66417067 -7.72873569 114.92859268 C-7.71490113 111.02221552 -7.72134344 107.11586546 -7.72486877 103.20947266 C-7.72757217 96.64893172 -7.71408429 90.08857361 -7.69091797 83.52807617 C-7.66430731 75.9395722 -7.66256059 68.35137395 -7.67430633 60.76283932 C-7.68507976 53.46763631 -7.6789005 46.17254406 -7.66475105 38.87734985 C-7.65898744 35.77053209 -7.65907685 32.66379528 -7.66381645 29.55697632 C-7.6685834 25.89941704 -7.65849673 22.24219318 -7.6368618 18.58469772 C-7.62862845 16.59933832 -7.6351504 14.61393501 -7.64205933 12.62857056 C-7.63215469 11.45080048 -7.62225006 10.2730304 -7.61204529 9.05957031 C-7.60961539 8.03382401 -7.6071855 7.0080777 -7.60468197 5.95124817 C-7.22436523 3.40405273 -7.22436523 3.40405273 -5.82302856 1.57481289 C-3.76851246 0.07021493 -2.53414276 0.0183744 0 0 Z " fill="#DD5890" transform="translate(280.224365234375,332.595947265625)"/>
<path d="M0 0 C1.4805934 -0.0032221 2.96118308 -0.00904357 4.4417572 -0.01725769 C8.44812573 -0.03175296 12.45348592 -0.00890314 16.45973253 0.02160144 C20.65741797 0.04802213 24.85507428 0.04266912 29.05282593 0.04151917 C36.09902751 0.04432524 43.14484054 0.07032679 50.19091797 0.11132812 C58.33387758 0.15853754 66.47641227 0.17432097 74.61949885 0.17212147 C83.29678151 0.17009433 91.9739007 0.19091798 100.65113401 0.21846128 C103.14878302 0.22485065 105.64640561 0.22698416 108.14406204 0.22817802 C112.06927821 0.23119434 115.9941385 0.24953229 119.91923714 0.27967644 C121.35874693 0.28842867 122.79829768 0.29213213 124.23783302 0.29039383 C126.20413635 0.28891808 128.17042352 0.30777013 130.1366272 0.32762146 C131.23645243 0.33264899 132.33627766 0.33767653 133.46943092 0.34285641 C137.52523823 0.87271352 140.04196814 2.6509385 143.20874023 5.12182617 C145.73277194 8.46115817 144.89068362 13.0884151 144.86083984 17.10375977 C144.88082031 18.04993164 144.90080078 18.99610352 144.92138672 19.97094727 C144.91835546 24.2874592 144.85649522 26.98811167 142.64599609 30.76782227 C138.58047674 34.35462493 135.65749079 34.98009608 130.25015259 35.00291443 C128.98278763 35.01288956 127.71542267 35.02286469 126.40965271 35.03314209 C125.00747693 35.03403785 123.60530099 35.03470144 122.203125 35.03515625 C120.72460003 35.04277879 119.24607903 35.05120646 117.76756287 35.06037903 C113.75305443 35.08232072 109.73862216 35.09112239 105.72406054 35.09620547 C103.2153575 35.09984922 100.70667441 35.10608936 98.19797897 35.11320686 C89.44431431 35.13769954 80.6907089 35.15075301 71.93701172 35.15429688 C63.77986929 35.15793274 55.62310299 35.18783205 47.46607554 35.22970146 C40.46042581 35.26439918 33.45490078 35.27984522 26.4491657 35.28054291 C22.26596761 35.28133586 18.08315273 35.2900826 13.90004349 35.31854057 C9.96495449 35.34471292 6.03056667 35.34693168 2.09543037 35.33088493 C0.65308033 35.32906978 -0.78930996 35.3357674 -2.2315731 35.35170364 C-14.48390709 35.47880789 -14.48390709 35.47880789 -18.4190979 32.31629944 C-22.36916304 27.57903162 -21.93187234 23.45527887 -22.07666016 17.47875977 C-22.13080078 16.53645508 -22.18494141 15.59415039 -22.24072266 14.62329102 C-22.25876953 13.70418945 -22.27681641 12.78508789 -22.29541016 11.83813477 C-22.34084961 10.58468262 -22.34084961 10.58468262 -22.38720703 9.3059082 C-19.18018776 -0.89086752 -8.90957547 -0.11252232 0 0 Z " fill="#4375C9" transform="translate(194.57666015625,32.271240234375)"/>
<path d="M0 0 C0.80756241 -0.01253311 1.61512482 -0.02506622 2.44715881 -0.03797913 C3.30562912 -0.02472092 4.16409943 -0.01146271 5.04858398 0.00219727 C6.3887986 -0.00142067 6.3887986 -0.00142067 7.75608826 -0.00511169 C9.63968355 -0.0041346 11.52330804 0.00922613 13.40673828 0.03417969 C16.28899594 0.06853579 19.16819437 0.05482087 22.05053711 0.03540039 C23.88323244 0.04229786 25.71591987 0.05196935 27.54858398 0.06469727 C28.40907852 0.0597374 29.26957306 0.05477753 30.15614319 0.04966736 C30.96055344 0.06550369 31.76496368 0.08134003 32.59375 0.09765625 C33.29814713 0.10385483 34.00254425 0.11005341 34.72828674 0.11643982 C37.76604593 0.89663414 38.89189672 2.1059 40.73217773 4.63110352 C41.12715622 7.26259667 41.28012707 9.47686403 41.24975586 12.10595703 C41.25676514 12.85274719 41.26377441 13.59953735 41.27099609 14.36895752 C41.28857611 16.8330218 41.27695539 19.29593419 41.26342773 21.76000977 C41.26612238 23.47346721 41.27000458 25.18692316 41.27502441 26.90037537 C41.2809192 30.48907041 41.27235632 34.07736693 41.25366211 37.66601562 C41.23085505 42.26876514 41.2440064 46.87058263 41.26795197 51.47329807 C41.28239597 55.01034081 41.27781075 58.54716199 41.2674408 62.08421135 C41.26477052 63.7815048 41.26805385 65.47881829 41.27735901 67.17608833 C41.28750395 69.54648378 41.27205535 71.91536229 41.24975586 74.28564453 C41.25785278 74.98858139 41.26594971 75.69151825 41.27429199 76.41575623 C41.21977537 79.53921783 41.1119837 81.21564236 38.96520996 83.56394958 C36.59566028 84.69634446 35.097474 85.02070762 32.48608398 85.05102539 C31.24459595 85.07489319 31.24459595 85.07489319 29.97802734 85.09924316 C29.09252197 85.09944458 28.2070166 85.099646 27.29467773 85.09985352 C26.37759033 85.10746704 25.46050293 85.11508057 24.515625 85.1229248 C22.57904785 85.13371744 20.64241254 85.13658231 18.70581055 85.13208008 C15.74226055 85.13110683 12.78129204 85.17275574 9.81811523 85.21704102 C7.93530813 85.22224745 6.05249203 85.22493622 4.16967773 85.22485352 C3.28417236 85.24124878 2.39866699 85.25764404 1.48632812 85.27453613 C0.65866943 85.26523071 -0.16898926 85.25592529 -1.02172852 85.24633789 C-1.74690674 85.24839233 -2.47208496 85.25044678 -3.21923828 85.25256348 C-6.49021826 84.26027656 -7.52448828 82.50710431 -9.26782227 79.63110352 C-9.78248596 76.25415039 -9.78248596 76.25415039 -9.80126953 72.34985352 C-9.81419289 71.27815918 -9.81419289 71.27815918 -9.82737732 70.18481445 C-9.85000109 67.83320447 -9.84330634 65.48278957 -9.83422852 63.13110352 C-9.83946544 61.49112597 -9.84574217 59.85115144 -9.85301208 58.21118164 C-9.86340936 54.7780945 -9.85886432 51.34542204 -9.84423828 47.91235352 C-9.8270437 43.51705337 -9.85055625 39.12305967 -9.88572788 34.72790527 C-9.9077073 31.34260427 -9.90625933 27.9576157 -9.89796257 24.57226562 C-9.89714348 22.95197109 -9.90399889 21.33165352 -9.9187336 19.71142578 C-9.93619296 17.4442554 -9.92163042 15.17943033 -9.89892578 12.91235352 C-9.89796402 11.62393555 -9.89700226 10.33551758 -9.89601135 9.00805664 C-8.89323114 3.61741573 -5.66721364 0.0077291 0 0 Z " fill="#E49644" transform="translate(198.267822265625,394.368896484375)"/>
<path d="M0 0 C0.80441025 -0.01260864 1.6088205 -0.02521729 2.43760681 -0.03820801 C3.29810135 -0.03011108 4.15859589 -0.02201416 5.04516602 -0.01367188 C6.38394554 -0.01941223 6.38394554 -0.01941223 7.74977112 -0.02526855 C9.63511281 -0.02798734 11.52049223 -0.02062847 13.40576172 -0.00390625 C16.28577204 0.01747936 19.16328072 -0.00369529 22.04321289 -0.02929688 C23.87720276 -0.0266531 25.71119107 -0.02152709 27.54516602 -0.01367188 C28.40363632 -0.0217688 29.26210663 -0.02986572 30.14659119 -0.03820801 C33.93922156 0.02100713 36.43716065 0.31445612 39.89575195 1.96972656 C42.82701374 5.76886317 42.63491488 9.12826092 42.63110352 13.81445312 C42.64300217 14.72205383 42.65490082 15.62965454 42.66716003 16.5647583 C42.6836947 18.48451079 42.68706301 20.40441541 42.67822266 22.32421875 C42.67410342 25.24548241 42.73903645 28.15976333 42.80883789 31.08007812 C42.94141984 44.62041046 42.94141984 44.62041046 40.15942383 49.50805664 C38.15950046 51.52351024 36.24817164 52.99615918 33.86157227 54.51757812 C32.55484169 55.64620206 31.26104567 56.79015137 29.98657227 57.95507812 C28.99463867 58.80779297 28.99463867 58.80779297 27.98266602 59.67773438 C25.63666168 61.71266631 23.34420776 63.80048779 21.04907227 65.89257812 C16.72592682 69.79330936 12.27950461 73.50536426 7.75219727 77.16601562 C5.66443044 78.86444215 3.59288293 80.5745719 1.53344727 82.30664062 C0.98350098 82.7688501 0.43355469 83.23105957 -0.13305664 83.70727539 C-1.69076023 85.01889074 -3.2466697 86.33263593 -4.80249023 87.64648438 C-7.13842773 89.51757812 -7.13842773 89.51757812 -8.13842773 89.51757812 C-8.23106615 78.50410975 -8.30216151 67.4907339 -8.34567642 56.47695541 C-8.36656038 51.36291503 -8.3948929 46.24914099 -8.44018555 41.13525391 C-8.48361429 36.20099516 -8.50755875 31.26699278 -8.51793671 26.33255768 C-8.52533341 24.44904799 -8.53977734 22.56555249 -8.56134796 20.68215179 C-8.59034266 18.04592965 -8.59438542 15.41076974 -8.5925293 12.77441406 C-8.6069104 11.99398239 -8.6212915 11.21355072 -8.6361084 10.4094696 C-8.60963276 6.93934317 -8.40705199 4.89457529 -6.36869812 2.03387451 C-3.96837275 0.40196265 -2.86271766 0.01293338 0 0 Z " fill="#C8EA73" transform="translate(364.138427734375,290.482421875)"/>
<path d="M0 0 C0.06946382 9.20540004 0.12279271 18.41071008 0.15543652 27.61631489 C0.17110272 31.89070699 0.1923582 36.16491998 0.22631836 40.43920898 C0.25887809 44.56297253 0.27684582 48.68656363 0.28463173 52.81044579 C0.29018136 54.38495792 0.30101831 55.95946045 0.31719017 57.53389931 C0.33892005 59.73675672 0.34196888 61.93889862 0.34057617 64.1418457 C0.34723801 65.39649124 0.35389984 66.65113678 0.36076355 67.94380188 C0 71 0 71 -1.26300049 72.90437317 C-3.38340995 74.241839 -4.63303362 74.37998199 -7.13256836 74.38818359 C-8.37416969 74.40236832 -8.37416969 74.40236832 -9.64085388 74.4168396 C-10.97685387 74.40773056 -10.97685387 74.40773056 -12.33984375 74.3984375 C-13.71759727 74.40274277 -13.71759727 74.40274277 -15.1231842 74.40713501 C-17.06577165 74.40917651 -19.00837961 74.40364067 -20.95092773 74.39111328 C-23.92283212 74.37507914 -26.89337272 74.39094959 -29.86523438 74.41015625 C-31.75260717 74.40817347 -33.63997911 74.40432909 -35.52734375 74.3984375 C-36.41598618 74.40451019 -37.3046286 74.41058289 -38.22019958 74.4168396 C-41.61546521 74.37819741 -44.34240468 74.25876471 -47.51708984 73.00952148 C-49.88607838 69.7992573 -49.9505548 66.30824202 -50.19921875 62.44921875 C-50.28628334 61.17933861 -50.28628334 61.17933861 -50.37510681 59.88380432 C-51.75241216 35.24609512 -51.75241216 35.24609512 -47.01513672 27.93798828 C-41.80037158 23.22256294 -35.5923537 20.73593444 -29.07910156 18.27587891 C-24.28284169 16.2884658 -20.22066397 13.4243205 -16 10.4375 C-14.60543726 9.49681153 -13.20967369 8.55789988 -11.8125 7.62109375 C-9.19876904 5.84075516 -6.6242351 4.0144203 -4.0625 2.16015625 C-1 0 -1 0 0 0 Z " fill="#D9387D" transform="translate(322,405)"/>
<path d="M0 0 C0.64932355 -0.00779995 1.29864711 -0.01559991 1.96764714 -0.02363622 C4.13600203 -0.04352591 6.30259571 -0.02780634 8.47096252 -0.01205444 C10.02845787 -0.01883209 11.58594519 -0.02773605 13.14341736 -0.03860474 C17.36879605 -0.0613895 21.59356398 -0.05256492 25.81895328 -0.03670931 C30.24309854 -0.02404369 34.66719178 -0.03579247 39.09133911 -0.04364014 C46.52184936 -0.05273574 53.9521111 -0.0407522 61.38258362 -0.01693726 C69.96865408 0.01026395 78.5541307 0.001467 87.14018673 -0.02606928 C94.51531883 -0.04877391 101.89027236 -0.05195355 109.26542813 -0.03887594 C113.6687649 -0.03108754 118.07182276 -0.03002268 122.47514153 -0.04655838 C126.6163226 -0.06102336 130.75673986 -0.05094511 134.89783859 -0.0220871 C136.41595124 -0.01548657 137.93412837 -0.01735638 139.45221519 -0.02840042 C152.34351654 -0.11352324 152.34351654 -0.11352324 156.3409729 2.95269775 C158.40284729 5.63491821 158.40284729 5.63491821 158.59034729 9.19741821 C157.17955828 13.28128113 156.00181656 14.3293376 152.40284729 16.63491821 C149.33403015 17.13828278 149.33403015 17.13828278 145.83692932 17.14285278 C145.19098375 17.14909275 144.54503819 17.15533271 143.87951851 17.16176176 C141.72285696 17.17767089 139.56732899 17.16509713 137.41065979 17.15249634 C135.86139773 17.15791844 134.31214083 17.1650416 132.76289368 17.17373657 C128.56037998 17.19196261 124.35825934 17.18490551 120.15573883 17.17222023 C115.75648952 17.16208879 111.35727372 17.17148631 106.95802307 17.17776489 C99.57042909 17.18504088 92.1829951 17.17545489 84.79542542 17.15640259 C76.25598644 17.13463388 67.71692949 17.14168529 59.17749977 17.16370821 C51.84401493 17.18186362 44.51064506 17.18441986 37.177145 17.17395353 C32.79790867 17.16771936 28.41885186 17.16688083 24.03962708 17.18009949 C19.92235188 17.19165947 15.80556891 17.18362991 11.68834686 17.16052246 C10.17787239 17.15523611 8.66735644 17.15674795 7.1568985 17.16557312 C5.09362941 17.17651622 3.03193422 17.16278341 0.96876526 17.14285278 C-0.18527802 17.14134468 -1.33932129 17.13983658 -2.52833557 17.13828278 C-6.28599417 16.52193058 -7.93858094 15.32199064 -10.59715271 12.63491821 C-11.72215271 9.19741821 -11.72215271 9.19741821 -11.59715271 5.63491821 C-8.04042318 1.08103807 -5.71529669 0.00928704 0 0 Z " fill="#9FC7FB" transform="translate(259.59715270996094,92.36508178710938)"/>
<path d="M0 0 C0.65325825 -0.0060911 1.3065165 -0.01218221 1.97957045 -0.01845789 C4.16677898 -0.03509639 6.35340587 -0.03031115 8.54066467 -0.0255127 C10.10948288 -0.03285255 11.67829568 -0.04143853 13.24710083 -0.05117798 C17.50744215 -0.07341112 21.76759015 -0.07632379 26.02798152 -0.07443047 C29.58423317 -0.07431085 33.14044372 -0.08287118 36.69668394 -0.09120798 C45.0861116 -0.11044835 53.47543975 -0.11332349 61.86488342 -0.10656738 C70.52078953 -0.099925 79.17626967 -0.12279725 87.83208936 -0.15988111 C95.26320954 -0.1905633 102.69419259 -0.20193979 110.12537485 -0.1980443 C114.56393768 -0.19597534 119.00216904 -0.20147851 123.44067192 -0.22593689 C127.61461571 -0.24817737 131.7878662 -0.24634924 135.96181297 -0.22600937 C137.49326362 -0.22259453 139.02476069 -0.22770892 140.55614853 -0.24199295 C142.64818708 -0.26015938 144.73786691 -0.24746134 146.82983398 -0.22705078 C148.58497015 -0.22811954 148.58497015 -0.22811954 150.37556362 -0.2292099 C154.44294609 0.58826476 155.96237871 2.15629212 158.47840881 5.39440918 C158.54090881 9.01940918 158.54090881 9.01940918 157.47840881 12.39440918 C155.16010948 14.75508914 153.78799645 15.35481328 150.48299408 15.77751923 C149.30460716 15.78124794 148.12622025 15.78497665 146.91212463 15.78881836 C146.25407727 15.79490946 145.5960299 15.80100057 144.91804171 15.80727625 C142.71468098 15.82391558 140.51189757 15.81912941 138.30848694 15.81433105 C136.72819416 15.82167079 135.14790676 15.83025674 133.56762695 15.83999634 C129.27636238 15.86222893 124.98528971 15.86514224 120.69397545 15.86324883 C117.11277638 15.86312923 113.53161812 15.87168878 109.95043039 15.88002634 C101.50351144 15.89926592 93.05669133 15.90214189 84.60975647 15.89538574 C75.8913477 15.88874096 67.17336158 15.91162547 58.45503855 15.94869947 C50.97212992 15.97936709 43.48935747 15.99075981 36.00638723 15.98686266 C31.53599921 15.98479246 27.06594018 15.99031608 22.59561157 16.01475525 C18.39294513 16.03697216 14.19096764 16.03518737 9.98829842 16.01482773 C8.44513988 16.01140888 6.90193541 16.01654444 5.35883904 16.03081131 C3.25331478 16.04893658 1.15014482 16.03631046 -0.95530701 16.01586914 C-2.13369392 16.01658165 -3.31208084 16.01729416 -4.52617645 16.01802826 C-7.52159119 15.39440918 -7.52159119 15.39440918 -9.93198395 13.08213043 C-11.52159119 10.39440918 -11.52159119 10.39440918 -11.52159119 6.76940918 C-9.66566992 0.5056749 -6.11766176 0.01950136 0 0 Z " fill="#9DC6FB" transform="translate(259.52159118652344,127.6055908203125)"/>
<path d="M0 0 C0.99191474 -0.00913666 0.99191474 -0.00913666 2.00386816 -0.01845789 C4.22415229 -0.03513377 6.44386579 -0.03030582 8.66419983 -0.0255127 C10.25419716 -0.03285039 11.84418916 -0.04143575 13.43417358 -0.05117798 C17.75648771 -0.07343418 22.07861143 -0.07632263 26.40097499 -0.07443047 C30.00697708 -0.07431096 33.61293854 -0.08286711 37.21892935 -0.09120798 C45.72480216 -0.11045677 54.23057683 -0.11332048 62.73646545 -0.10656738 C71.51676832 -0.0999248 80.29665127 -0.12279614 89.07686895 -0.15988111 C96.61071225 -0.19054935 104.14442027 -0.2019413 111.67832476 -0.1980443 C116.18002591 -0.19597384 120.68140036 -0.20150151 125.18304253 -0.22593689 C129.41606278 -0.24815429 133.64839903 -0.24636855 137.88142204 -0.22600937 C139.43586759 -0.22259039 140.99035874 -0.2277266 142.54474258 -0.24199295 C144.6656413 -0.26011718 146.78420252 -0.2474926 148.9050293 -0.22705078 C150.09208938 -0.22776329 151.27914946 -0.2284758 152.50218105 -0.2292099 C155.51600647 0.39440918 155.51600647 0.39440918 157.89403629 2.77700043 C159.74611924 5.76574718 160.28793431 6.96361879 159.51600647 10.39440918 C156.95870385 13.55064793 155.45208215 15.20441747 151.41595459 16.02361488 C150.24716263 16.02550001 149.07837067 16.02738514 147.87416077 16.02932739 C147.22004809 16.03712735 146.56593542 16.0449273 145.89200115 16.05296361 C143.70749715 16.07285458 141.52474107 16.05713321 139.34022522 16.04138184 C137.77125534 16.04815935 136.20229343 16.05706325 134.63334656 16.06793213 C130.37704572 16.09071649 126.12135119 16.08189297 121.86503983 16.0660367 C117.40973025 16.05337313 112.9544724 16.06511908 108.49916077 16.07296753 C101.01737655 16.08206278 93.53583915 16.07007952 86.05409241 16.04626465 C77.4055195 16.01905351 68.75753594 16.02786777 60.10897732 16.05539668 C52.68205694 16.07809036 45.25531394 16.08128659 37.82837009 16.06820333 C33.39320783 16.06041021 28.95832254 16.05936329 24.5231781 16.07588577 C20.35327457 16.09033518 16.18413046 16.08030093 12.01430893 16.05141449 C10.48448828 16.04480608 8.95460366 16.04669728 7.4248085 16.05772781 C5.33496206 16.0714067 3.24754405 16.05424588 1.15785217 16.02932739 C-0.01093979 16.02744226 -1.17973175 16.02555714 -2.38394165 16.02361488 C-6.44625804 15.19910202 -7.97190667 13.63184307 -10.48399353 10.39440918 C-10.48399353 6.93605006 -10.30873062 4.59617447 -8.32674313 1.70812225 C-5.57702682 -0.2521757 -3.35225593 0.01053323 0 0 Z " fill="#9DC6FB" transform="translate(258.48399353027344,162.6055908203125)"/>
<path d="M0 0 C1.42118726 -0.00514059 2.84236815 -0.01242292 4.26353455 -0.02168274 C8.11699751 -0.04018781 11.96976804 -0.02726445 15.82320213 -0.00759244 C19.85809499 0.00880308 23.8929443 -0.00002008 27.92785645 -0.00511169 C34.70348155 -0.00963166 41.4788305 0.006231 48.25439453 0.03417969 C56.08494684 0.06623133 63.91500111 0.06621565 71.74558878 0.04896492 C79.28215173 0.03309431 86.8185323 0.03983677 94.35508728 0.05690193 C97.56075401 0.06376979 100.76627443 0.06274276 103.97193909 0.05535698 C107.74781054 0.04768874 111.52311608 0.05983706 115.29889107 0.08720589 C116.6835773 0.09408528 118.06831643 0.09419239 119.45300102 0.08699036 C121.34493418 0.07828482 123.23693394 0.09670319 125.12878418 0.11643982 C126.71604939 0.1206502 126.71604939 0.1206502 128.33538055 0.12494564 C131.94035736 0.76165892 133.6132914 2.08517897 136.20117188 4.63110352 C137.26367188 7.56860352 137.26367188 7.56860352 137.20117188 10.63110352 C135.43077738 13.37826738 134.13825344 15.16256273 131.20117188 16.63110352 C129.29946771 16.73546779 127.39408719 16.77500061 125.48954773 16.78500366 C124.27397186 16.79360413 123.058396 16.80220459 121.8059845 16.81106567 C120.45163007 16.81550101 119.09727518 16.81979936 117.74291992 16.82397461 C116.3221822 16.83187481 114.90144648 16.84014371 113.48071289 16.84875488 C108.80812499 16.87498355 104.13552808 16.89028289 99.46289062 16.90454102 C97.85516669 16.90990026 96.24744282 16.91527777 94.63971901 16.92067337 C87.95282487 16.94230293 81.26593315 16.96104026 74.57901287 16.97229576 C64.99142293 16.98853916 55.40423801 17.02172513 45.81680077 17.07869661 C39.07788448 17.11737799 32.33907659 17.13692626 25.60005218 17.14221632 C21.57388429 17.14587218 17.54814829 17.15791756 13.52210045 17.19031906 C9.73397785 17.22036865 5.94654914 17.22672318 2.15833282 17.2149353 C0.76876808 17.2147143 -0.62082856 17.22304143 -2.01028252 17.24058914 C-13.82377167 17.38165135 -13.82377167 17.38165135 -17.12516785 14.28213501 C-19.20661715 10.98517701 -19.59577336 9.45644064 -18.79882812 5.63110352 C-14.39207179 -1.32886841 -7.49518066 -0.06855661 0 0 Z " fill="#9FC7FB" transform="translate(126.798828125,247.368896484375)"/>
<path d="M0 0 C1.85273026 -0.01908669 1.85273026 -0.01908669 3.7428894 -0.03855896 C5.10887337 -0.03237671 6.47485548 -0.02577069 7.84083557 -0.01878357 C9.28157943 -0.02584205 10.72231587 -0.03458677 12.16304016 -0.04489136 C16.07429269 -0.06740425 19.98514092 -0.06444127 23.89643359 -0.05556989 C27.1619123 -0.05046154 30.42731493 -0.05775134 33.6927858 -0.06504196 C41.39666293 -0.08204718 49.10034201 -0.07846916 56.80421448 -0.06175232 C64.75124241 -0.04483079 72.69772109 -0.0606642 80.64468902 -0.0929752 C87.46861188 -0.11966871 94.29236372 -0.12694777 101.11633354 -0.11846012 C105.19159608 -0.11353007 109.26652812 -0.11575034 113.34174919 -0.13624763 C117.17429766 -0.15460126 121.00605603 -0.14865106 124.83856201 -0.12404823 C126.24422371 -0.11903913 127.64994558 -0.12253289 129.05555916 -0.13519669 C141.00099068 -0.23429541 141.00099068 -0.23429541 144.34683228 2.82754517 C145.97193909 5.5146637 145.97193909 5.5146637 145.97193909 9.1396637 C144.66139365 13.56275456 144.66139365 13.56275456 141.97193909 15.5146637 C139.302598 15.89498043 139.302598 15.89498043 136.0194397 15.90234375 C134.15398247 15.9172007 134.15398247 15.9172007 132.25083923 15.93235779 C130.8701925 15.92811952 129.48954672 15.92356164 128.10890198 15.91871643 C126.65683465 15.92441783 125.20477181 15.9313812 123.75271606 15.93951416 C119.8064056 15.95748676 115.86031699 15.9562695 111.91397786 15.95057178 C108.62112807 15.94748568 105.32832126 15.95356593 102.03547758 15.95961052 C94.26792398 15.97366773 86.50048032 15.97208468 78.73292542 15.96070862 C70.71610675 15.94922703 62.69962261 15.96330086 54.68284804 15.99010509 C47.80292783 16.01224806 40.92311274 16.01890263 34.04315943 16.01302868 C29.93274487 16.0096544 25.82254475 16.01210513 21.71216011 16.02927971 C17.84690252 16.0447245 13.98214112 16.04082127 10.11690331 16.02197456 C8.69791892 16.01828171 7.27889797 16.02141747 5.8599472 16.03186035 C3.92380957 16.04502211 1.98754423 16.0311445 0.05142212 16.01586914 C-1.03239715 16.01565986 -2.11621641 16.01545057 -3.23287868 16.01523495 C-6.7278443 15.38934398 -7.90942939 14.32117764 -10.02806091 11.5146637 C-10.52806091 8.0146637 -10.52806091 8.0146637 -10.02806091 4.5146637 C-7.02447483 0.54512188 -4.88087355 0.01275808 0 0 Z " fill="#9DC6FB" transform="translate(118.02806091308594,282.48533630371094)"/>
<path d="M0 0 C1.88334179 0.12369968 3.76604502 0.25713971 5.6484375 0.39453125 C6.69692871 0.46776611 7.74541992 0.54100098 8.82568359 0.61645508 C21.35297246 2.13009689 33.05305847 9.37460962 41 19 C46.86920713 27.28753784 52.21496655 37.38227436 52.0625 47.75 C52.05347656 48.54921875 52.04445312 49.3484375 52.03515625 50.171875 C52.02355469 50.77515625 52.01195312 51.3784375 52 52 C45.5406596 52.12689295 39.08164116 52.21438968 32.62133789 52.2746582 C30.4242756 52.29978509 28.22729676 52.33389246 26.03051758 52.37719727 C22.87039595 52.43792762 19.71138043 52.46622833 16.55078125 52.48828125 C15.57039383 52.51408768 14.59000641 52.5398941 13.57991028 52.56648254 C6.71436921 52.56929905 6.71436921 52.56929905 2.90307617 49.53198242 C2.27506104 48.69642822 1.6470459 47.86087402 1 47 C0.67 46.67 0.34 46.34 0 46 C-0.09295815 44.55710213 -0.11746513 43.10970215 -0.11352539 41.66381836 C-0.11344986 40.7429393 -0.11337433 39.82206024 -0.11329651 38.87327576 C-0.10813522 37.87224319 -0.10297394 36.87121063 -0.09765625 35.83984375 C-0.0962413 34.82024063 -0.09482635 33.80063751 -0.09336853 32.75013733 C-0.08775097 29.47922893 -0.0751955 26.20838787 -0.0625 22.9375 C-0.05748726 20.72591244 -0.05292396 18.51432382 -0.04882812 16.30273438 C-0.03777584 10.86846643 -0.02102063 5.43423803 0 0 Z " fill="#C8E973" transform="translate(154,101)"/>
<path d="M0 0 C1.3756311 -0.00574036 1.3756311 -0.00574036 2.77905273 -0.01159668 C4.71566873 -0.01431549 6.65232147 -0.00695646 8.58886719 0.00976562 C11.55226553 0.03117606 14.51323951 0.00996331 17.4765625 -0.015625 C19.35938035 -0.01298172 21.24219669 -0.00785673 23.125 0 C24.01050537 -0.00809692 24.89601074 -0.01619385 25.80834961 -0.02453613 C29.61255755 0.03341758 31.88137143 0.08843838 35.11914062 2.19335938 C36.93633696 5.13677482 37.07881951 7.01767298 37.09375 10.46875 C37.10148437 12.18191406 37.10148437 12.18191406 37.109375 13.9296875 C37.09390625 15.11820312 37.0784375 16.30671875 37.0625 17.53125 C37.07796875 18.71976562 37.0934375 19.90828125 37.109375 21.1328125 C37.10421875 22.27492188 37.0990625 23.41703125 37.09375 24.59375 C37.08923828 25.63660156 37.08472656 26.67945313 37.08007812 27.75390625 C36.5625 30.53125 36.5625 30.53125 35.11914062 32.86914062 C31.24061607 35.39062603 27.65972611 35.10396483 23.125 35.0625 C21.7493689 35.06824036 21.7493689 35.06824036 20.34594727 35.07409668 C18.40933127 35.07681549 16.47267853 35.06945646 14.53613281 35.05273438 C11.57273447 35.03132394 8.61176049 35.05253669 5.6484375 35.078125 C3.76561965 35.07548172 1.88280331 35.07035673 0 35.0625 C-0.88550537 35.07059692 -1.77101074 35.07869385 -2.68334961 35.08703613 C-6.48755755 35.02908242 -8.75637143 34.97406162 -11.99414062 32.86914062 C-13.81133696 29.92572518 -13.95381951 28.04482702 -13.96875 24.59375 C-13.97390625 23.45164062 -13.9790625 22.30953125 -13.984375 21.1328125 C-13.96890625 19.94429688 -13.9534375 18.75578125 -13.9375 17.53125 C-13.95296875 16.34273438 -13.9684375 15.15421875 -13.984375 13.9296875 C-13.97921875 12.78757812 -13.9740625 11.64546875 -13.96875 10.46875 C-13.96423828 9.42589844 -13.95972656 8.38304687 -13.95507812 7.30859375 C-13.4375 4.53125 -13.4375 4.53125 -11.99414062 2.19335938 C-8.11561607 -0.32812603 -4.53472611 -0.04146483 0 0 Z " fill="#4476C9" transform="translate(119.4375,444.46875)"/>
<path d="M0 0 C0.92860336 -0.00817749 1.85720673 -0.01635498 2.81394958 -0.02478027 C5.89573517 -0.04965106 8.97747466 -0.06615404 12.05932617 -0.08056641 C13.11037725 -0.08589008 14.16142834 -0.09121376 15.24432945 -0.09669876 C20.8067591 -0.12343683 26.36916624 -0.14281021 31.93164062 -0.15722656 C37.68209843 -0.1738819 43.43198396 -0.21866557 49.18222523 -0.26959801 C53.59942802 -0.30322382 58.01649417 -0.31479887 62.4338131 -0.32045364 C64.55374211 -0.32717831 66.67366176 -0.34243176 68.79346657 -0.36634445 C71.75992353 -0.39790019 74.7248261 -0.39804709 77.69140625 -0.390625 C78.56795868 -0.40703033 79.44451111 -0.42343567 80.34762573 -0.44033813 C84.73674889 -0.39535974 86.50022335 -0.2233353 90.08500671 2.5418396 C92.03979492 5.19287109 92.03979492 5.19287109 92.66479492 8.19287109 C91.80245466 12.33210433 90.37749848 13.61250228 87.03979492 16.19287109 C83.93736098 16.91572717 80.91331092 16.86654497 77.73901367 16.82397461 C76.80997223 16.83112991 75.88093079 16.83828522 74.92373657 16.84565735 C71.85775334 16.86254355 68.79323243 16.84314183 65.72729492 16.82177734 C63.59407429 16.82260605 61.46085372 16.82506548 59.32763672 16.8290863 C54.85877237 16.83194426 50.39040923 16.81724285 45.92163086 16.78979492 C40.19477882 16.75571257 34.46882303 16.76173061 28.7419281 16.7804575 C24.33752988 16.79102851 19.93334003 16.78208865 15.52896118 16.76707268 C13.41745625 16.76189118 11.30592955 16.76237227 9.19442749 16.76861763 C6.24266812 16.77407092 3.29218959 16.75369048 0.34057617 16.72631836 C-0.53126312 16.73284424 -1.40310242 16.73937012 -2.30136108 16.74609375 C-6.34127556 16.68242603 -8.45958577 16.50001932 -11.97509766 14.34312439 C-14.5442237 11.56026655 -15.03735606 9.97326927 -14.96020508 6.19287109 C-10.80826989 -0.24978695 -7.18092048 0.03465838 0 0 Z " fill="#9FC7FB" transform="translate(262.960205078125,196.80712890625)"/>
<path d="M0 0 C0.82321243 -0.00700928 1.64642487 -0.01401855 2.49458313 -0.02124023 C5.21352959 -0.03883378 7.93143373 -0.02719298 10.65039062 -0.01367188 C12.54081421 -0.01636641 14.43123644 -0.0202485 16.32165527 -0.02526855 C20.28276775 -0.03116544 24.24351933 -0.02259455 28.20458984 -0.00390625 C33.28251624 0.01888343 38.359597 0.00576136 43.43749237 -0.01819611 C47.34086481 -0.03264896 51.24403669 -0.02805045 55.14741516 -0.01768494 C57.01972046 -0.01501623 58.89204395 -0.01829246 60.764328 -0.02760315 C63.38113648 -0.03776038 65.99657485 -0.02228006 68.61328125 0 C69.38742874 -0.00809692 70.16157623 -0.01619385 70.95918274 -0.02453613 C74.4361553 0.03032 76.4429595 0.25129206 79.28356934 2.33117676 C81.53606552 5.56468314 81.42362448 7.67856747 80.80664062 11.51757812 C77.94603111 14.6098086 76.24720004 15.45732817 72.0433197 16.03224182 C70.55962385 16.05891185 69.07543374 16.06374689 67.59155273 16.05102539 C66.77794785 16.05964096 65.96434296 16.06825653 65.12608337 16.07713318 C62.44505731 16.09977933 59.76507743 16.09305825 57.08398438 16.08398438 C55.21740915 16.08921978 53.35083659 16.09549596 51.48426819 16.10276794 C47.57621797 16.11316902 43.66853195 16.10861371 39.76049805 16.09399414 C34.75084957 16.07678795 29.74234604 16.10032547 24.73282528 16.13548374 C20.88005464 16.15743347 17.02755916 16.1560225 13.17474556 16.14771843 C11.32754827 16.14689794 9.48033097 16.15378003 7.63319206 16.16848946 C5.05218707 16.18589546 2.4732552 16.17142872 -0.10766602 16.14868164 C-0.87089172 16.16037384 -1.63411743 16.17206604 -2.42047119 16.18411255 C-6.23060213 16.11573096 -7.85991505 15.83403179 -10.66746521 13.16954041 C-12.53380465 9.92589356 -12.82047238 8.20186705 -12.19335938 4.51757812 C-8.914136 -0.12603406 -5.28264121 -0.05525193 0 0 Z " fill="#9DC6FB" transform="translate(120.193359375,317.482421875)"/>
<path d="M0 0 C0.11604679 3.4372166 0.18719508 6.87393086 0.25 10.3125 C0.30027344 11.77719727 0.30027344 11.77719727 0.3515625 13.27148438 C0.36445313 14.20927734 0.37734375 15.14707031 0.390625 16.11328125 C0.41157227 16.97735596 0.43251953 17.84143066 0.45410156 18.73168945 C0 21 0 21 -1.42578125 22.78710938 C-5.41170841 24.66515245 -9.22861134 24.36796121 -13.578125 24.29296875 C-14.96798615 24.28660149 -14.96798615 24.28660149 -16.38592529 24.28010559 C-19.34091434 24.26333322 -22.29521761 24.22568355 -25.25 24.1875 C-27.25519847 24.1724513 -29.26040765 24.15876322 -31.265625 24.14648438 C-36.17734696 24.11343438 -41.08855726 24.06166182 -46 24 C-46.33 23.01 -46.66 22.02 -47 21 C-46.06317383 20.57702637 -45.12634766 20.15405273 -44.16113281 19.71826172 C-40.62634963 18.12154799 -37.09300972 16.52166123 -33.56005859 14.92089844 C-32.04188503 14.2335326 -30.52334099 13.54698432 -29.00439453 12.86132812 C-20.64628869 9.08776747 -12.35343674 5.2653588 -4.21386719 1.03564453 C-2 0 -2 0 0 0 Z " fill="#E18526" transform="translate(239,455)"/>
</svg>
