<?xml version="1.0" encoding="UTF-8"?>
<svg version="1.1" xmlns="http://www.w3.org/2000/svg" width="512" height="512">
<path d="M0 0 C10.11930991 8.56014132 16.21262643 19.02432872 18.3984375 32.0625 C19.40395904 47.72543164 15.71244628 60.09394086 6.3359375 72.625 C1.50216105 79.11555106 -1.32690963 84.84973379 -2.703125 92.84375 C-2.95956787 94.31424805 -2.95956787 94.31424805 -3.22119141 95.81445312 C-3.34671387 96.55630859 -3.47223633 97.29816406 -3.6015625 98.0625 C-2.6841629 98.05139694 -1.76676331 98.04029388 -0.82156372 98.02885437 C7.85776438 97.92833781 16.53689475 97.85237591 25.2166729 97.80343914 C29.67823148 97.77743356 34.13930592 97.74220289 38.60058594 97.68530273 C42.91244333 97.6306575 47.2238374 97.60101161 51.53601456 97.58811378 C53.17456472 97.57893181 54.81309181 97.56100226 56.45144272 97.53384972 C66.55313789 97.3732129 75.46339347 97.56306211 83.29342651 104.81840515 C90.38421427 112.26124221 90.83724203 119.78736545 90.79284668 129.64375305 C90.79893778 130.91266315 90.80502889 132.18157325 90.81130457 133.48893517 C90.82767354 136.99976975 90.82539244 140.51037933 90.8199296 144.02123868 C90.81725561 147.8120996 90.83179816 151.60290104 90.84402466 155.39373779 C90.86506571 162.81638901 90.86962026 170.23896209 90.86783677 177.66163961 C90.86652841 183.69638925 90.87033708 189.73111454 90.87776184 195.7658596 C90.87986107 197.50512812 90.88195867 199.24439664 90.88405466 200.98366517 C90.88561995 202.28225598 90.88561995 202.28225598 90.88721687 203.60708096 C90.9061141 219.97582628 90.90507071 236.34452678 90.89824754 252.71327849 C90.89267319 267.67939024 90.91349379 282.64533075 90.94660801 297.61140249 C90.98036289 312.98663586 90.99551105 328.36178724 90.99089098 343.73705834 C90.98864801 352.36584363 90.99386408 360.99447067 91.01878357 369.62322426 C91.03982 376.96985568 91.04336561 384.31624211 91.02448398 391.66288368 C91.01534022 395.4090532 91.01414065 399.15476621 91.03483963 402.90089989 C91.05706139 406.96771913 91.04029825 411.03346736 91.01989746 415.10029602 C91.03241531 416.27647769 91.04493316 417.45265936 91.05783033 418.66448289 C90.96938008 426.89809702 89.34135061 433.7672237 83.64305258 439.97475702 C77.68790698 445.58290685 71.38129055 447.51754215 63.31857586 447.44561005 C62.53008952 447.45056956 61.74160319 447.45552908 60.92922333 447.46063888 C58.28888842 447.47358532 55.64906002 447.46521339 53.00871277 447.45690918 C51.09588729 447.46179853 49.18306477 447.46798854 47.27024728 447.47536707 C42.01499426 447.49178409 36.7598911 447.48944504 31.50462139 447.4839921 C25.83645143 447.48132408 20.16832161 447.49584945 14.50016785 447.50808716 C3.39581178 447.52915312 -7.70849209 447.53368133 -18.81286577 447.53189927 C-27.83817335 447.53059221 -36.86346464 447.53439296 -45.88876915 447.54182434 C-48.48743604 447.54392351 -51.08610292 447.54602111 -53.68476981 447.54811716 C-55.62485404 447.54968245 -55.62485404 447.54968245 -57.6041319 447.55127937 C-75.1202975 447.56481473 -92.63645299 447.57240495 -110.15262318 447.56795502 C-110.83755604 447.56778306 -111.5224889 447.56761111 -112.22817731 447.56743394 C-115.69964078 447.56654506 -119.17110423 447.56560025 -122.64256767 447.56463593 C-123.33200332 447.5644449 -124.02143898 447.56425387 -124.73176662 447.56405704 C-126.12597314 447.56366995 -127.52017966 447.56327962 -128.91438617 447.56288607 C-150.60613502 447.55691662 -172.29777717 447.57235204 -193.98950195 447.60449219 C-218.36437855 447.64057733 -242.73917075 447.65985693 -267.1140787 447.65495348 C-280.01853162 447.65270794 -292.92287877 447.65796435 -305.82731056 447.68284607 C-316.81356747 447.70384872 -327.79966062 447.70746138 -338.78592423 447.68854648 C-344.39123398 447.67938229 -349.99623831 447.67826687 -355.60152435 447.69890213 C-360.73441712 447.71758933 -365.86675384 447.71313354 -370.99962529 447.69035631 C-372.85489878 447.6861649 -374.71021472 447.69038871 -376.56544337 447.70395225 C-386.99701831 447.7750137 -396.40099722 447.82274821 -404.49113017 440.30711508 C-411.59320546 432.87615184 -412.04034277 425.33224785 -411.99597168 415.48124695 C-412.00206278 414.21233685 -412.00815389 412.94342675 -412.01442957 411.63606483 C-412.03079854 408.12523025 -412.02851744 404.61462067 -412.0230546 401.10376132 C-412.02038061 397.3129004 -412.03492316 393.52209896 -412.04714966 389.73126221 C-412.06819071 382.30861099 -412.07274526 374.88603791 -412.07096177 367.46336039 C-412.06965341 361.42861075 -412.07346208 355.39388546 -412.08088684 349.3591404 C-412.08298607 347.61987188 -412.08508367 345.88060336 -412.08717966 344.14133483 C-412.08822319 343.27560762 -412.08926672 342.40988041 -412.09034187 341.51791904 C-412.1092391 325.14917372 -412.10819571 308.78047322 -412.10137254 292.41172151 C-412.09579819 277.44560976 -412.11661879 262.47966925 -412.14973301 247.51359751 C-412.18348789 232.13836414 -412.19863605 216.76321276 -412.19401598 201.38794166 C-412.19177301 192.75915637 -412.19698908 184.13052933 -412.22190857 175.50177574 C-412.242945 168.15514432 -412.24649061 160.80875789 -412.22760898 153.46211632 C-412.21846522 149.7159468 -412.21726565 145.97023379 -412.23796463 142.22410011 C-412.26018639 138.15728087 -412.24342325 134.09153264 -412.22302246 130.02470398 C-412.23554031 128.84852231 -412.24805816 127.67234064 -412.26095533 126.46051711 C-412.17250508 118.22690298 -410.54447561 111.3577763 -404.84617758 105.15024298 C-398.56475697 99.2348296 -392.10796524 97.61208624 -383.73403931 97.67481995 C-382.42989801 97.66674164 -382.42989801 97.66674164 -381.09941041 97.65850013 C-378.19845206 97.64424121 -375.29795134 97.65131922 -372.39697266 97.65844727 C-370.3120436 97.65274259 -368.22711767 97.64577796 -366.14219666 97.63764954 C-360.48718348 97.619713 -354.83232543 97.62088759 -349.17729235 97.62659192 C-344.45316908 97.6296833 -339.72907563 97.62359181 -335.0049566 97.61755317 C-323.85809686 97.60350768 -312.71131376 97.60506924 -301.56445312 97.61645508 C-290.07243684 97.62793423 -278.58065399 97.61386395 -267.08866847 97.5870586 C-257.21499096 97.56489196 -247.34138668 97.55826648 -237.46768606 97.56413502 C-231.5737031 97.56750371 -225.67986974 97.56509523 -219.78590775 97.54788399 C-214.24214733 97.53240189 -208.69873227 97.53638474 -203.15498543 97.55518913 C-201.1237132 97.55887159 -199.09241532 97.5557766 -197.06116676 97.54530334 C-194.28139973 97.53206814 -191.50277178 97.54366335 -188.72305298 97.56129456 C-187.9252714 97.55168955 -187.12748983 97.54208454 -186.30553305 97.53218848 C-179.31710876 97.6229634 -173.38070647 99.7228291 -168.0078125 104.24609375 C-167.37875 104.98988281 -166.7496875 105.73367187 -166.1015625 106.5 C-165.12703125 107.61181641 -165.12703125 107.61181641 -164.1328125 108.74609375 C-162.48687764 111.2359901 -161.97470265 113.12402129 -161.6015625 116.0625 C-160.9415625 116.0625 -160.2815625 116.0625 -159.6015625 116.0625 C-159.50875 115.33160156 -159.4159375 114.60070312 -159.3203125 113.84765625 C-158.48272813 110.60201682 -157.30218601 109.01063198 -155.1015625 106.5 C-154.4725 105.75621094 -153.8434375 105.01242188 -153.1953125 104.24609375 C-144.00283257 96.50724393 -133.72499678 97.53806215 -122.34765625 97.671875 C-120.47722481 97.67934525 -118.60678548 97.68503447 -116.73634338 97.68902588 C-111.83879584 97.70422056 -106.94173085 97.74344852 -102.04437256 97.7878418 C-97.03680954 97.82892824 -92.02916775 97.84706534 -87.02148438 97.8671875 C-77.21463298 97.90994931 -67.40813804 97.97812508 -57.6015625 98.0625 C-58.18665319 95.51646784 -58.78478621 92.97469681 -59.390625 90.43359375 C-59.55312744 89.72021851 -59.71562988 89.00684326 -59.88305664 88.27185059 C-61.49079692 81.60984843 -64.54880344 76.56581274 -68.6015625 71.0625 C-77.87998873 57.9713238 -80.85622502 46.0121345 -79.6015625 30.0625 C-77.22050024 17.33959502 -69.51753538 5.51395909 -58.87890625 -1.8125 C-40.33750795 -13.29620475 -17.77030792 -13.23434344 0 0 Z " fill="#F1FAFE" transform="translate(416.6015625,64.9375)"/>
<path d="M0 0 C0.86942753 -0.00538554 1.73885507 -0.01077108 2.63462889 -0.01631981 C5.53558725 -0.03057874 8.43608796 -0.02350073 11.33706665 -0.01637268 C13.42199571 -0.02207735 15.50692164 -0.02904199 17.59184265 -0.03717041 C23.24685583 -0.05510694 28.90171388 -0.05393236 34.55674696 -0.04822803 C39.28087023 -0.04513665 44.00496368 -0.05122813 48.7290827 -0.05726677 C59.87594244 -0.07131226 71.02272555 -0.06975071 82.16958618 -0.05836487 C93.66160246 -0.04688571 105.15338532 -0.06095599 116.64537084 -0.08776134 C126.51904835 -0.10992799 136.39265263 -0.11655347 146.26635325 -0.11068493 C152.16033621 -0.10731623 158.05416957 -0.10972472 163.94813156 -0.12693596 C169.49189198 -0.14241805 175.03530704 -0.13843521 180.57905388 -0.11963081 C182.6103261 -0.11594836 184.64162398 -0.11904334 186.67287254 -0.1295166 C189.45263957 -0.1427518 192.23126752 -0.1311566 195.01098633 -0.11352539 C195.8087679 -0.1231304 196.60654948 -0.1327354 197.42850626 -0.14263147 C204.39217788 -0.05217807 210.32990074 2.03437191 215.69107056 6.53611755 C216.31110962 7.27088318 216.93114868 8.0056488 217.56997681 8.76268005 C218.20806274 9.49228943 218.84614868 10.2218988 219.50357056 10.97361755 C222.52612262 15.4530832 223.38180501 19.84813723 223.39418983 25.1859951 C223.40165533 26.32656156 223.40912082 27.46712802 223.41681254 28.64225709 C223.41391044 30.50704239 223.41391044 30.50704239 223.41094971 32.40950012 C223.41595498 33.75111719 223.42183146 35.09273125 223.42850244 36.43434107 C223.44428844 40.1149104 223.44773235 43.79540336 223.44915104 47.47600245 C223.45284753 51.44732632 223.46800426 55.41860841 223.48176575 59.38990784 C223.50403456 66.26844723 223.51905012 73.14697176 223.52913284 80.0255394 C223.54372123 89.97077593 223.56925852 99.91596066 223.59746413 109.86116679 C223.6429292 125.99678119 223.67954519 142.13240305 223.71060181 158.26805115 C223.74078851 173.9418926 223.77513934 189.6157158 223.81509399 205.28953552 C223.81878632 206.73885086 223.81878632 206.73885086 223.82255323 208.2174453 C223.83492786 213.06466076 223.84738439 217.911876 223.85988164 222.75909114 C223.96344517 262.96859549 224.05264984 303.17812199 224.13247681 343.38768005 C223.47247681 343.38768005 222.81247681 343.38768005 222.13247681 343.38768005 C221.98552368 342.78182068 221.83857056 342.1759613 221.68716431 341.55174255 C218.938308 331.28302647 214.21339241 322.32578293 205.13247681 316.38768005 C196.74476154 312.18836877 189.51385838 310.23240326 180.15757751 310.2631073 C179.35998479 310.26169715 178.56239206 310.260287 177.74062985 310.25883412 C175.07085335 310.25518733 172.40113017 310.25851502 169.73135376 310.26170349 C167.81583108 310.26030836 165.90030871 310.25840881 163.98478699 310.25604248 C159.86021489 310.25154782 155.73565274 310.24968945 151.61107826 310.24958038 C145.0843466 310.24843918 138.5576714 310.23559422 132.03096008 310.22001648 C130.92890222 310.21744363 129.82684436 310.21487077 128.69139081 310.21221995 C126.43785409 310.20695342 124.18431741 310.20166794 121.93078077 310.19636393 C106.73799424 310.16127169 91.54527795 310.13470131 76.35244751 310.13719177 C66.1017033 310.13878177 55.85115176 310.12271186 45.60046929 310.08648515 C40.17866449 310.06804741 34.75718128 310.05866338 29.33535194 310.070961 C24.23227402 310.08242351 19.12977123 310.07063334 14.02676964 310.04132652 C12.15879734 310.03470324 10.2907721 310.036523 8.42282104 310.04762459 C-3.67420825 310.11352789 -12.74347426 309.61729484 -21.80502319 300.70018005 C-28.02406662 293.80880761 -28.30862568 283.90566383 -28.26193237 275.11607361 C-28.27106903 273.478378 -28.27106903 273.478378 -28.28039026 271.80759764 C-28.29695595 268.17207475 -28.29225356 264.53690458 -28.28744507 260.90135193 C-28.29478898 258.28558999 -28.30337615 255.66983129 -28.31311035 253.05407715 C-28.33409858 246.7006532 -28.3387091 240.34732062 -28.33692247 233.99386609 C-28.33561184 228.8277985 -28.33943424 223.66175928 -28.34684753 218.49569702 C-28.34894684 217.00436449 -28.35104444 215.51303196 -28.35314035 214.02169943 C-28.35418388 213.27930303 -28.35522741 212.53690663 -28.35630256 211.77201337 C-28.37517724 197.75242755 -28.37416285 183.73289414 -28.36733323 169.71330088 C-28.3617561 156.9007214 -28.38259533 144.08834177 -28.4156937 131.27580899 C-28.44946053 118.10174235 -28.46459557 104.92777138 -28.45997667 91.75366068 C-28.45773548 84.36457961 -28.46292411 76.97568338 -28.48786926 69.5866394 C-28.51112494 62.63929069 -28.50826347 55.69236461 -28.48794174 48.74500847 C-28.48453088 46.19813145 -28.48962392 43.65122643 -28.50392532 41.10438728 C-28.52212731 37.6222026 -28.50935946 34.14142906 -28.48898315 30.6592865 C-28.501501 29.65635292 -28.51401885 28.65341933 -28.52691603 27.62009382 C-28.43039543 19.90349032 -26.41221697 13.26248509 -21.11213827 7.46881914 C-14.81727822 1.56641637 -8.37881583 -0.06277034 0 0 Z " fill="#F1FAFE" transform="translate(32.867523193359375,162.61231994628906)"/>
<path d="M0 0 C3.75529232 2.79086498 6.1384377 6.4068753 8.71875 10.27734375 C9.275625 9.20484375 9.8325 8.13234375 10.40625 7.02734375 C13.09605039 2.32256921 16.72167169 -0.64202222 21.71875 -2.72265625 C32.50858872 -3.94086385 41.89925112 -1.7147241 50.6875 4.62890625 C56.89017254 9.66261358 59.724568 14.95253227 62.54296875 22.41015625 C64.57903087 27.37517152 66.14325834 30.40855668 71.09375 32.71484375 C76.94048291 35.76159905 80.71541262 39.7326208 83.22265625 46.0078125 C84.38997083 51.34804694 85.21041931 59.29400513 82.71875 64.27734375 C83.42 64.46296875 84.12125 64.64859375 84.84375 64.83984375 C90.48578757 67.66086254 93.61172677 72.38908368 96.09375 78.08984375 C99.76244122 89.34359276 98.99216125 101.74626386 94.21875 112.5 C92.08643961 116.44810596 89.61553203 119.86610589 86.71875 123.27734375 C86.20570313 124.00824219 85.69265625 124.73914063 85.1640625 125.4921875 C84.68710938 126.08128906 84.21015625 126.67039062 83.71875 127.27734375 C83.05875 127.27734375 82.39875 127.27734375 81.71875 127.27734375 C81.57179687 127.86 81.42484375 128.44265625 81.2734375 129.04296875 C78.01221021 140.96331679 73.1217972 152.19128887 62.1953125 158.8046875 C53.95646095 163.07256105 46.50005147 164.63241865 37.27734375 165.421875 C32.97113684 166.45706634 31.39237223 167.78719629 28.71875 171.27734375 C27.89170995 173.74557466 27.89170995 173.74557466 27.71875 176.27734375 C27.1323547 179.84902421 26.69599702 181.31080402 24.59375 184.40234375 C21.53869261 186.39477248 19.38485554 186.99363059 15.72265625 186.78515625 C12.19753389 185.89185039 10.25813401 183.81672776 7.71875 181.27734375 C7.05875 182.10234375 6.39875 182.92734375 5.71875 183.77734375 C2.35163 186.58327708 0.8893851 187.07026081 -3.3515625 186.7421875 C-6.99593281 185.86429263 -8.22365167 184.36374124 -10.28125 181.27734375 C-11.03080083 178.45623212 -11.52580125 175.69211963 -11.921875 172.80078125 C-12.22122065 170.15857865 -12.22122065 170.15857865 -13.28125 167.27734375 C-14.51359375 167.11878906 -15.7459375 166.96023438 -17.015625 166.796875 C-32.44361491 164.67985878 -45.95214151 161.17715706 -56.46875 148.83984375 C-59.62486566 144.41610786 -61.08418608 139.36441108 -62.81884766 134.27490234 C-64.88659342 128.56898783 -67.86384565 124.9447481 -72.1640625 120.64453125 C-75.6873438 116.70521673 -77.46199497 112.18474598 -79.28125 107.27734375 C-79.714375 106.18421875 -80.1475 105.09109375 -80.59375 103.96484375 C-82.61862296 93.10416153 -81.78322489 82.7810114 -76.53125 73.02734375 C-74.28125 70.27734375 -74.28125 70.27734375 -72.46875 69.109375 C-70.21148221 67.63031849 -68.79679851 66.53156297 -67.28125 64.27734375 C-66.9716112 60.89638388 -66.9716112 60.89638388 -67.21875 57.15234375 C-67.57875107 49.1931897 -66.11859807 43.67131298 -61.28125 37.27734375 C-57.92041902 34.29961267 -54.3852614 32.03927435 -50.15625 30.5078125 C-47.32476727 28.64965196 -46.95135513 26.38351356 -45.90625 23.21484375 C-42.13937475 12.84162499 -37.30863492 5.50664779 -27.390625 0.28125 C-18.84902236 -3.59960859 -8.35344901 -4.81008027 0 0 Z " fill="#FD93BB" transform="translate(120.28125,231.72265625)"/>
<path d="M0 0 C0.33 0 0.66 0 1 0 C1.20302734 0.94359375 1.20302734 0.94359375 1.41015625 1.90625 C3.26141116 9.2669282 6.13320038 14.72049914 12.53261185 19.03275299 C20.66460935 23.43871798 29.83693083 22.54107619 38.80761719 22.48242188 C40.71886473 22.48460998 42.63011093 22.48861014 44.54135132 22.49427795 C48.64520022 22.5028206 52.74878713 22.49909047 56.85262299 22.4858551 C63.35115554 22.46545499 69.84942621 22.47552405 76.34796143 22.4901123 C91.31996232 22.51910394 106.29188547 22.50843361 121.26390076 22.49741364 C134.98012862 22.48772388 148.69621886 22.48653908 162.41242337 22.51729441 C168.86259542 22.53061758 175.31237128 22.52477927 181.76251936 22.50392914 C185.78825312 22.49489905 189.81383653 22.50245705 193.83955765 22.51434135 C195.69500115 22.51645956 197.55046768 22.51182524 199.40587234 22.4996357 C214.68426705 22.40498452 228.21000667 23.98290088 239.9296875 34.77734375 C245.02291375 40.12195241 249.78519049 47.28070013 250.12890625 54.83203125 C250.08636719 55.54746094 250.04382813 56.26289063 250 57 C250.66 57 251.32 57 252 57 C252.0825 55.845 252.165 54.69 252.25 53.5 C253.49905767 44.13206748 259.13629969 37.23783098 266 31 C273.9702625 25.63497566 281.52485506 22.68815431 291.17108154 22.7484436 C292.38100293 22.7439884 292.38100293 22.7439884 293.61536717 22.73944318 C296.30973178 22.73182384 299.00387705 22.73828877 301.69824219 22.74462891 C303.63361763 22.741878 305.56899194 22.7381975 307.50436401 22.73365784 C311.66876501 22.7255522 315.83311233 22.72337581 319.99752045 22.72560501 C326.5873604 22.72844063 333.17709335 22.71407627 339.76690674 22.69662476 C358.50474439 22.64962324 377.24257476 22.62566141 395.98046875 22.61914062 C406.33190748 22.61538629 416.68322511 22.59732655 427.03461194 22.56404626 C433.58007525 22.54386208 440.12522556 22.54144759 446.67070723 22.55232644 C450.75094668 22.55493997 454.83100523 22.54089799 458.91119766 22.52224541 C460.79691278 22.51693856 462.68266154 22.51839431 464.56836319 22.52728081 C479.8788959 22.72367822 479.8788959 22.72367822 493.40234375 16.140625 C497.08196373 11.60898105 499.29954256 7.60150687 501 2 C501.33 2 501.66 2 502 2 C502.12445087 7.79826198 502.21473829 13.59573097 502.2746582 19.39501953 C502.29966047 21.36390747 502.333674 23.33270393 502.37719727 25.30126953 C502.86039818 47.73316142 502.86039818 47.73316142 495.2434082 55.87841797 C489.35545375 61.55053701 482.95731275 63.4548143 474.92013836 63.38311005 C473.73740886 63.39054932 473.73740886 63.39054932 472.53078583 63.39813888 C469.89045092 63.41108532 467.25062252 63.40271339 464.61027527 63.39440918 C462.69744979 63.39929853 460.78462727 63.40548854 458.87180978 63.41286707 C453.61655676 63.42928409 448.3614536 63.42694504 443.10618389 63.4214921 C437.43801393 63.41882408 431.76988411 63.43334945 426.10173035 63.44558716 C414.99737428 63.46665312 403.89307041 63.47118133 392.78869673 63.46939927 C383.76338915 63.46809221 374.73809786 63.47189296 365.71279335 63.47932434 C363.11412646 63.48142351 360.51545958 63.48352111 357.91679269 63.48561716 C355.97670846 63.48718245 355.97670846 63.48718245 353.9974306 63.48877937 C336.481265 63.50231473 318.96510951 63.50990495 301.44893932 63.50545502 C300.76400646 63.50528306 300.0790736 63.50511111 299.37338519 63.50493394 C295.90192172 63.50404506 292.43045827 63.50310025 288.95899483 63.50213593 C288.26955918 63.5019449 287.58012352 63.50175387 286.86979588 63.50155704 C285.47558936 63.50116995 284.08138284 63.50077962 282.68717633 63.50038607 C260.99542748 63.49441662 239.30378533 63.50985204 217.61206055 63.54199219 C193.23718395 63.57807733 168.86239175 63.59735693 144.4874838 63.59245348 C131.58303088 63.59020794 118.67868373 63.59546435 105.77425194 63.62034607 C94.78799503 63.64134872 83.80190188 63.64496138 72.81563827 63.62604648 C67.21032852 63.61688229 61.60532419 63.61576687 56.00003815 63.63640213 C50.86714538 63.65508933 45.73480866 63.65063354 40.60193721 63.62785631 C38.74666372 63.6236649 36.89134778 63.62788871 35.03611913 63.64145225 C24.60454419 63.7125137 15.20056528 63.76024821 7.11043233 56.24461508 C0.6616203 49.49716688 -0.44322624 42.68051759 -0.29296875 33.69140625 C-0.28872391 32.72468491 -0.28447906 31.75796356 -0.28010559 30.76194763 C-0.26340522 27.69517351 -0.22576899 24.6290732 -0.1875 21.5625 C-0.172442 19.47461891 -0.15875555 17.38672745 -0.14648438 15.29882812 C-0.11352999 10.19896185 -0.06180751 5.0995949 0 0 Z " fill="#6C7FD8" transform="translate(5,449)"/>
<path d="M0 0 C4.35881415 3.21957864 6.98662349 7.13669603 8.71875 12.26953125 C8.96484566 14.64953327 8.96484566 14.64953327 8.95925903 17.16072083 C8.96200836 18.11839355 8.96475769 19.07606628 8.96759033 20.0627594 C8.9568045 21.62074501 8.9568045 21.62074501 8.94580078 23.21020508 C8.94609283 24.31308868 8.94638489 25.41597229 8.94668579 26.55227661 C8.94529365 30.19378557 8.9297376 33.83508933 8.9140625 37.4765625 C8.91033197 40.00290312 8.90748518 42.52924519 8.90548706 45.05558777 C8.8986338 51.02305279 8.88287453 56.99042988 8.86278808 62.95785969 C8.84041181 69.75348289 8.82943131 76.54910965 8.81939721 83.34476054 C8.79850777 97.31972477 8.7633426 111.29462398 8.71875 125.26953125 C7.97906982 124.78669678 7.23938965 124.3038623 6.47729492 123.80639648 C5.00933472 122.8580896 5.00933472 122.8580896 3.51171875 121.890625 C2.54516357 121.26341553 1.5786084 120.63620605 0.58276367 119.98999023 C-5.68995552 116.22186713 -11.97899218 114.29589687 -19.28125 115.26953125 C-22.47128883 117.20874886 -22.47128883 117.20874886 -24.28125 120.26953125 C-24.2076284 124.02423276 -23.95283839 125.59794286 -21.28125 128.26953125 C-19.12117855 128.80476353 -19.12117855 128.80476353 -16.65625 129.14453125 C-10.32609202 130.37413028 -5.29542357 131.43709967 -1.40625 136.90625 C-0.2299011 138.84570454 0.90234705 140.81286475 1.98046875 142.80859375 C4.01359451 145.68695157 5.47094689 146.1202831 8.71875 147.26953125 C8.81807276 151.71689867 8.89043003 156.16366838 8.93847656 160.61181641 C8.95851791 162.12299861 8.98575905 163.63410397 9.02050781 165.14501953 C9.06936109 167.32473768 9.09179224 169.50342556 9.109375 171.68359375 C9.1407959 173.6473999 9.1407959 173.6473999 9.17285156 175.65087891 C8.64398161 179.86534689 7.37415017 181.9975005 4.71875 185.26953125 C1.48091806 186.88844722 -1.78111018 186.8271351 -5.28125 186.26953125 C-8.64964295 184.14597917 -9.96798116 182.44859255 -10.9921875 178.59375 C-11.34428951 176.66739479 -11.65610094 174.73311935 -11.921875 172.79296875 C-12.22122065 170.15076615 -12.22122065 170.15076615 -13.28125 167.26953125 C-14.51359375 167.11097656 -15.7459375 166.95242188 -17.015625 166.7890625 C-32.44361491 164.67204628 -45.95214151 161.16934456 -56.46875 148.83203125 C-59.62486566 144.40829536 -61.08418608 139.35659858 -62.81884766 134.26708984 C-64.88659342 128.56117533 -67.86384565 124.9369356 -72.1640625 120.63671875 C-75.6873438 116.69740423 -77.46199497 112.17693348 -79.28125 107.26953125 C-79.714375 106.17640625 -80.1475 105.08328125 -80.59375 103.95703125 C-82.61862296 93.09634903 -81.78322489 82.7731989 -76.53125 73.01953125 C-74.28125 70.26953125 -74.28125 70.26953125 -72.46875 69.1015625 C-70.21148221 67.62250599 -68.79679851 66.52375047 -67.28125 64.26953125 C-66.9716112 60.88857138 -66.9716112 60.88857138 -67.21875 57.14453125 C-67.57875107 49.1853772 -66.11859807 43.66350048 -61.28125 37.26953125 C-57.92041902 34.29180017 -54.3852614 32.03146185 -50.15625 30.5 C-47.32476727 28.64183946 -46.95135513 26.37570106 -45.90625 23.20703125 C-42.13937475 12.83381249 -37.30863492 5.49883529 -27.390625 0.2734375 C-18.86002854 -3.60242046 -8.33542163 -4.83386132 0 0 Z " fill="#FDA3C6" transform="translate(120.28125,231.73046875)"/>
<path d="M0 0 C10.11930991 8.56014132 16.21262643 19.02432872 18.3984375 32.0625 C19.40395904 47.72543164 15.71244628 60.09394086 6.3359375 72.625 C-3.20507784 85.43619386 -3.9186672 98.60843381 -3.9921875 114.18554688 C-4.12516925 120.25468607 -4.25210613 124.42938343 -8.6015625 129.0625 C-13.0311961 132.52923906 -15.8957521 133.56739416 -21.50390625 133.55859375 C-23.45780273 133.55956055 -23.45780273 133.55956055 -25.45117188 133.56054688 C-26.12301514 133.55015381 -26.7948584 133.53976074 -27.48706055 133.52905273 C-29.53061456 133.50011961 -31.57156364 133.50845484 -33.61523438 133.52148438 C-41.5957139 133.47020102 -47.62109314 133.39748784 -53.9140625 128.125 C-57.2588956 124.03687065 -57.84666453 121.06665737 -57.875 115.78515625 C-57.9059375 113.92987305 -57.9059375 113.92987305 -57.9375 112.03710938 C-57.96318999 109.46425639 -57.98162635 106.89131894 -57.9921875 104.31835938 C-58.21745462 92.19773686 -60.42518547 82.2252138 -67.796875 72.46484375 C-77.70964751 59.26926995 -80.88390539 46.36401535 -79.6015625 30.0625 C-77.22050024 17.33959502 -69.51753538 5.51395909 -58.87890625 -1.8125 C-40.33750795 -13.29620475 -17.77030792 -13.23434344 0 0 Z " fill="#FCEAA3" transform="translate(416.6015625,64.9375)"/>
<path d="M0 0 C4.81968303 -0.0996515 9.63875277 -0.17183311 14.45922852 -0.21972656 C16.09540264 -0.23971332 17.73150651 -0.26691243 19.36743164 -0.30175781 C38.40650059 -0.69683157 38.40650059 -0.69683157 46.55859375 6.1484375 C47.48865234 7.25058594 47.48865234 7.25058594 48.4375 8.375 C49.39462891 9.46941406 49.39462891 9.46941406 50.37109375 10.5859375 C53.39364581 15.06540315 54.24932821 19.46045717 54.26171303 24.79831505 C54.26917852 25.93888151 54.27664401 27.07944796 54.28433573 28.25457704 C54.282401 29.49776724 54.28046626 30.74095744 54.2784729 32.02182007 C54.28347818 33.36343714 54.28935465 34.7050512 54.29602563 36.04666102 C54.31181163 39.72723035 54.31525554 43.40772331 54.31667423 47.0883224 C54.32037072 51.05964626 54.33552745 55.03092835 54.34928894 59.00222778 C54.37155775 65.88076718 54.38657332 72.75929171 54.39665604 79.63785934 C54.41124443 89.58309587 54.43678171 99.52828061 54.46498732 109.47348674 C54.51045239 125.60910114 54.54706839 141.744723 54.578125 157.88037109 C54.6083117 173.55421254 54.64266254 189.22803574 54.68261719 204.90185547 C54.68507874 205.8680657 54.68754028 206.83427592 54.69007643 207.82976525 C54.70245105 212.6769807 54.71490758 217.52419594 54.72740483 222.37141109 C54.83096837 262.58091543 54.92017304 302.79044193 55 343 C54.34 343 53.68 343 53 343 C52.85304687 342.39414062 52.70609375 341.78828125 52.5546875 341.1640625 C49.80583119 330.89534642 45.0809156 321.93810288 36 316 C30.50764908 313.25025344 25.06839753 311.04283248 19 310 C19.99 309.67 20.98 309.34 22 309 C22.09157746 272.46372171 22.16204986 235.92746357 22.20426132 199.39109412 C22.20926408 195.07656582 22.21444137 190.76203773 22.21972656 186.44750977 C22.2207758 185.58857351 22.22182505 184.72963724 22.22290608 183.84467261 C22.24030609 169.94121913 22.27184156 156.03783187 22.30861118 142.13441766 C22.34603185 127.86571175 22.36823823 113.59704051 22.37635398 99.32828754 C22.38183942 90.52536382 22.39915782 81.72262732 22.43166587 72.91976123 C22.45282765 66.88135758 22.45919628 60.84305056 22.45400551 54.80461252 C22.4514463 51.32193593 22.45533881 47.83958623 22.4768219 44.35696793 C22.49673415 40.57634636 22.49193343 36.79652463 22.48101807 33.0158844 C22.49266943 31.92150686 22.5043208 30.82712933 22.51632524 29.69958884 C22.45304572 21.5861403 20.596126 15.24750667 15.75 8.6875 C11.30579527 4.34429992 6.21359112 1.77669889 0 1 C0 0.67 0 0.34 0 0 Z " fill="#DEF5FC" transform="translate(202,163)"/>
<path d="M0 0 C4.80133868 -0.12473502 9.60170955 -0.21486503 14.40429688 -0.2746582 C16.03369603 -0.29961442 17.66298542 -0.33359254 19.29199219 -0.37719727 C29.74431581 -0.64972718 38.75358673 -0.79908948 46.89208984 6.7565918 C53.53106129 13.70915763 54.44212081 20.75280772 54.38768005 29.99349976 C54.39306559 31.09160622 54.39845113 32.18971269 54.40399987 33.32109511 C54.41829251 36.99591611 54.41117224 40.67037757 54.40405273 44.34521484 C54.40975563 46.98186887 54.41661909 49.61849721 54.42485046 52.25514221 C54.4420286 58.67081249 54.44288048 65.08638478 54.43763756 71.50207208 C54.43359253 76.7182761 54.43504336 81.9344512 54.44038582 87.15065384 C54.44113424 87.89367908 54.44188266 88.63670432 54.44265376 89.40224547 C54.44418528 90.91181616 54.44572363 92.42138684 54.44726873 93.93095751 C54.46099038 108.08117233 54.4555586 122.23133183 54.44408352 136.38154538 C54.43415302 149.31782801 54.4470892 162.25396758 54.47101771 175.19022815 C54.49541954 188.48284397 54.50501383 201.77539319 54.49836498 215.06803095 C54.49487497 222.52695731 54.49709032 229.98577368 54.51461601 237.44468307 C54.52935164 243.79477035 54.52995586 250.14467018 54.5125451 256.49475382 C54.50404342 259.73242956 54.50404026 262.96970248 54.51719666 266.20737267 C54.53038982 269.72274129 54.51887232 273.2372032 54.50120544 276.75253296 C54.51561295 278.27604498 54.51561295 278.27604498 54.53031152 279.83033502 C54.435625 289.00190174 51.55940126 296.51346808 45.09912109 303.13183594 C36.73071999 310.57949879 25.82338546 309.48068712 15.375 309.25 C13.78257465 309.22989608 12.19012467 309.21165221 10.59765625 309.1953125 C6.73115311 309.15164294 2.86585424 309.08283518 -1 309 C-1 308.67 -1 308.34 -1 308 C-0.1646875 307.88785156 -0.1646875 307.88785156 0.6875 307.7734375 C7.60874582 306.58092555 12.9986832 303.96316313 17.31640625 298.26171875 C21.67892521 291.00158572 22.29277487 284.5256053 22.26742554 276.28533936 C22.27195665 275.20512709 22.27648776 274.12491482 22.28115618 273.01196885 C22.29381812 269.39172483 22.29217863 265.7716309 22.29052734 262.15136719 C22.29651149 259.55590115 22.30331677 256.96043689 22.31088257 254.36497498 C22.32747876 248.04577556 22.3329915 241.72661347 22.33410732 235.40739408 C22.33505854 230.26888732 22.33917248 225.13039283 22.34550858 219.99188995 C22.36311788 205.41354421 22.37234803 190.83522789 22.37084763 176.25687143 C22.37076772 175.47133726 22.3706878 174.68580308 22.37060547 173.87646484 C22.37052371 173.08996804 22.37044195 172.30347124 22.37035771 171.4931412 C22.36954509 158.75147057 22.38867752 146.00991822 22.4168822 133.26828179 C22.44563427 120.17571145 22.45942119 107.08319876 22.45769465 93.99059606 C22.45703151 86.64395606 22.46249034 79.29744005 22.48405075 71.95082855 C22.50420356 65.03970118 22.50356509 58.12883941 22.48901749 51.21769905 C22.48692685 48.68372528 22.49164537 46.14973519 22.5037384 43.61578941 C22.51920001 40.15108458 22.50987541 36.68728099 22.49447632 33.22259521 C22.50476344 32.22471505 22.51505057 31.22683488 22.52564943 30.19871593 C22.44791544 22.26008068 20.54156177 15.08103767 15.75 8.625 C11.27158366 4.35014804 6.19333571 1.77416696 0 1 C0 0.67 0 0.34 0 0 Z " fill="#DEF5FC" transform="translate(453,163)"/>
<path d="M0 0 C11.54950871 8.60143592 18.62378901 19.8261099 21 34 C22.00552154 49.66293164 18.31400878 62.03144086 8.9375 74.5625 C2.68174311 82.96241461 0.94630787 89.29530673 -1 100 C-10.57 100 -20.14 100 -30 100 C-28.66732986 88.00596873 -25.83470321 80.72505235 -18.72509766 71.28710938 C-9.64519739 59.01825345 -8.10487432 46.78721958 -9 32 C-9.56651529 28.39125299 -10.4853759 25.31629389 -12 22 C-12.3403125 21.24847656 -12.680625 20.49695313 -13.03125 19.72265625 C-19.36002558 7.21477207 -29.17839628 0.01714928 -42 -5 C-32.46190643 -14.53809357 -9.5617555 -6.03265331 0 0 Z " fill="#FEE178" transform="translate(414,63)"/>
<path d="M0 0 C0.72252978 -0.00538554 1.44505956 -0.01077108 2.18948418 -0.01631981 C4.61705968 -0.03065803 7.04409438 -0.02348148 9.47169495 -0.01637268 C11.20947205 -0.02207321 12.9472454 -0.02903623 14.68501282 -0.03717041 C19.4102134 -0.05515231 24.1352288 -0.05392399 28.86045337 -0.04822803 C32.80197115 -0.04514335 36.74345299 -0.05122059 40.68496567 -0.05726677 C49.98190698 -0.07132698 59.27875644 -0.06973835 68.57569885 -0.05836487 C78.17391236 -0.04688245 87.7718465 -0.060958 97.37002319 -0.08776134 C105.60449299 -0.10989738 113.83887497 -0.11656045 122.07337242 -0.11068493 C126.99419819 -0.10730908 131.91484486 -0.10977193 136.83564568 -0.12693596 C141.46255502 -0.14236964 146.08904963 -0.13848952 150.71594238 -0.11963081 C152.4155119 -0.11593495 154.11511189 -0.11908234 155.8146534 -0.1295166 C158.13228892 -0.14266082 160.44853811 -0.13123919 162.76611328 -0.11352539 C164.06378852 -0.11331611 165.36146376 -0.11310682 166.69846249 -0.1128912 C170.50019928 0.47300467 171.68935074 1.32530013 173.94654846 4.38768005 C174.50904846 7.32518005 174.50904846 7.32518005 173.94654846 10.38768005 C171.32197609 13.72772203 169.83530734 15.22084999 165.60944271 16.01409245 C164.32873677 16.01467875 163.04803083 16.01526506 161.72851562 16.01586914 C161.0124441 16.02296353 160.29637258 16.03005792 159.55860192 16.03736728 C157.16449991 16.05493853 154.77202339 16.03684898 152.37794495 16.01878357 C150.65957399 16.02392272 148.9412083 16.03120397 147.22285461 16.04046631 C142.55960931 16.05898777 137.89693542 16.04603769 133.23371387 16.02637601 C128.35486858 16.00999697 123.47605969 16.01880124 118.59719849 16.02389526 C110.40504318 16.02841662 102.21311618 16.01254268 94.02101135 15.98460388 C84.5465662 15.9525411 75.07253258 15.95257171 65.59805816 15.96981865 C56.48639156 15.98567486 47.374876 15.97895671 38.26321602 15.96188164 C34.38407947 15.95500477 30.50506376 15.95605007 26.62592888 15.96342659 C22.05969114 15.97108027 17.49392258 15.95899352 12.92776489 15.93157768 C11.25078283 15.9246835 9.57375703 15.92460694 7.8967762 15.93179321 C5.60985751 15.94046497 3.32439444 15.92457294 1.03759766 15.90234375 C-0.88289571 15.89813337 -0.88289571 15.89813337 -2.84218693 15.89383793 C-6.60166558 15.30127084 -7.78372492 14.38245356 -10.05345154 11.38768005 C-10.76227457 8.47983124 -10.39316943 6.44514105 -10.05345154 3.38768005 C-7.58573026 -0.523105 -4.30629788 0.00806588 0 0 Z " fill="#8E9DA9" transform="translate(300.05345153808594,358.61231994628906)"/>
<path d="M0 0 C0.71128241 -0.00694553 1.42256481 -0.01389106 2.15540123 -0.02104706 C4.53312122 -0.03930884 6.90984252 -0.02905579 9.28759766 -0.01878357 C10.99449408 -0.02584245 12.70138424 -0.03458734 14.40826416 -0.04489136 C19.04049001 -0.06739735 23.67237438 -0.06444303 28.30463409 -0.05556989 C32.17160806 -0.05046113 36.0385178 -0.05775155 39.90548515 -0.06504196 C49.02705369 -0.08204443 58.14845494 -0.07847116 67.27001953 -0.06175232 C76.68200466 -0.04482435 86.09352623 -0.060674 95.50546074 -0.0929752 C103.58628714 -0.11965799 111.66696912 -0.12695084 119.74783516 -0.11846012 C124.57424331 -0.11352783 129.40037241 -0.11576301 134.22674561 -0.13624763 C138.76431086 -0.15458461 143.30120827 -0.14867063 147.83873749 -0.12404823 C149.50402238 -0.11903428 151.16935798 -0.12254529 152.83460236 -0.13519669 C155.10827832 -0.15110423 157.37974876 -0.13620217 159.65332031 -0.11352539 C161.56136948 -0.11264593 161.56136948 -0.11264593 163.50796509 -0.1117487 C167.72027984 0.68333675 169.20796728 2.18656478 171.82666016 5.5146637 C172.38916016 8.5771637 172.38916016 8.5771637 171.82666016 11.5146637 C169.56946243 14.57704362 168.38031097 15.42933908 164.57857418 16.01523495 C162.63206132 16.01554887 162.63206132 16.01554887 160.64622498 16.01586914 C159.56009032 16.02417074 159.56009032 16.02417074 158.45201355 16.03264004 C156.02503323 16.04625653 153.59907955 16.03127289 151.17211914 16.01637268 C149.43257205 16.02015548 147.69302797 16.0256552 145.95349121 16.03274536 C141.22834293 16.04672136 136.5035579 16.03551566 131.77842975 16.01903415 C126.83772151 16.00519881 121.89703469 16.01164191 116.95631409 16.01516724 C108.65986262 16.01787031 100.36355574 16.00438455 92.06713867 15.98121643 C82.46834929 15.95459733 72.86980158 15.95286201 63.27098793 15.96460479 C54.04454476 15.97537423 44.81818921 15.96920264 35.59175301 15.95504951 C31.6615702 15.94928334 27.73145139 15.94937732 23.80126762 15.95411491 C19.17602812 15.95887823 14.55105414 15.94880994 9.92586517 15.92716026 C8.22588306 15.92158371 6.52587547 15.92113502 4.82589149 15.92611313 C2.51033439 15.93204476 0.19559499 15.91960272 -2.11988831 15.90234375 C-3.41718652 15.89991385 -4.71448473 15.89748396 -6.05109501 15.89498043 C-9.17333984 15.5146637 -9.17333984 15.5146637 -11.08293056 14.23652744 C-12.62247042 11.80544224 -12.63660271 9.37160424 -12.76708984 6.54981995 C-11.01542201 0.54574797 -5.40753083 0.01193248 0 0 Z " fill="#8F9EAA" transform="translate(302.17333984375,325.48533630371094)"/>
<path d="M0 0 C1.0717673 -0.00935994 1.0717673 -0.00935994 2.16518646 -0.01890898 C4.55984641 -0.03486624 6.95349227 -0.02222482 9.34815979 -0.00964355 C11.06475926 -0.01506354 12.78135408 -0.0221855 14.49794006 -0.03088379 C19.1612291 -0.04913625 23.82416459 -0.04204136 28.4874599 -0.02936745 C33.36584608 -0.01924809 38.24420176 -0.02863031 43.12258911 -0.03491211 C51.31648702 -0.04219231 59.51024079 -0.03259176 67.70411682 -0.0135498 C77.17794334 0.00821239 86.65142545 0.00117382 96.1252436 -0.02085543 C104.2569999 -0.03900747 112.38865251 -0.04156849 120.52042252 -0.03110075 C125.37809746 -0.02486381 130.23561053 -0.02403556 135.09327507 -0.0372467 C139.6611251 -0.04880147 144.22853124 -0.04078637 148.79633331 -0.01766968 C150.47290116 -0.01238027 152.14950635 -0.01390036 153.82605934 -0.02272034 C156.11484991 -0.03365099 158.40221806 -0.0199441 160.69091797 0 C161.97162391 0.0015081 163.25232985 0.0030162 164.57184505 0.00457001 C168.49542368 0.59639735 170.16907105 1.67889344 172.90895081 4.50793457 C173.62428133 8.24354953 173.27380955 9.89902762 171.31977844 13.160079 C168.07228817 16.32274315 166.26114549 16.1340823 161.77320862 16.13612366 C161.05390797 16.14321804 160.33460732 16.15031243 159.59350967 16.1576218 C157.18248865 16.17522866 154.77307412 16.15708523 152.36207581 16.13903809 C150.6340003 16.14417592 148.90593002 16.15145618 147.1778717 16.16072083 C142.48357806 16.17926045 137.78985122 16.16628021 133.09558105 16.14663053 C128.18603335 16.1302638 123.2765221 16.13905416 118.36695862 16.14414978 C110.12174916 16.14867295 101.87676639 16.13278705 93.63160706 16.1048584 C84.09526751 16.07280549 74.55933687 16.0728215 65.02296829 16.09007317 C55.85417293 16.1059298 46.68552767 16.09921026 37.51673889 16.08213615 C33.61248282 16.07525852 29.70834681 16.07630541 25.80409241 16.08368111 C21.20750043 16.09133496 16.61137452 16.07924742 12.01486206 16.0518322 C10.32659285 16.0449378 8.6382802 16.04486169 6.95001221 16.05204773 C4.64771675 16.06071908 2.34686735 16.04482794 0.04469299 16.02259827 C-1.24430908 16.01979135 -2.53331116 16.01698442 -3.8613739 16.01409245 C-7.09104919 15.50793457 -7.09104919 15.50793457 -9.50578308 13.69451809 C-11.82255622 10.49895494 -11.64043832 8.35365843 -11.09104919 4.50793457 C-7.90936118 0.1262568 -5.24437402 0.00617736 0 0 Z " fill="#8D9CA8" transform="translate(301.09104919433594,390.4920654296875)"/>
<path d="M0 0 C1.0717673 -0.00935994 1.0717673 -0.00935994 2.16518646 -0.01890898 C4.55984641 -0.03486624 6.95349227 -0.02222482 9.34815979 -0.00964355 C11.06475926 -0.01506354 12.78135408 -0.0221855 14.49794006 -0.03088379 C19.1612291 -0.04913625 23.82416459 -0.04204136 28.4874599 -0.02936745 C33.36584608 -0.01924809 38.24420176 -0.02863031 43.12258911 -0.03491211 C51.31648702 -0.04219231 59.51024079 -0.03259176 67.70411682 -0.0135498 C77.17794334 0.00821239 86.65142545 0.00117382 96.1252436 -0.02085543 C104.2569999 -0.03900747 112.38865251 -0.04156849 120.52042252 -0.03110075 C125.37809746 -0.02486381 130.23561053 -0.02403556 135.09327507 -0.0372467 C139.6611251 -0.04880147 144.22853124 -0.04078637 148.79633331 -0.01766968 C150.47290116 -0.01238027 152.14950635 -0.01390036 153.82605934 -0.02272034 C156.11484991 -0.03365099 158.40221806 -0.0199441 160.69091797 0 C161.97162391 0.0015081 163.25232985 0.0030162 164.57184505 0.00457001 C168.49596729 0.59647935 170.1663467 1.68137845 172.90895081 4.50793457 C173.53395081 7.44543457 173.53395081 7.44543457 172.90895081 10.50793457 C170.28140994 13.84549842 168.7979134 15.34106626 164.57184505 16.13434696 C163.29113912 16.13493327 162.01043318 16.13551958 160.69091797 16.13612366 C159.97484644 16.14321804 159.25877492 16.15031243 158.52100426 16.1576218 C156.12690226 16.17519305 153.73442574 16.1571035 151.34034729 16.13903809 C149.62197633 16.14417724 147.90361064 16.15145849 146.18525696 16.16072083 C141.52201165 16.17924229 136.85933776 16.1662922 132.19611621 16.14663053 C127.31727092 16.13025148 122.43846203 16.13905576 117.55960083 16.14414978 C109.36744553 16.14867114 101.17551852 16.1327972 92.9834137 16.1048584 C83.50896854 16.07279562 74.03493492 16.07282623 64.56046051 16.09007317 C55.44879391 16.10592938 46.33727834 16.09921123 37.22561836 16.08213615 C33.34648181 16.07525929 29.4674661 16.07630458 25.58833122 16.08368111 C21.02209349 16.09133478 16.45632492 16.07924803 11.89016724 16.0518322 C10.21318517 16.04493801 8.53615938 16.04486146 6.85917854 16.05204773 C4.57225986 16.06071948 2.28679678 16.04482746 0 16.02259827 C-1.92049337 16.01838789 -1.92049337 16.01838789 -3.87978458 16.01409245 C-7.09104919 15.50793457 -7.09104919 15.50793457 -9.50298977 13.69451809 C-11.82346424 10.49947944 -11.64065808 8.35519679 -11.09104919 4.50793457 C-7.90936118 0.1262568 -5.24437402 0.00617736 0 0 Z " fill="#8D9CA8" transform="translate(301.09104919433594,293.4920654296875)"/>
<path d="M0 0 C0.72252978 -0.00538554 1.44505956 -0.01077108 2.18948418 -0.01631981 C4.61705968 -0.03065803 7.04409438 -0.02348148 9.47169495 -0.01637268 C11.20947205 -0.02207321 12.9472454 -0.02903623 14.68501282 -0.03717041 C19.4102134 -0.05515231 24.1352288 -0.05392399 28.86045337 -0.04822803 C32.80197115 -0.04514335 36.74345299 -0.05122059 40.68496567 -0.05726677 C49.98190698 -0.07132698 59.27875644 -0.06973835 68.57569885 -0.05836487 C78.17391236 -0.04688245 87.7718465 -0.060958 97.37002319 -0.08776134 C105.60449299 -0.10989738 113.83887497 -0.11656045 122.07337242 -0.11068493 C126.99419819 -0.10730908 131.91484486 -0.10977193 136.83564568 -0.12693596 C141.46255502 -0.14236964 146.08904963 -0.13848952 150.71594238 -0.11963081 C152.4155119 -0.11593495 154.11511189 -0.11908234 155.8146534 -0.1295166 C158.13228892 -0.14266082 160.44853811 -0.13123919 162.76611328 -0.11352539 C164.06378852 -0.11331611 165.36146376 -0.11310682 166.69846249 -0.1128912 C170.50019928 0.47300467 171.68935074 1.32530013 173.94654846 4.38768005 C174.50904846 7.32518005 174.50904846 7.32518005 173.94654846 10.38768005 C171.32785558 13.71577897 169.84016815 15.219007 165.62785339 16.01409245 C164.35582062 16.01467875 163.08378784 16.01526506 161.77320862 16.01586914 C161.06192621 16.02296353 160.35064381 16.03005792 159.61780739 16.03736728 C157.23985509 16.05493761 154.86353953 16.03684945 152.48561096 16.01878357 C150.77871456 16.02392281 149.07182346 16.03120412 147.36494446 16.04046631 C142.73262144 16.05898811 138.10087364 16.04603692 133.46857452 16.02637601 C128.62089362 16.0099946 123.77324929 16.0188017 118.92555237 16.02389526 C110.7846711 16.02841679 102.64401956 16.01254273 94.50318909 15.98460388 C85.09124705 15.95255171 75.67971934 15.95256752 66.26774788 15.96981865 C57.21374949 15.98568239 48.159903 15.97895116 39.10591125 15.96188164 C35.25272071 15.95500901 31.39965185 15.95604577 27.54646301 15.96342659 C23.00894841 15.97108771 18.47190533 15.95896907 13.93447113 15.93157768 C12.26919708 15.92469093 10.60387901 15.92459901 8.93860626 15.93179321 C6.66517407 15.94048302 4.39319869 15.92454216 2.11988831 15.90234375 C0.21183914 15.89813337 0.21183914 15.89813337 -1.73475647 15.89383793 C-5.62835786 15.29999699 -7.29808868 14.15129426 -10.05345154 11.38768005 C-10.91262609 8.44274623 -10.45201363 6.52635656 -10.05345154 3.38768005 C-7.57858426 -0.52037935 -4.31108518 0.00807485 0 0 Z " fill="#8E9DA9" transform="translate(300.05345153808594,261.61231994628906)"/>
<path d="M0 0 C1.03647675 -0.00554901 2.07295349 -0.01109802 3.14083862 -0.01681519 C6.55847761 -0.02860238 9.97478821 -0.00434574 13.39233398 0.02148438 C15.77074625 0.02319565 18.14916041 0.02312963 20.52757263 0.0213623 C25.50831179 0.02301499 30.48860056 0.04170576 35.46923828 0.07324219 C41.85396895 0.11294063 48.23811034 0.11728448 54.62294102 0.10977936 C59.53258158 0.10671032 64.44208962 0.11882758 69.35169792 0.13591003 C71.70602525 0.14294139 74.0603676 0.1460644 76.41470528 0.1452179 C79.70382989 0.14701513 82.99224758 0.16839099 86.28125 0.1953125 C87.25437637 0.1923819 88.22750275 0.18945129 89.2301178 0.18643188 C94.12638648 0.24828007 97.64497978 0.34042896 101.57592773 3.61523438 C102.99634594 6.45607079 102.89045046 8.47000715 102.57592773 11.61523438 C100.70882863 13.91798994 99.21945032 15.29347308 96.57592773 16.61523438 C95.15561104 16.71540129 93.73075363 16.75461169 92.30693054 16.7624054 C91.41109253 16.7695607 90.51525452 16.776716 89.5922699 16.78408813 C88.60678665 16.78677704 87.62130341 16.78946594 86.60595703 16.79223633 C85.57006439 16.79880753 84.53417175 16.80537872 83.46688843 16.81214905 C80.02797377 16.83191119 76.58910283 16.84355068 73.15014648 16.85351562 C71.97773722 16.85759115 70.80532795 16.86166668 69.59739113 16.86586571 C63.3930542 16.88673811 57.18873947 16.90103522 50.984375 16.91040039 C44.56814818 16.92147196 38.15226748 16.95587753 31.73616314 16.99557209 C26.80940597 17.02168587 21.88273194 17.03008755 16.95591164 17.03368187 C14.5903877 17.03856076 12.2248678 17.05021151 9.85941124 17.06871986 C6.55068711 17.09300096 3.2428675 17.09216619 -0.06591797 17.08520508 C-1.04532852 17.09801514 -2.02473907 17.1108252 -3.03382874 17.12402344 C-7.29700611 17.09128783 -9.766621 17.0034219 -13.49723816 14.80070496 C-16.23404333 11.69654194 -16.64062379 9.7297133 -16.42407227 5.61523438 C-11.49133797 0.00537683 -7.20059946 -0.09834528 0 0 Z " fill="#92A1AC" transform="translate(371.424072265625,422.384765625)"/>
<path d="M0 0 C17.49 0 34.98 0 53 0 C53 25 53 25 49 31 C44.66328544 34.60647869 41.69536246 35.50487776 36.09765625 35.49609375 C34.14375977 35.49706055 34.14375977 35.49706055 32.15039062 35.49804688 C31.14262573 35.48245728 31.14262573 35.48245728 30.11450195 35.46655273 C28.07094794 35.43761961 26.02999886 35.44595484 23.98632812 35.45898438 C16.0058486 35.40770102 9.98046936 35.33498784 3.6875 30.0625 C-3.85500816 20.84387892 0 14.47893066 0 0 Z " fill="#8D9CA8" transform="translate(359,163)"/>
<path d="M0 0 C0.33 0 0.66 0 1 0 C1.12445087 5.79826198 1.21473829 11.59573097 1.2746582 17.39501953 C1.29966047 19.36390747 1.333674 21.33270393 1.37719727 23.30126953 C1.86039818 45.73316142 1.86039818 45.73316142 -5.7565918 53.87841797 C-10.8781944 58.81227741 -16.70396085 61.34233357 -23.82444763 61.33988953 C-24.85300621 61.31666374 -24.85300621 61.31666374 -25.90234375 61.29296875 C-26.6249086 61.28872391 -27.34747345 61.28447906 -28.0919342 61.28010559 C-30.37418693 61.26346418 -32.65551933 61.22584248 -34.9375 61.1875 C-36.49542985 61.17243423 -38.0533737 61.15874916 -39.61132812 61.14648438 C-43.40790057 61.11360882 -47.20379487 61.0619309 -51 61 C-48.63712789 59.42475193 -46.7491068 58.45623048 -44.1875 57.375 C-38.53989308 54.58759916 -35.33301847 50.09186229 -32.875 44.390625 C-31.69107377 39.80291086 -31.53661788 35.345589 -31.375 30.625 C-31.33632813 29.69816406 -31.29765625 28.77132813 -31.2578125 27.81640625 C-31.16412409 25.5444623 -31.07840652 23.27251404 -31 21 C-30.32195312 20.97421875 -29.64390625 20.9484375 -28.9453125 20.921875 C-20.07762392 20.38146185 -12.33975356 18.94836911 -6.0625 12.25 C-3.00208372 8.41004373 -1.4202393 4.67843533 0 0 Z " fill="#5066D0" transform="translate(506,451)"/>
<path d="M0 0 C7.45329102 2.24796416 13.95431833 5.07909632 20 10 C20.92619141 9.29423828 20.92619141 9.29423828 21.87109375 8.57421875 C29.39859118 3.04030511 36.41002639 -0.79617437 45.9765625 -0.41015625 C48 0 48 0 51.125 2.0625 C53 5 53 5 53.125 8.5625 C51.7589921 12.73641303 50.85307852 13.9129158 47 16 C44.73735111 16.34168915 42.49265642 16.50510485 40.2109375 16.671875 C35.63132305 17.3515351 32.80104965 20.10740182 29.8125 23.4375 C27.96373598 25.97075859 27.96373598 25.97075859 26.4375 28.6875 C25 31 25 31 22 33 C18.6875 33.1875 18.6875 33.1875 15 32 C12.63347027 29.21848639 10.86525065 26.13075994 9 23 C5.75209709 18.88598965 1.95325613 17.36098813 -3 16 C-4.85625 15.814375 -4.85625 15.814375 -6.75 15.625 C-10 15 -10 15 -12.5 12.8125 C-14 10 -14 10 -14.0625 6.9375 C-11.64857303 0.26370192 -6.59870656 -1.22471994 0 0 Z " fill="#F9639F" transform="translate(109,346)"/>
<path d="M0 0 C1.86730019 -0.01891296 1.86730019 -0.01891296 3.77232361 -0.03820801 C5.12759976 -0.03104737 6.48287073 -0.02284317 7.83813477 -0.01367188 C9.23291799 -0.01636785 10.62769939 -0.02025115 12.0224762 -0.02526855 C14.94371458 -0.03116076 17.86446317 -0.02261179 20.78564453 -0.00390625 C24.5228582 0.01886304 28.2589215 0.00577293 31.9960928 -0.01819611 C34.87613015 -0.0326803 37.75589676 -0.02803596 40.63594246 -0.01768494 C42.01339925 -0.01502374 43.39088092 -0.01826607 44.76830864 -0.02760315 C46.69709655 -0.03780743 48.62597103 -0.01948568 50.5546875 0 C51.65070786 0.00318237 52.74672821 0.00636475 53.8759613 0.00964355 C57.56181946 0.64083859 59.24257281 1.8644693 61.84204102 4.51757812 C62.40454102 8.01757812 62.40454102 8.01757812 61.84204102 11.51757812 C59.68081501 14.40576069 58.50369448 15.4043371 54.91355896 16.01878357 C53.20837852 16.01903282 53.20837852 16.01903282 51.46875 16.01928711 C49.53170448 16.03335854 49.53170448 16.03335854 47.55552673 16.04771423 C46.14972266 16.03723702 44.74392498 16.02586816 43.33813477 16.01367188 C41.89372179 16.01382688 40.4493084 16.01531609 39.00489807 16.01808167 C35.98110518 16.01946495 32.95778703 16.00691876 29.93408203 15.98413086 C26.05782158 15.95572029 22.18234827 15.95849103 18.30602932 15.97122097 C15.32486747 15.97817418 12.3438877 15.97039354 9.3627491 15.95796394 C7.93340821 15.9534477 6.50404779 15.95311417 5.07470512 15.95702934 C3.0784165 15.95993834 1.08213148 15.94128607 -0.9140625 15.92163086 C-2.05005386 15.91622787 -3.18604523 15.91082489 -4.35646057 15.90525818 C-7.15795898 15.51757812 -7.15795898 15.51757812 -9.02085876 14.23841858 C-10.62745493 11.80706238 -10.57162729 9.40465468 -10.65405273 6.55273438 C-9.28721091 0.94545411 -5.17727113 0.01504349 0 0 Z " fill="#8E9DA9" transform="translate(360.157958984375,228.482421875)"/>
<path d="M0 0 C12.36115802 3.70834741 20.87589785 8.26513157 27.5078125 19.5703125 C30.99762049 26.56987023 31.22174755 30.43922304 32 39 C21.44 39 10.88 39 0 39 C0 26.13 0 13.26 0 0 Z " fill="#4F66D0" transform="translate(224,473)"/>
<path d="M0 0 C8.25 0 16.5 0 25 0 C25.0825 4.00125 25.165 8.0025 25.25 12.125 C25.28641602 13.37555176 25.32283203 14.62610352 25.36035156 15.91455078 C25.42376604 22.26315779 25.34668213 26.21864966 21 31 C20.34 31.66 19.68 32.32 19 33 C26.92 33.33 34.84 33.66 43 34 C43 34.33 43 34.66 43 35 C38.85574912 35.07465394 34.71186376 35.12883721 30.56713867 35.16479492 C29.15984266 35.17979877 27.75259276 35.20020863 26.34545898 35.22631836 C24.31222093 35.26307665 22.27960568 35.27980984 20.24609375 35.29296875 C19.02591553 35.3086792 17.8057373 35.32438965 16.54858398 35.34057617 C11.49960714 34.85599945 7.63014419 33.36579648 3.6875 30.0625 C0.50839483 26.17692702 -0.24873571 23.3811566 -0.1953125 18.359375 C-0.18781982 16.91256348 -0.18781982 16.91256348 -0.18017578 15.43652344 C-0.16196777 14.2199707 -0.14375977 13.00341797 -0.125 11.75 C-0.08375 7.8725 -0.0425 3.995 0 0 Z " fill="#AEBCC5" transform="translate(359,163)"/>
<path d="M0 0 C1.10004112 -0.00929787 1.10004112 -0.00929787 2.2223053 -0.01878357 C3.76790037 -0.02586304 5.313572 -0.02274036 6.85913086 -0.01000977 C9.21286665 0.00384861 11.56261576 -0.03022273 13.91601562 -0.06835938 C15.42317805 -0.06931081 16.93034541 -0.06745044 18.4375 -0.0625 C19.48308327 -0.08238731 19.48308327 -0.08238731 20.54978943 -0.10267639 C24.33417215 -0.03125779 26.81314043 0.60192071 29.76391602 2.88305664 C32.28515625 5.56640625 32.28515625 5.56640625 32.47265625 9.12890625 C31.0515429 13.24265543 29.94448717 14.27993841 26.28515625 16.56640625 C23.56096512 16.95705054 21.25187242 17.1289814 18.53515625 17.09765625 C17.43155762 17.10339661 17.43155762 17.10339661 16.30566406 17.10925293 C14.75584539 17.11196528 13.20598041 17.10465144 11.65625 17.08789062 C9.29192482 17.06646758 6.93063759 17.08771136 4.56640625 17.11328125 C3.05598292 17.11063785 1.54556146 17.10551261 0.03515625 17.09765625 C-0.66706055 17.10575317 -1.36927734 17.1138501 -2.09277344 17.12219238 C-6.88466487 17.0312255 -9.36008151 15.97770495 -12.71484375 12.56640625 C-13.37890625 10.56640625 -13.37890625 10.56640625 -13.33984375 8.56640625 C-13.35273438 7.90640625 -13.365625 7.24640625 -13.37890625 6.56640625 C-11.35495286 0.47073488 -5.58225699 -0.0396053 0 0 Z " fill="#92A0AC" transform="translate(302.71484375,422.43359375)"/>
<path d="M0 0 C1.875 2.9375 1.875 2.9375 2 6.5 C0.6339921 10.67391303 -0.27192148 11.8504158 -4.125 13.9375 C-6.38764889 14.27918915 -8.63234358 14.44260485 -10.9140625 14.609375 C-15.49367695 15.2890351 -18.32395035 18.04490182 -21.3125 21.375 C-23.17160176 23.89093227 -23.17160176 23.89093227 -24.5625 26.625 C-26.4618696 29.43606701 -27.99604197 29.82328568 -31.125 30.9375 C-32.74872702 10.47104543 -32.74872702 10.47104543 -29.21484375 4.95703125 C-26.56450619 3.10138533 -24.18317739 1.97830827 -21.125 0.9375 C-20.34898437 0.59332031 -19.57296875 0.24914062 -18.7734375 -0.10546875 C-12.44379188 -2.66640311 -5.88273297 -3.88260376 0 0 Z " fill="#F9458F" transform="translate(160.125,348.0625)"/>
<path d="M0 0 C2.4375 1.5625 2.4375 1.5625 4 4 C4.74873573 7.539478 4.79274367 9.78175813 2.77734375 12.87890625 C0.94185759 15.02681559 -0.99314048 17.01086892 -3 19 C-3.85335938 19.87785156 -4.70671875 20.75570312 -5.5859375 21.66015625 C-14.57221853 30.81773002 -14.57221853 30.81773002 -18.9375 31.375 C-22 31 -22 31 -24.3125 29.375 C-26.51656004 26.27298957 -27.22186521 24.84566357 -27 21 C-25.10750465 17.92557446 -22.54026031 15.54434433 -20 13 C-18.95826325 11.86834135 -17.91940475 10.73402911 -16.8828125 9.59765625 C-15.75672787 8.39701052 -14.6291146 7.19779672 -13.5 6 C-12.70021729 5.1171936 -12.70021729 5.1171936 -11.88427734 4.21655273 C-8.06589671 0.27663059 -5.70510628 -0.83070741 0 0 Z " fill="#FEE178" transform="translate(397,89)"/>
<path d="M0 0 C5.16811148 1.80795709 8.239629 4.25138975 11 9 C11.39360362 14.41204981 9.24882693 17.92857437 5.9375 21.99609375 C1.36041777 26.73005178 -3.19351365 30.86635779 -9.9375 31.1875 C-13.3160863 29.87743592 -14.49378149 29.2782403 -16 26 C-16.390625 23.15234375 -16.390625 23.15234375 -16 20 C-13.76953125 17.578125 -13.76953125 17.578125 -10.8125 15.25 C-5.46920529 10.71921659 -2.50491831 6.50448402 0 0 Z " fill="#F9458F" transform="translate(203,296)"/>
<path d="M0 0 C2.3125 1.0625 2.3125 1.0625 4 3 C5.28771001 7.18505752 5.31377559 9.27695191 3.5625 13.3125 C-4.51770658 25.75885329 -4.51770658 25.75885329 -9 28 C-13.05263598 28.54035146 -14.53730231 28.34199395 -17.875 25.875 C-20.44061626 22.40387212 -20.51580996 21.2286203 -20 17 C-18.68538135 14.58843376 -17.42366149 12.5606644 -15.8125 10.375 C-15.42513672 9.81554688 -15.03777344 9.25609375 -14.63867188 8.6796875 C-10.67351083 3.12190806 -7.18727719 -1.07044554 0 0 Z " fill="#FCEBA3" transform="translate(446,18)"/>
<path d="M0 0 C2.72786909 1.36393455 2.88838283 2.83910192 4.0625 5.625 C6.50668976 10.74825661 9.48123657 13.43740797 14.109375 16.625 C16 18 16 18 17 20 C17.375 23.375 17.375 23.375 17 27 C14.9375 29.5 14.9375 29.5 12 31 C6.20693426 30.80281818 3.46210951 29.27268368 -0.6875 25.3125 C-1.59886719 24.46300781 -2.51023437 23.61351562 -3.44921875 22.73828125 C-9.8830978 15.83146775 -9.8830978 15.83146775 -10.1875 11.0625 C-8.34227877 6.30377155 -4.60291715 2.30145858 0 0 Z " fill="#F9639F" transform="translate(53,296)"/>
<path d="M0 0 C1.20140625 0.40863281 2.4028125 0.81726563 3.640625 1.23828125 C6.82965526 2.72462575 8.07588414 3.64579653 9.75 6.6875 C10.43234041 10.6962499 10.0658333 12.20865596 7.8125 15.625 C4.11783937 18.11324083 2.61202156 18.09228068 -1.640625 17.3359375 C-16.21322755 13.71460213 -16.21322755 13.71460213 -20.25 8.6875 C-20.71918683 4.93400538 -20.78136381 2.64901547 -18.9375 -0.6875 C-13.73940234 -5.69307553 -5.91773157 -2.06864426 0 0 Z " fill="#FFE176" transform="translate(306.25,69.3125)"/>
<path d="M0 0 C6.82242924 1.27920548 10.54409619 7.45319704 14.31640625 12.80859375 C16.51789515 16.40963708 17.2522009 18.35915166 17 22.5625 C15.65437601 25.51005732 14.91445456 27.10527272 12 28.5625 C8.20265904 29.08031922 6.42574493 28.82164909 3.125 26.8125 C-1.92927426 22.12116565 -7.57859304 15.313938 -8.359375 8.36328125 C-8 5.5625 -8 5.5625 -5.875 2.6875 C-3 0.5625 -3 0.5625 0 0 Z " fill="#FCEBA4" transform="translate(329,17.4375)"/>
<path d="M0 0 C2.63816708 0.69526695 5.2162875 1.42518916 7.8125 2.25 C8.47096924 2.45423584 9.12943848 2.65847168 9.80786133 2.86889648 C13.68550307 4.18935836 16.03285557 5.34267371 18 9 C18.5 11.9375 18.5 11.9375 18 15 C15.9375 17.875 15.9375 17.875 13 20 C7.69527396 20.45339539 3.22718309 19.45560783 -1.75 17.75 C-2.40871094 17.54503906 -3.06742187 17.34007812 -3.74609375 17.12890625 C-7.64705594 15.82331039 -10.05810381 14.70019492 -12 11 C-12.48505011 7.11959911 -12.56851618 4.9238388 -10.5 1.5625 C-6.86149906 -0.71156309 -4.09617337 -0.71317304 0 0 Z " fill="#FCEBA4" transform="translate(468,122)"/>
<path d="M0 0 C2.625 2.0625 2.625 2.0625 4 5 C3.94249218 8.33545352 3.88474785 10.80316644 1.859375 13.54296875 C-3.4486488 17.70240756 -11.90861664 20.2323942 -18.625 20.5625 C-22 20 -22 20 -24.5 18.4375 C-26.61006839 15.00863886 -26.62491523 12.95779649 -26 9 C-21.24872774 1.70340332 -8.43159426 -2.02785178 0 0 Z " fill="#FCEBA3" transform="translate(312,122)"/>
<path d="M0 0 C1.88527177 2.9767449 2.12721156 5.37827038 2.1875 8.875 C-0.66530025 13.61514901 -4.07455486 15.15260997 -9.1875 16.6875 C-9.83460938 16.90341797 -10.48171875 17.11933594 -11.1484375 17.34179688 C-15.1304901 18.60625914 -18.64434822 19.28458717 -22.8125 18.875 C-26.48150829 16.24288535 -27.65259531 14.78645674 -28.4375 10.3125 C-27.8125 6.875 -27.8125 6.875 -25.73828125 4.8359375 C-22.43331519 2.62086011 -19.12866156 1.27879113 -15.375 0.0625 C-14.73240234 -0.16630859 -14.08980469 -0.39511719 -13.42773438 -0.63085938 C-8.62841557 -2.22413577 -4.43911308 -2.75531157 0 0 Z " fill="#FFE176" transform="translate(483.8125,68.125)"/>
<path d="M0 0 C0.66 -0.02191406 1.32 -0.04382812 2 -0.06640625 C5.32931159 0.98050618 6.2696705 2.56098545 8 5.5625 C8.57522358 8.90969337 8.55893517 12.17372759 8.5 15.5625 C8.51546875 16.45195312 8.5309375 17.34140625 8.546875 18.2578125 C8.5218185 22.45477553 8.34690078 24.96074887 6.21875 28.65234375 C3.88081593 30.66510741 3.02895659 31.22557082 0 31.125 C-0.66 31.12628906 -1.32 31.12757812 -2 31.12890625 C-5.16450092 30.2327097 -6.141328 29.33012782 -8 26.5625 C-8.59858204 22.88808566 -8.5575974 19.27753247 -8.5 15.5625 C-8.51546875 14.56476562 -8.5309375 13.56703125 -8.546875 12.5390625 C-8.50816245 5.31917172 -8.50816245 5.31917172 -6.21875 1.91015625 C-3.91674754 0.51193292 -2.67214337 -0.00521903 0 0 Z " fill="#FFE176" transform="translate(386,-0.5625)"/>
</svg>
