<?xml version="1.0" encoding="UTF-8"?>
<svg version="1.1" xmlns="http://www.w3.org/2000/svg" width="512" height="512">
<path d="M0 0 C1.49018141 -0.00175502 2.98036158 -0.00527242 4.47053528 -0.01037598 C8.52828532 -0.01925837 12.58560529 -0.00341872 16.64330082 0.01672715 C21.10014715 0.0343165 25.55697672 0.02834068 30.0138483 0.02545547 C38.64760432 0.02333719 47.28119261 0.04172461 55.91490564 0.06746079 C65.91102444 0.09636091 75.90704377 0.09944524 85.9032135 0.1026001 C112.27038672 0.12356634 138.63752288 0.17941116 165.00465393 0.23101807 C223.93027893 0.31351807 282.85590393 0.39601807 343.56715393 0.48101807 C343.56715393 139.74101807 343.56715393 279.00101807 343.56715393 422.48101807 C333.66715393 422.48101807 323.76715393 422.48101807 313.56715393 422.48101807 C313.56715393 441.95101807 313.56715393 461.42101807 313.56715393 481.48101807 C323.46715393 481.48101807 333.36715393 481.48101807 343.56715393 481.48101807 C343.56715393 491.71101807 343.56715393 501.94101807 343.56715393 512.48101807 C296.27045762 512.57147907 248.9737821 512.64307571 201.6770164 512.68527938 C196.09083488 512.6902821 190.50465354 512.6954594 184.91847229 512.70074463 C183.25033838 512.70231849 183.25033838 512.70231849 181.54850479 512.70392415 C163.55121704 512.72132051 145.55398049 512.75285399 127.5567231 512.78962925 C109.08435081 512.82706002 90.6120053 512.84925844 72.13959664 512.85737205 C60.74482418 512.86285537 49.35019646 512.88016243 37.95546856 512.91268393 C30.13740959 512.93385817 22.31942526 512.94021151 14.50133971 512.93502358 C9.99341182 512.93246634 5.48573654 512.93633481 0.97785378 512.95783997 C-3.15618802 512.97741685 -7.28980918 512.97821653 -11.42387102 512.96461365 C-12.91266088 512.96293438 -14.40147783 512.96791396 -15.890215 512.9805508 C-34.07168856 513.12579922 -48.9220084 507.43681278 -62.18284607 494.85601807 C-75.36229922 480.94437307 -78.7402977 465.02424669 -78.70027161 446.51702881 C-78.70401064 444.87985478 -78.70861317 443.24268253 -78.71400225 441.6055131 C-78.72621687 437.11663078 -78.72597358 432.62782308 -78.7236135 428.13892794 C-78.72320493 423.29344317 -78.73424846 418.44798219 -78.74372864 413.60250854 C-78.76033233 404.1118783 -78.76583794 394.62127291 -78.76695339 385.13062936 C-78.76790438 377.41260857 -78.77201723 369.69459596 -78.77835464 361.97657776 C-78.7959671 340.08055309 -78.80519377 318.18454802 -78.8036937 296.28851622 C-78.80357383 294.51837007 -78.80357383 294.51837007 -78.80345154 292.71246338 C-78.80336978 291.53091968 -78.80328802 290.34937598 -78.80320378 289.13202792 C-78.80239138 269.99592687 -78.82151728 250.85990462 -78.84972827 231.72382635 C-78.87848588 212.06127444 -78.89226691 192.39876092 -78.89054072 172.73618746 C-78.8898777 161.70280918 -78.89533099 150.66951347 -78.91689682 139.63615417 C-78.9351467 130.23918536 -78.9394249 120.84233652 -78.92587797 111.44535762 C-78.91936689 106.6555056 -78.91916348 101.86588349 -78.93658447 97.07605362 C-78.95240344 92.68125794 -78.94936237 88.28687276 -78.93201621 83.89208657 C-78.92896555 82.31196885 -78.93250472 80.73181981 -78.94373636 79.15173906 C-79.03478129 65.4213061 -77.20015085 51.9031787 -70.37034607 39.73101807 C-69.79498108 38.67926392 -69.79498108 38.67926392 -69.20799255 37.60626221 C-59.27928255 20.22158554 -42.75563803 7.93050193 -23.63641262 2.40854263 C-15.75165116 0.26704506 -8.15674196 -0.07237062 0 0 Z " fill="#47A4FC" transform="translate(123.43284606933594,-0.48101806640625)"/>
<path d="M0 0 C79.2 0 158.4 0 240 0 C240 49.5 240 99 240 150 C233.99999463 146.66666368 228.42563004 143.36886515 222.859375 139.4453125 C221.36242907 138.40820448 219.86501991 137.37176482 218.3671875 136.3359375 C216.04296559 134.72290971 213.72229282 133.10548823 211.40917969 131.4765625 C209.15172919 129.88998947 206.88194612 128.32261987 204.609375 126.7578125 C203.91970642 126.26523956 203.23003784 125.77266663 202.51947021 125.26516724 C201.86819153 124.82075287 201.21691284 124.3763385 200.54589844 123.91845703 C199.98014099 123.52272491 199.41438354 123.1269928 198.83148193 122.7192688 C196.21237675 121.69068063 194.66085116 122.18268929 192 123 C189.8428542 124.11521426 189.8428542 124.11521426 187.77636719 125.57617188 C186.97914246 126.11342896 186.18191772 126.65068604 185.36053467 127.20422363 C184.51452698 127.78651733 183.66851929 128.36881104 182.796875 128.96875 C181.91847961 129.56425659 181.04008423 130.15976318 180.1350708 130.77331543 C177.33479858 132.67462336 174.5424734 134.58726142 171.75 136.5 C169.85465779 137.78848315 167.95882986 139.07625212 166.0625 140.36328125 C162.60747248 142.71259839 159.15342234 145.06328173 155.70605469 147.42382812 C155.01276062 147.89824341 154.31946655 148.37265869 153.60516357 148.8614502 C152.03967498 149.90443861 152.03967498 149.90443861 151 151 C150.89197843 152.55578596 150.85316475 154.11642858 150.84178162 155.67591858 C150.8319928 156.68699173 150.82220398 157.69806488 150.81211853 158.73977661 C150.80636307 159.85826996 150.8006076 160.97676331 150.79467773 162.12915039 C150.78477814 163.29972488 150.77487854 164.47029938 150.76467896 165.67634583 C150.73842945 168.89517929 150.71659298 172.11400725 150.69667697 175.33288503 C150.67485429 178.69350344 150.64744747 182.05407607 150.62062073 185.41465759 C150.5706434 191.7823902 150.52572335 198.15014815 150.48259836 204.51793045 C150.42843355 212.47618052 150.36755724 220.43437736 150.30664062 228.39257812 C150.19795687 242.59501127 150.09946623 256.79749267 150 271 C184.98 271 219.96 271 256 271 C256 280.9 256 290.8 256 301 C221.02 301 186.04 301 150 301 C150 310.9 150 320.8 150 331 C184.98 331 219.96 331 256 331 C256 341.23 256 351.46 256 362 C221.02 362 186.04 362 150 362 C150 371.9 150 381.8 150 392 C100.5 392 51 392 0 392 C0 262.64 0 133.28 0 0 Z " fill="#77D7FD" transform="translate(136,0)"/>
<path d="M0 0 C30.03 0 60.06 0 91 0 C91 139.26 91 278.52 91 422 C56.5353858 422 56.5353858 422 43.73291016 421.90820312 C42.24081986 421.89826526 40.74872898 421.88841658 39.25663757 421.87864685 C35.32671494 421.85267626 31.39680152 421.82550945 27.4668889 421.79807091 C23.31503824 421.7693053 19.16317971 421.74171863 15.01132202 421.71398926 C7.20309472 421.66166963 -0.60512532 421.60834039 -8.41334307 421.5546174 C-17.32559296 421.49334982 -26.23785064 421.43325498 -35.15010905 421.37324238 C-53.43341486 421.2501024 -71.71670946 421.1253879 -90 421 C-90 401.53 -90 382.06 -90 362 C-55.02 362 -20.04 362 16 362 C16 351.77 16 341.54 16 331 C-18.98 331 -53.96 331 -90 331 C-90 321.1 -90 311.2 -90 301 C-55.02 301 -20.04 301 16 301 C16 291.1 16 281.2 16 271 C-18.98 271 -53.96 271 -90 271 C-90.36147302 241.29227328 -90.36147302 241.29227328 -90.45228481 226.6111002 C-90.50214702 218.67277615 -90.56543179 210.73530377 -90.67895508 202.79760742 C-90.76879907 196.51259019 -90.82675559 190.22821565 -90.84679645 183.94257408 C-90.85850886 180.61534105 -90.89067947 177.29036998 -90.95157051 173.96362114 C-91.01693094 170.24474055 -91.02590123 166.52966539 -91.02172852 162.81030273 C-91.054086 161.71338104 -91.08644348 160.61645935 -91.11978149 159.48629761 C-91.03095209 152.16768767 -91.03095209 152.16768767 -88.07432842 148.81892586 C-85.79111116 147.01879949 -83.49254395 145.49263203 -81 144 C-79.60434292 143.03361753 -78.21306404 142.06083849 -76.82885742 141.078125 C-75.42394773 140.13112027 -74.01607076 139.18850476 -72.60546875 138.25 C-71.8508284 137.74702393 -71.09618805 137.24404785 -70.31867981 136.72583008 C-68.74290348 135.6785582 -67.16571754 134.63340433 -65.5871582 133.59033203 C-63.16804563 131.98710696 -60.76100125 130.36670926 -58.35351562 128.74609375 C-56.81321367 127.72548461 -55.27222259 126.70591456 -53.73046875 125.6875 C-52.65541328 124.95805176 -52.65541328 124.95805176 -51.55863953 124.21386719 C-49.52416992 122.88671875 -49.52416992 122.88671875 -46 121 C-28.86081583 125.28479604 -15.75468528 139.28349994 -1 149 C-0.67 99.83 -0.34 50.66 0 0 Z " fill="#46A4FC" transform="translate(376,0)"/>
<path d="M0 0 C1.40607798 -0.00174657 2.81215467 -0.00525305 4.21822447 -0.01035666 C8.06319257 -0.01926385 11.90771156 -0.00335219 15.75262249 0.01675558 C19.90587669 0.03407797 24.0591069 0.0281805 28.21238708 0.02514648 C35.40196768 0.02305214 42.59140274 0.03557006 49.78094673 0.05809784 C60.17571246 0.09064764 70.57040803 0.1010279 80.96521919 0.10604981 C97.83129907 0.11479778 114.69730143 0.14139987 131.56333923 0.17926025 C147.94419467 0.21599321 164.32502903 0.24429869 180.70591736 0.2612915 C181.71614435 0.2623424 182.72637134 0.26339329 183.76721127 0.26447603 C188.83537558 0.26969629 193.90354004 0.2747511 198.9717046 0.27972364 C240.99717895 0.32117019 283.02255857 0.39270827 325.04795837 0.48101807 C325.04795837 20.28101807 325.04795837 40.08101807 325.04795837 60.48101807 C282.32043935 60.59409806 239.59295629 60.6835921 196.86531724 60.73634471 C191.81861273 60.7425981 186.77190853 60.74906972 181.72520447 60.75567627 C180.72051501 60.75698782 179.71582556 60.75829937 178.68069097 60.75965067 C162.42220343 60.7813952 146.16380446 60.8208115 129.90536943 60.86678205 C113.21729388 60.91357315 96.52926466 60.94131908 79.8411262 60.95146054 C69.54723911 60.95831418 59.25360241 60.97994492 48.95979241 61.0206004 C41.89675233 61.04707152 34.83384132 61.05500917 27.77075526 61.04852495 C23.69831114 61.04532885 19.62630394 61.05015786 15.55393791 61.07704544 C11.81892565 61.1015245 8.08464072 61.10251213 4.34959373 61.08551254 C2.37210912 61.08242683 0.39463203 61.10386036 -1.58272624 61.12642461 C-11.49900797 61.04400748 -20.49278006 59.0048699 -27.95204163 52.10601807 C-35.13313509 44.06669636 -36.59705894 36.11331016 -36.35829163 25.60992432 C-35.87615827 18.10414108 -32.03014986 12.11925433 -26.63954163 7.04351807 C-18.05216807 0.7730572 -10.50533169 -0.09467818 0 0 Z " fill="#FEF3F6" transform="translate(111.95204162597656,421.51898193359375)"/>
<path d="M0 0 C29.7 0 59.4 0 90 0 C90 64.68 90 129.36 90 196 C76.14 196.33 62.28 196.66 48 197 C28.66017746 203.90707948 14.87498845 212.42901054 5.81347656 231.12402344 C3.60175889 236.22451521 2.24862755 241.59475705 1 247 C0.67 247 0.34 247 0 247 C0 165.49 0 83.98 0 0 Z " fill="#3034E2" transform="translate(45,196)"/>
<path d="M0 0 C29.7 0 59.4 0 90 0 C90 49.5 90 99 90 150 C83.99999463 146.66666368 78.42563004 143.36886515 72.859375 139.4453125 C71.36242907 138.40820448 69.86501991 137.37176482 68.3671875 136.3359375 C66.04296559 134.72290971 63.72229282 133.10548823 61.40917969 131.4765625 C59.15172919 129.88998947 56.88194612 128.32261987 54.609375 126.7578125 C53.91970642 126.26523956 53.23003784 125.77266663 52.51947021 125.26516724 C51.86819153 124.82075287 51.21691284 124.3763385 50.54589844 123.91845703 C49.69726227 123.32485886 49.69726227 123.32485886 48.83148193 122.7192688 C46.21199013 121.6905288 44.66085139 122.1813318 42 123 C39.84920378 124.12179081 39.84920378 124.12179081 37.79223633 125.59204102 C36.99823929 126.13252579 36.20424225 126.67301056 35.38618469 127.22987366 C34.12187874 128.10801979 34.12187874 128.10801979 32.83203125 129.00390625 C31.95600754 129.60178452 31.07998383 130.19966278 30.17741394 130.81565857 C27.38375372 132.72358674 24.59767536 134.64221132 21.8125 136.5625 C19.01579493 138.48509981 16.21753 140.40529316 13.41545105 142.3200531 C11.67261847 143.51152088 9.93303066 144.70775107 8.19697571 145.90907288 C7.41243515 146.44640549 6.62789459 146.9837381 5.81958008 147.53735352 C5.12850662 148.01398941 4.43743317 148.49062531 3.72541809 148.98170471 C2 150 2 150 0 150 C0 100.5 0 51 0 0 Z " fill="#FDBE41" transform="translate(286,0)"/>
<path d="M0 0 C0 44.88 0 89.76 0 136 C-29.7 136 -59.4 136 -90 136 C-90.0825 124.45 -90.165 112.9 -90.25 101 C-90.28641602 97.38675781 -90.32283203 93.77351563 -90.36035156 90.05078125 C-90.37841797 85.55273438 -90.37841797 85.55273438 -90.3817749 83.43041992 C-90.38781732 81.9844059 -90.40167068 80.53840875 -90.42230225 79.0925293 C-90.61056685 65.17231295 -88.87722307 51.61805833 -81.9375 39.25 C-81.36213501 38.19824585 -81.36213501 38.19824585 -80.77514648 37.12524414 C-70.8066082 19.67083013 -54.2455656 7.75048589 -35.3125 1.5625 C-23.73294216 -0.61410862 -11.78235056 0 0 0 Z " fill="#3034E2" transform="translate(135,0)"/>
<path d="M0 0 C49.83 0 99.66 0 151 0 C151 19.8 151 39.6 151 60 C39.79 60 -71.42 60 -186 60 C-186 59.67 -186 59.34 -186 59 C-124.62 59 -63.24 59 0 59 C0 39.53 0 20.06 0 0 Z " fill="#E9E5F3" transform="translate(286,422)"/>
<path d="M0 0 C64.68 0 129.36 0 196 0 C196 9.9 196 19.8 196 30 C131.32 30 66.64 30 0 30 C0 20.1 0 10.2 0 0 Z " fill="#E8E5F3" transform="translate(196,271)"/>
<path d="M0 0 C0.33 0 0.66 0 1 0 C1 129.03 1 258.06 1 391 C0.67 391 0.34 391 0 391 C0 326.65 0 262.3 0 196 C-29.7 196 -59.4 196 -90 196 C-90 176.2 -90 156.4 -90 136 C-60.3 136 -30.6 136 0 136 C0 91.12 0 46.24 0 0 Z " fill="#46A2FC" transform="translate(135,0)"/>
<path d="M0 0 C12.81249317 -0.03082776 25.62497421 -0.05138015 38.4375 -0.0625 C39.41657066 -0.06335602 40.39564133 -0.06421204 41.4043808 -0.06509399 C76.98027204 -0.09244008 112.55104656 0.13889265 148.125 0.5 C149.89279375 0.51793673 149.89279375 0.51793673 151.69630051 0.53623581 C166.13095129 0.68337219 180.56550187 0.83861519 195 1 C195 10.57 195 20.14 195 30 C130.65 30 66.3 30 0 30 C0 20.1 0 10.2 0 0 Z " fill="#EAE6F3" transform="translate(196,331)"/>
<path d="M0 0 C0 10.23 0 20.46 0 31 C-59.73 31 -119.46 31 -181 31 C-181 21.1 -181 11.2 -181 1 C-161.83017366 0.86853218 -142.66034202 0.73793281 -123.4904995 0.60884857 C-114.58611042 0.54886228 -105.68172413 0.48851102 -96.77734375 0.42724609 C-89.00044461 0.37373958 -81.22354083 0.32097327 -73.44663107 0.26903296 C-69.34324566 0.24160313 -65.23986315 0.21384559 -61.13648605 0.18519592 C-40.75697565 0.04318432 -20.38016395 -0.02184955 0 0 Z " fill="#3034E2" transform="translate(467,481)"/>
<path d="M0 0 C59.73 0 119.46 0 181 0 C181 9.9 181 19.8 181 30 C159.82088334 30.0227061 138.64531992 29.94593813 117.4668889 29.79807091 C113.31503824 29.7693053 109.16317971 29.74171863 105.01132202 29.71398926 C97.20309472 29.66166963 89.39487468 29.60834039 81.58665693 29.5546174 C72.67440704 29.49334982 63.76214936 29.43325498 54.84989095 29.37324238 C36.56658514 29.2501024 18.28329054 29.1253879 0 29 C0 19.43 0 9.86 0 0 Z " fill="#3034E2" transform="translate(286,392)"/>
<path d="M0 0 C29.7 0 59.4 0 90 0 C90 9.9 90 19.8 90 30 C60.3 30 30.6 30 0 30 C0 20.1 0 10.2 0 0 Z " fill="#FDF3F6" transform="translate(196,331)"/>
<path d="M0 0 C29.7 0 59.4 0 90 0 C90 9.9 90 19.8 90 30 C60.3 30 30.6 30 0 30 C0 20.1 0 10.2 0 0 Z " fill="#FEF3F6" transform="translate(196,271)"/>
</svg>
