<?xml version="1.0" encoding="UTF-8"?>
<svg version="1.1" xmlns="http://www.w3.org/2000/svg" width="512" height="512">
<path d="M0 0 C1.55012728 0.76969328 3.07457972 1.59208752 4.578125 2.44921875 C5.47909912 2.96025146 6.38007324 3.47128418 7.30834961 3.99780273 C8.27909424 4.55540283 9.24983887 5.11300293 10.25 5.6875 C11.26779541 6.26765869 12.28559082 6.84781738 13.33422852 7.44555664 C23.59362021 13.30772918 33.79783142 19.26477826 43.99267578 25.23828125 C48.95069751 28.14273691 53.91238105 31.04090775 58.875 33.9375 C59.85976318 34.51234131 60.84452637 35.08718262 61.85913086 35.67944336 C69.22639088 39.97566633 76.6102658 44.24257165 84 48.5 C92.6786637 53.50035869 101.34709886 58.51767499 110 63.5625 C110.96035156 64.12195313 111.92070312 64.68140625 112.91015625 65.2578125 C113.82667969 65.79277344 114.74320312 66.32773438 115.6875 66.87890625 C116.47511719 67.3385376 117.26273437 67.79816895 118.07421875 68.27172852 C119.52248047 69.1272229 119.52248047 69.1272229 121 70 C121.82998505 70.32538254 122.65997009 70.65076508 123.5151062 70.98600769 C126.57187505 72.36995105 128.65213109 73.58811827 131 76 C132.4904728 81.13248463 132.30538866 86.19197026 132.1953125 91.48046875 C132.19915738 93.03810264 132.20742381 94.59573111 132.21983337 96.15332031 C132.24089127 100.30931292 132.20158882 104.46269641 132.1504097 108.61834335 C132.10812441 112.89377913 132.12186835 117.16899809 132.13061523 121.44458008 C132.13783084 128.19648652 132.11452852 134.94751026 132.06298828 141.69921875 C132.00234379 149.64377265 131.99580463 157.58644928 132.02734375 165.53125 C132.06100589 175.02124469 132.05462171 184.51010784 132 194 C132.99652588 193.3205835 133.99305176 192.64116699 135.01977539 191.94116211 C136.35735721 191.07270149 137.69586752 190.20566974 139.03515625 189.33984375 C139.68826782 188.88911499 140.34137939 188.43838623 141.01428223 187.97399902 C145.88623586 184.8818643 145.88623586 184.8818643 149.01544189 185.21377563 C152.41799318 186.33465555 155.53018753 188.01114704 158.4765625 190.03125 C162.66195857 192.80273703 166.95405564 195.32553328 171.30493164 197.82788086 C174.3884735 199.60631782 177.45429155 201.41288457 180.51953125 203.22265625 C187.11821923 207.09472982 193.79977328 210.80719596 200.5 214.5 C209.17318939 219.28362802 217.77618111 224.16368351 226.3125 229.1875 C234.76864609 234.16219361 243.30625467 238.94539787 251.9362793 243.61108398 C260.71277144 248.36314897 269.36997086 253.31105112 278.02001953 258.28857422 C281.38371308 260.22036938 284.75189559 262.14423551 288.12109375 264.06640625 C288.73674194 264.41772614 289.35239014 264.76904602 289.98669434 265.13101196 C292.43430039 266.52770982 294.88192607 267.92437285 297.32989502 269.32043457 C300.1464444 270.92701926 302.95063984 272.54376094 305.73144531 274.21191406 C308.94260814 276.08963803 308.94260814 276.08963803 312.43261719 277.17089844 C316.31882392 278.67878837 318.31772964 279.77464028 321 283 C323.57037782 290.87988457 323.22954028 299.4327186 323.125 307.625 C323.12183777 308.7753775 323.11867554 309.925755 323.11541748 311.11099243 C322.86878219 332.62755353 322.86878219 332.62755353 316.96875 338.66015625 C312.45459925 341.72723045 307.48978656 343.34327004 302.28515625 344.88085938 C296.4375167 346.87295061 291.37732269 350.23634754 286.125 353.4375 C283.92532257 354.71169942 281.72218599 355.97994601 279.515625 357.2421875 C273.29006043 360.82845301 267.07944999 364.43984932 260.875 368.0625 C259.89144531 368.63677734 258.90789062 369.21105469 257.89453125 369.80273438 C254.92940104 371.53466654 251.96462837 373.26720896 249 375 C235.59241282 382.83657983 222.16840721 390.64278608 208.71142578 398.39428711 C201.46078014 402.57327594 194.22527414 406.7773134 187 411 C177.5900967 416.49945536 168.15529437 421.95449196 158.7109375 427.39453125 C151.4604851 431.57349128 144.22511731 435.77740506 137 440 C128.68248138 444.86103001 120.34788578 449.69131003 112 454.5 C103.28143372 459.52414751 94.57074964 464.56144777 85.875 469.625 C84.89789063 470.19283203 83.92078125 470.76066406 82.9140625 471.34570312 C81.99109375 471.88388672 81.068125 472.42207031 80.1171875 472.9765625 C79.24416992 473.48348633 78.37115234 473.99041016 77.47167969 474.51269531 C74.51211198 476.29358098 71.66794006 478.22277976 68.85595703 480.22802734 C66.18784643 481.33780973 64.7387668 480.85507054 62 480 C60.05275844 479.03383659 58.14344856 477.98951988 56.265625 476.89453125 C55.14704102 476.24790527 54.02845703 475.6012793 52.87597656 474.93505859 C51.6673112 474.22755018 50.45865252 473.52003036 49.25 472.8125 C47.3533268 471.71275091 45.4551489 470.61563243 43.55682373 469.51873779 C42.26378091 468.77149296 40.97118143 468.02348047 39.67901611 467.27471924 C33.57360262 463.74033086 27.41634097 460.3018352 21.25 456.875 C13.04543049 452.3050788 4.90874831 447.63403817 -3.1875 442.875 C-11.68591333 437.88155072 -20.26539487 433.07673508 -28.93579102 428.38916016 C-37.72570725 423.62989195 -46.39619196 418.67437029 -55.05957031 413.68945312 C-60.09819475 410.79446134 -65.14541669 407.91451292 -70.19168091 405.03286743 C-71.98667536 404.00761071 -73.78135776 402.98181005 -75.57592773 401.95581055 C-81.18703349 398.74796846 -86.79993371 395.54335607 -92.41796875 392.34765625 C-93.39701172 391.79013672 -94.37605469 391.23261719 -95.38476562 390.65820312 C-97.21213501 389.61781233 -99.04022626 388.57868809 -100.86914062 387.54101562 C-101.66900391 387.08533203 -102.46886719 386.62964844 -103.29296875 386.16015625 C-103.9893042 385.76449463 -104.68563965 385.36883301 -105.40307617 384.96118164 C-107 384 -107 384 -108 383 C-108.86456672 377.89905635 -108.86456672 377.89905635 -108 375 C-105.97021484 373.26635742 -105.97021484 373.26635742 -103.4609375 371.73046875 C-102.63126465 371.21250732 -101.8015918 370.6945459 -100.94677734 370.16088867 C-100.30434082 369.77779541 -99.6619043 369.39470215 -99 369 C-99.66193359 368.6189209 -100.32386719 368.2378418 -101.00585938 367.84521484 C-113.10147655 360.87962113 -125.19165682 353.90498981 -137.25 346.875 C-138.10787109 346.37532715 -138.96574219 345.8756543 -139.84960938 345.36083984 C-141.65309457 344.30814619 -143.44364341 343.23302336 -145.22161293 342.13778496 C-148.17757197 340.38530903 -151.22030688 338.98380283 -154.35570335 337.58040047 C-169.06095415 330.59331061 -169.06095415 330.59331061 -172.26923037 324.64794683 C-174.2365254 318.01945682 -173.80357959 311.20289389 -173.56103516 304.36669922 C-173.56137826 302.0937953 -173.57137663 299.82087559 -173.59024048 297.54804993 C-173.6135437 291.40668326 -173.50115765 285.27461476 -173.3623929 279.13505316 C-173.23929866 272.70530572 -173.23853552 266.27549989 -173.22348022 259.84475708 C-173.1812326 249.05810726 -173.05952125 238.27536149 -172.87939453 227.49023438 C-172.69426124 216.39546472 -172.56703257 205.30224581 -172.51025391 194.20605469 C-172.5067356 193.52117032 -172.5032173 192.83628596 -172.49959238 192.13064753 C-172.4856034 189.37756858 -172.47180386 186.62448878 -172.45830689 183.87140738 C-172.3956271 171.36973089 -172.28179661 158.86845053 -172.1640625 146.3671875 C-172.15284504 145.09817392 -172.14162759 143.82916034 -172.13007021 142.5216918 C-172.06393163 135.24068063 -171.97647024 127.96054729 -171.8548851 120.68024254 C-171.82074344 118.47238299 -171.79329522 116.26440867 -171.77290344 114.05637932 C-171.7436505 111.05124607 -171.68981339 108.04757574 -171.62905884 105.04293823 C-171.62570357 104.16173526 -171.6223483 103.28053228 -171.61889136 102.37262619 C-171.4614249 96.50283564 -171.4614249 96.50283564 -169.10130882 93.93091011 C-166.18316989 92.63813248 -165.03018222 92.96698333 -162 94 C-161.22269531 94.63615234 -161.22269531 94.63615234 -160.4296875 95.28515625 C-158.12194932 96.99847702 -156.89715295 97.71202998 -154 98 C-149.72144282 96.33740849 -145.97463199 93.67436211 -142.1953125 91.109375 C-139 89 -139 89 -137 89 C-137.08701172 87.64455078 -137.08701172 87.64455078 -137.17578125 86.26171875 C-137.22089844 85.08222656 -137.26601562 83.90273437 -137.3125 82.6875 C-137.37050781 81.51574219 -137.42851562 80.34398438 -137.48828125 79.13671875 C-137 76 -137 76 -134.85546875 73.95703125 C-130.97448584 72.65629143 -129.7166365 73.26908418 -126 75 C-122.65596553 76.78994835 -119.3866339 78.6896329 -116.125 80.625 C-115.24585938 81.140625 -114.36671875 81.65625 -113.4609375 82.1875 C-111.3042944 83.45335573 -109.15082012 84.72428407 -107 86 C-107.02094727 85.19780029 -107.04189453 84.39560059 -107.06347656 83.5690918 C-107.14651316 79.94202152 -107.19862204 76.31515094 -107.25 72.6875 C-107.28351563 71.42486328 -107.31703125 70.16222656 -107.3515625 68.86132812 C-107.36445312 67.65283203 -107.37734375 66.44433594 -107.390625 65.19921875 C-107.41157227 64.08377686 -107.43251953 62.96833496 -107.45410156 61.8190918 C-107 59 -107 59 -105.11621094 57.10864258 C-103 56 -103 56 -100.75 56.0625 C-98 57 -98 57 -96.2956543 58.10717773 C-93.38021713 59.94205001 -91.25945804 61.23623468 -87.77294922 60.58227539 C-85.38480927 59.56068509 -83.26277923 58.38024277 -81.0625 57 C-80.29977783 56.54101318 -79.53705566 56.08202637 -78.7512207 55.60913086 C-75.18220094 53.24208174 -73.30921713 51.85085906 -71.8203125 47.75390625 C-71.60934153 44.58994167 -71.60934153 44.58994167 -72.01171875 41.56640625 C-72 39 -72 39 -70.39453125 37.02734375 C-68 36 -68 36 -65.3671875 36.4609375 C-60.77264873 38.5609935 -56.466657 41.04877582 -52.125 43.625 C-51.24585938 44.140625 -50.36671875 44.65625 -49.4609375 45.1875 C-47.3042944 46.45335573 -45.15082012 47.72428407 -43 49 C-43.0314209 47.79670044 -43.0314209 47.79670044 -43.06347656 46.5690918 C-43.14651316 42.94202152 -43.19862204 39.31515094 -43.25 35.6875 C-43.28351563 34.42486328 -43.31703125 33.16222656 -43.3515625 31.86132812 C-43.37089844 30.04858398 -43.37089844 30.04858398 -43.390625 28.19921875 C-43.4220459 26.52605591 -43.4220459 26.52605591 -43.45410156 24.8190918 C-43 22 -43 22 -41.11621094 20.10864258 C-39 19 -39 19 -36.75 19.0625 C-34 20 -34 20 -32.2956543 21.10717773 C-29.38021713 22.94205001 -27.25945804 24.23623468 -23.77294922 23.58227539 C-21.38480927 22.56068509 -19.26277923 21.38024277 -17.0625 20 C-15.91841675 19.31151978 -15.91841675 19.31151978 -14.7512207 18.60913086 C-11.18220094 16.24208174 -9.30921713 14.85085906 -7.8203125 10.75390625 C-7.60934153 7.58994167 -7.60934153 7.58994167 -8.01171875 4.56640625 C-8 2 -8 2 -6.26953125 0.08984375 C-3.49784468 -1.24113827 -2.85053215 -0.95872389 0 0 Z " fill="#FD91AA" transform="translate(181,16)"/>
<path d="M0 0 C3.34668483 1.7435779 6.61500437 3.59997243 9.875 5.5 C10.75414062 5.99886719 11.63328125 6.49773437 12.5390625 7.01171875 C13.78429687 7.73294922 13.78429687 7.73294922 15.0546875 8.46875 C15.81249512 8.90638672 16.57030273 9.34402344 17.35107422 9.79492188 C17.89521973 10.19259766 18.43936523 10.59027344 19 11 C19 11.66 19 12.32 19 13 C19.70600342 13.26393555 20.41200684 13.52787109 21.1394043 13.79980469 C24.16859058 15.07073408 26.92080195 16.56762793 29.76953125 18.203125 C30.89327148 18.84652832 32.01701172 19.48993164 33.17480469 20.15283203 C34.38744947 20.85174979 35.60001254 21.55080934 36.8125 22.25 C38.07313855 22.97397607 39.33388216 23.69776921 40.59472656 24.42138672 C51.45080417 30.65838592 62.2687045 36.96082583 73.07324219 43.28662109 C78.0050807 46.17381184 82.93960361 49.05639615 87.875 51.9375 C88.84493896 52.50388184 89.81487793 53.07026367 90.81420898 53.65380859 C96.26247276 56.8317013 101.71849353 59.99571024 107.18359375 63.14453125 C107.78081238 63.48866562 108.37803101 63.83279999 108.99334717 64.18736267 C111.89867793 65.86098914 114.80498473 67.53287989 117.71240234 69.20288086 C119.2720874 70.10018921 119.2720874 70.10018921 120.86328125 71.015625 C121.78407471 71.54446289 122.70486816 72.07330078 123.65356445 72.61816406 C125.47062767 73.68824811 127.24541946 74.83027964 129 76 C129.39428329 78.08780289 129.39428329 78.08780289 129.42132568 80.71783447 C129.43845612 81.71319717 129.45558655 82.70855988 129.47323608 83.73408508 C129.47658966 84.83020615 129.47994324 85.92632721 129.48339844 87.05566406 C129.49829315 88.20699326 129.51318787 89.35832245 129.52853394 90.54454041 C129.57248891 94.36828924 129.59281991 98.19166463 129.609375 102.015625 C129.62226623 103.99677609 129.63515898 105.97792718 129.6482985 107.95907664 C129.68375044 113.48189692 129.70634936 119.00462652 129.7166841 124.52754903 C129.73011729 131.66700323 129.78270662 138.80473158 129.86968589 145.94366097 C129.93459476 151.46310573 129.96479992 156.98206577 129.96880746 162.50188804 C129.97194897 165.79817293 129.99394268 169.09246902 130.0432663 172.38843536 C130.09441097 176.06920616 130.08882583 179.74577642 130.06933594 183.42675781 C130.09698029 184.51478195 130.12462463 185.60280609 130.15310669 186.72380066 C130.03297069 193.96212138 130.03297069 193.96212138 127.02150822 196.98789215 C124.7387053 198.5298627 122.47611733 199.79905375 120 201 C119.0917749 201.54527344 118.1835498 202.09054687 117.24780273 202.65234375 C116.48411377 203.07644531 115.7204248 203.50054687 114.93359375 203.9375 C113.60654419 204.6797583 113.60654419 204.6797583 112.25268555 205.43701172 C111.32367432 205.95279785 110.39466309 206.46858398 109.4375 207 C101.31054338 211.55256725 93.22567042 216.1673942 85.1875 220.875 C75.73285195 226.41033119 66.25394621 231.90162628 56.7578125 237.36547852 C51.22548716 240.55165413 45.70370427 243.75420825 40.19921875 246.98828125 C39.10544922 247.63023437 38.01167969 248.2721875 36.88476562 248.93359375 C34.80487867 250.15586085 32.72665934 251.38097164 30.65039062 252.609375 C29.71775391 253.15722656 28.78511719 253.70507812 27.82421875 254.26953125 C27.01041748 254.75010986 26.19661621 255.23068848 25.3581543 255.72583008 C22.96047804 257.02135471 20.54799944 258.03880576 18 259 C17.68044008 262.69165401 17.68044008 262.69165401 19 266 C20.99349733 266.93560716 23.02002916 267.80177145 25.0625 268.625 C28.36328125 270.29296875 28.36328125 270.29296875 31 273 C32.62253104 279.79496331 31.72143627 287.11768295 31 294 C26.73137037 293.47078297 23.6912609 292.53942641 20.0078125 290.33203125 C19.0679248 289.77572021 18.12803711 289.21940918 17.15966797 288.64624023 C16.15822754 288.04110596 15.15678711 287.43597168 14.125 286.8125 C11.96370349 285.52837343 9.80224049 284.24452705 7.640625 282.9609375 C6.53783203 282.3019043 5.43503906 281.64287109 4.29882812 280.96386719 C-0.82003393 277.91649253 -5.97336158 274.92900845 -11.125 271.9375 C-13.82841098 270.36549795 -16.52348636 268.79180886 -19.18804359 267.15453911 C-22.15823918 265.39659847 -25.21345291 263.98658231 -28.36256981 262.57696724 C-43.06147895 255.59297681 -43.06147895 255.59297681 -46.26892138 249.64810133 C-48.23634254 243.01944607 -47.80358629 236.20308271 -47.56103516 229.36669922 C-47.56137826 227.0937953 -47.57137663 224.82087559 -47.59024048 222.54804993 C-47.6135437 216.40668326 -47.50115765 210.27461476 -47.3623929 204.13505316 C-47.23929866 197.70530572 -47.23853552 191.27549989 -47.22348022 184.84475708 C-47.1812326 174.05810726 -47.05952125 163.27536149 -46.87939453 152.49023438 C-46.69426124 141.39546472 -46.56703257 130.30224581 -46.51025391 119.20605469 C-46.5067356 118.52117032 -46.5032173 117.83628596 -46.49959238 117.13064753 C-46.4856034 114.37756858 -46.47180386 111.62448878 -46.45830689 108.87140738 C-46.3956271 96.36973089 -46.28179661 83.86845053 -46.1640625 71.3671875 C-46.15284504 70.09817392 -46.14162759 68.82916034 -46.13007021 67.5216918 C-46.06393163 60.24068063 -45.97647024 52.96054729 -45.8548851 45.68024254 C-45.82074344 43.47238299 -45.79329522 41.26440867 -45.77290344 39.05637932 C-45.7436505 36.05124607 -45.68981339 33.04757574 -45.62905884 30.04293823 C-45.62570357 29.16173526 -45.6223483 28.28053228 -45.61889136 27.37262619 C-45.4614249 21.50283564 -45.4614249 21.50283564 -43.10130882 18.93091011 C-40.18316989 17.63813248 -39.03018222 17.96698333 -36 19 C-35.48179688 19.42410156 -34.96359375 19.84820312 -34.4296875 20.28515625 C-32.12194932 21.99847702 -30.89715295 22.71202998 -28 23 C-23.72144282 21.33740849 -19.97463199 18.67436211 -16.1953125 16.109375 C-13 14 -13 14 -11 14 C-11.05800781 13.09636719 -11.11601563 12.19273438 -11.17578125 11.26171875 C-11.22089844 10.08222656 -11.26601563 8.90273437 -11.3125 7.6875 C-11.37050781 6.51574219 -11.42851563 5.34398438 -11.48828125 4.13671875 C-11 1 -11 1 -8.85546875 -1.04296875 C-4.97830654 -2.34242804 -3.71531386 -1.72151659 0 0 Z " fill="#5793FA" transform="translate(55,91)"/>
<path d="M0 0 C3.52451109 42.20513028 3.52451109 42.20513028 -1.74023438 52.35498047 C-6.46312233 57.1241108 -12.40212543 58.96276433 -18.71484375 60.86474609 C-24.55319759 62.8823104 -29.6205313 66.23859526 -34.875 69.4375 C-37.07474798 70.71157763 -39.27788421 71.9798233 -41.484375 73.2421875 C-47.70993957 76.82845301 -53.92055001 80.43984932 -60.125 84.0625 C-61.10855469 84.63677734 -62.09210938 85.21105469 -63.10546875 85.80273438 C-66.07059896 87.53466654 -69.03537163 89.26720896 -72 91 C-85.40758718 98.83657983 -98.83159279 106.64278608 -112.28857422 114.39428711 C-119.53921986 118.57327594 -126.77472586 122.7773134 -134 127 C-143.4099033 132.49945536 -152.84470563 137.95449196 -162.2890625 143.39453125 C-169.5395149 147.57349128 -176.77488269 151.77740506 -184 156 C-192.31751862 160.86103001 -200.65211422 165.69131003 -209 170.5 C-217.71856628 175.52414751 -226.42925036 180.56144777 -235.125 185.625 C-236.10210937 186.19283203 -237.07921875 186.76066406 -238.0859375 187.34570312 C-239.00890625 187.88388672 -239.931875 188.42207031 -240.8828125 188.9765625 C-242.19233887 189.73694824 -242.19233887 189.73694824 -243.52832031 190.51269531 C-246.48788802 192.29358098 -249.33205994 194.22277976 -252.14404297 196.22802734 C-254.81215357 197.33780973 -256.2612332 196.85507054 -259 196 C-260.94724156 195.03383659 -262.85655144 193.98951988 -264.734375 192.89453125 C-265.85295898 192.24790527 -266.97154297 191.6012793 -268.12402344 190.93505859 C-269.3326888 190.22755018 -270.54134748 189.52003036 -271.75 188.8125 C-273.6466732 187.71275091 -275.5448511 186.61563243 -277.44317627 185.51873779 C-278.73621909 184.77149296 -280.02881857 184.02348047 -281.32098389 183.27471924 C-287.42639738 179.74033086 -293.58365903 176.3018352 -299.75 172.875 C-307.95456951 168.3050788 -316.09125169 163.63403817 -324.1875 158.875 C-332.68591333 153.88155072 -341.26539487 149.07673508 -349.93579102 144.38916016 C-358.72570725 139.62989195 -367.39619196 134.67437029 -376.05957031 129.68945312 C-381.09819475 126.79446134 -386.14541669 123.91451292 -391.19168091 121.03286743 C-392.98667536 120.00761071 -394.78135776 118.98181005 -396.57592773 117.95581055 C-402.18703349 114.74796846 -407.79993371 111.54335607 -413.41796875 108.34765625 C-414.39701172 107.79013672 -415.37605469 107.23261719 -416.38476562 106.65820312 C-418.21213501 105.61781233 -420.04022626 104.57868809 -421.86914062 103.54101562 C-422.66900391 103.08533203 -423.46886719 102.62964844 -424.29296875 102.16015625 C-425.33747192 101.56666382 -425.33747192 101.56666382 -426.40307617 100.96118164 C-428 100 -428 100 -429 99 C-429.94306765 93.94172806 -429.94306765 93.94172806 -429 91 C-425.23187884 87.69596729 -421.08584395 85 -416 85 C-415.4551686 74.41519023 -415.4551686 74.41519023 -417 64 C-420.24488675 60.47406007 -423.43883673 59.24132924 -428 58 C-429 57 -429 57 -429.73828125 53.859375 C-429 50 -429 50 -427.05224609 48.29101562 C-424.15622408 46.47664039 -421.20915578 44.84662125 -418.1875 43.25 C-415.9852341 42.03726242 -413.78341693 40.82370965 -411.58203125 39.609375 C-409.92228271 38.70928711 -409.92228271 38.70928711 -408.22900391 37.79101562 C-405.22850593 36.12674426 -402.30318101 34.38468067 -399.38671875 32.578125 C-398.53634033 32.05702148 -397.68596191 31.53591797 -396.80981445 30.99902344 C-395.22072395 30.02068034 -393.63935603 29.02964856 -392.06713867 28.02441406 C-391.35146729 27.59354492 -390.6357959 27.16267578 -389.8984375 26.71875 C-389.28661621 26.33654297 -388.67479492 25.95433594 -388.04443359 25.56054688 C-384.16220759 24.49611042 -380.87895272 26.54173247 -377.46484375 28.32177734 C-376.21380859 29.07128662 -376.21380859 29.07128662 -374.9375 29.8359375 C-373.98721924 30.39941895 -373.03693848 30.96290039 -372.05786133 31.54345703 C-370.54421997 32.4500708 -370.54421997 32.4500708 -369 33.375 C-361.01018081 38.10164595 -352.98266338 42.71708287 -344.8125 47.125 C-335.09578765 52.37676284 -325.49620322 57.81133347 -315.92285156 63.31933594 C-310.36973872 66.5124222 -304.81030694 69.6944643 -299.25 72.875 C-298.65713196 73.21428528 -298.06426392 73.55357056 -297.45343018 73.90313721 C-288.05620379 79.27922189 -278.617453 84.57729687 -269.15991211 89.84667969 C-261.99190658 93.8527825 -254.89143957 97.96384751 -247.8125 102.125 C-236.05720871 109.03353907 -224.20065409 115.89967295 -212 122 C-209.43417054 120.83995489 -209.43417054 120.83995489 -206.5234375 119.08984375 C-205.39019043 118.43685303 -204.25694336 117.7838623 -203.08935547 117.11108398 C-201.85113505 116.3867302 -200.61301922 115.66219761 -199.375 114.9375 C-198.0995154 114.19861904 -196.82363185 113.46042636 -195.54736328 112.72290039 C-192.30299633 110.84532005 -189.06427558 108.95824824 -185.82763672 107.06738281 C-183.12643339 105.48981656 -180.42240806 103.91710456 -177.71875 102.34375 C-173.80745644 100.06534859 -169.89915985 97.78189563 -165.9921875 95.49609375 C-159.67623623 91.80502101 -153.33927005 88.15083684 -147 84.5 C-138.65197552 79.69155277 -130.31751697 74.86102905 -122 70 C-113.68248171 65.13897018 -105.3479115 60.30864483 -97 55.5 C-82.2841924 47.02088662 -67.61084503 38.47020259 -52.96484375 29.87109375 C-51.13254022 28.79544264 -49.30021708 27.71982497 -47.46786499 26.64425659 C-46.24453701 25.92616649 -45.02124971 25.2080071 -43.79800415 24.48977661 C-33.57374577 18.48816828 -23.31604736 12.54627371 -13.03369141 6.64477539 C-12.01968262 6.06203857 -11.00567383 5.47930176 -9.9609375 4.87890625 C-9.07196777 4.3691626 -8.18299805 3.85941895 -7.26708984 3.33422852 C-1.60164684 0 -1.60164684 0 0 0 Z " fill="#ED5E72" transform="translate(502,300)"/>
<path d="M0 0 C1.55012728 0.76969328 3.07457972 1.59208752 4.578125 2.44921875 C5.47909912 2.96025146 6.38007324 3.47128418 7.30834961 3.99780273 C8.27909424 4.55540283 9.24983887 5.11300293 10.25 5.6875 C11.26779541 6.26765869 12.28559082 6.84781738 13.33422852 7.44555664 C23.59362021 13.30772918 33.79783142 19.26477826 43.99267578 25.23828125 C48.95069751 28.14273691 53.91238105 31.04090775 58.875 33.9375 C59.85976318 34.51234131 60.84452637 35.08718262 61.85913086 35.67944336 C69.22639088 39.97566633 76.6102658 44.24257165 84 48.5 C92.6786637 53.50035869 101.34709886 58.51767499 110 63.5625 C110.96035156 64.12195313 111.92070312 64.68140625 112.91015625 65.2578125 C113.82667969 65.79277344 114.74320313 66.32773438 115.6875 66.87890625 C116.47511719 67.3385376 117.26273438 67.79816895 118.07421875 68.27172852 C119.52248047 69.1272229 119.52248047 69.1272229 121 70 C121.82998505 70.32579041 122.65997009 70.65158081 123.5151062 70.98724365 C126.56996376 72.37139258 128.65210458 73.59055895 131 76 C132.49036544 81.12089306 132.30502723 86.168131 132.1953125 91.4453125 C132.19953946 92.99991115 132.20821911 94.55450328 132.22106934 96.10905457 C132.24306738 100.25945918 132.20444556 104.40717209 132.15222931 108.55722427 C132.10687818 112.83392258 132.11097645 117.1105539 132.11083984 121.38745117 C132.10718388 126.4925319 132.09692178 131.59730188 132.05899048 136.70225525 C131.98846403 146.32630272 132.05971156 155.92180078 132.34375 165.54296875 C132.41583023 168.54899618 132.48444836 171.5550793 132.55169678 174.56121826 C132.60021258 176.38215636 132.66239182 178.20278632 132.73883057 180.02276611 C133.27452447 193.27987185 133.27452447 193.27987185 130.41137695 197.14404297 C128.02885233 198.81052913 125.67760581 199.86895045 123 201 C120.93548621 202.17863431 118.88275956 203.3780646 116.83984375 204.59375 C115.13495332 205.56151732 113.43000342 206.52918825 111.72265625 207.49261475 C108.64322468 209.23037521 105.56986004 210.97880683 102.49609375 212.7265625 C101.87266083 213.08074249 101.24922791 213.43492249 100.60690308 213.79983521 C93.18796382 218.02050638 85.824053 222.33475363 78.46459961 226.65820312 C77.53784424 227.20154297 76.61108887 227.74488281 75.65625 228.3046875 C74.44678711 229.0160083 74.44678711 229.0160083 73.21289062 229.74169922 C71.18006649 230.89761003 69.09160298 231.95419851 67 233 C67 194.06 67 155.12 67 115 C48.81561712 125.03252577 48.81561712 125.03252577 31.16015625 135.7421875 C29 137 29 137 27 137 C27.01244421 137.91164508 27.01244421 137.91164508 27.02513981 138.84170723 C27.22402081 153.63956126 27.37288879 168.4372861 27.46630955 183.23614693 C27.51269049 190.39294597 27.57590366 197.54885222 27.67895508 204.70507812 C27.76874802 210.94357397 27.82674348 217.18142327 27.84679645 223.42054737 C27.85851752 226.72372127 27.89072939 230.02461757 27.95157051 233.32730484 C28.01685359 237.01766135 28.02590453 240.70417915 28.02172852 244.39501953 C28.054086 245.48618576 28.08644348 246.57735199 28.11978149 247.70158386 C28.03091847 254.95265474 28.03091847 254.95265474 25.06501579 257.9658165 C22.76895839 259.51931758 20.48773935 260.7824863 18 262 C16.69238883 262.76932656 15.38916375 263.54624544 14.09375 264.3359375 C12.89775252 265.01899641 11.69986604 265.69875971 10.5 266.375 C9.88125 266.72949219 9.2625 267.08398438 8.625 267.44921875 C4.13404923 270 4.13404923 270 3 270 C2.67 230.73 2.34 191.46 2 151 C-3.94 147.7 -9.88 144.4 -16 141 C-19.88507218 138.76448318 -23.76148613 136.52161905 -27.625 134.25 C-29.68227479 133.0455441 -31.73956696 131.84111787 -33.796875 130.63671875 C-34.82490234 130.0339209 -35.85292969 129.43112305 -36.91210938 128.81005859 C-41.89635005 125.88839822 -46.88521627 122.97468109 -51.875 120.0625 C-52.85428467 119.49080078 -53.83356934 118.91910156 -54.8425293 118.33007812 C-61.24257481 114.59754364 -67.65205878 110.88191084 -74.07714844 107.19262695 C-76.30085978 105.90709432 -78.51656879 104.60760935 -80.72363281 103.29370117 C-85.53529761 100.44580899 -90.17642839 97.82018868 -95.41796875 95.8515625 C-104.45211057 92.22291809 -104.45211057 92.22291809 -107 88 C-109.09963669 79.08977707 -109.26074023 67.88207858 -107 59 C-105.07885742 57.10327148 -105.07885742 57.10327148 -103 56 C-100.33266644 56.0740926 -98.53333878 56.65353225 -96.2956543 58.10717773 C-93.38021713 59.94205001 -91.25945804 61.23623468 -87.77294922 60.58227539 C-85.38480927 59.56068509 -83.26277923 58.38024277 -81.0625 57 C-80.29977783 56.54101318 -79.53705566 56.08202637 -78.7512207 55.60913086 C-75.18220094 53.24208174 -73.30921713 51.85085906 -71.8203125 47.75390625 C-71.60934153 44.58994167 -71.60934153 44.58994167 -72.01171875 41.56640625 C-72 39 -72 39 -70.39453125 37.02734375 C-68 36 -68 36 -65.3671875 36.4609375 C-60.77264873 38.5609935 -56.466657 41.04877582 -52.125 43.625 C-51.24585938 44.140625 -50.36671875 44.65625 -49.4609375 45.1875 C-47.3042944 46.45335573 -45.15082012 47.72428407 -43 49 C-43.02094727 48.19780029 -43.04189453 47.39560059 -43.06347656 46.5690918 C-43.14651316 42.94202152 -43.19862204 39.31515094 -43.25 35.6875 C-43.28351563 34.42486328 -43.31703125 33.16222656 -43.3515625 31.86132812 C-43.36445313 30.65283203 -43.37734375 29.44433594 -43.390625 28.19921875 C-43.41157227 27.08377686 -43.43251953 25.96833496 -43.45410156 24.8190918 C-43 22 -43 22 -41.11621094 20.10864258 C-39 19 -39 19 -36.75 19.0625 C-34 20 -34 20 -32.2956543 21.10717773 C-29.38021713 22.94205001 -27.25945804 24.23623468 -23.77294922 23.58227539 C-21.38480927 22.56068509 -19.26277923 21.38024277 -17.0625 20 C-15.91841675 19.31151978 -15.91841675 19.31151978 -14.7512207 18.60913086 C-11.18220094 16.24208174 -9.30921713 14.85085906 -7.8203125 10.75390625 C-7.60934153 7.58994167 -7.60934153 7.58994167 -8.01171875 4.56640625 C-8 2 -8 2 -6.26953125 0.08984375 C-3.49784468 -1.24113827 -2.85053215 -0.95872389 0 0 Z " fill="#FDBA61" transform="translate(181,16)"/>
<path d="M0 0 C3.52451109 42.20513028 3.52451109 42.20513028 -1.74023438 52.35498047 C-6.46312233 57.1241108 -12.40212543 58.96276433 -18.71484375 60.86474609 C-24.55319759 62.8823104 -29.6205313 66.23859526 -34.875 69.4375 C-37.07474798 70.71157763 -39.27788421 71.9798233 -41.484375 73.2421875 C-47.70993957 76.82845301 -53.92055001 80.43984932 -60.125 84.0625 C-61.10855469 84.63677734 -62.09210938 85.21105469 -63.10546875 85.80273438 C-66.07059896 87.53466654 -69.03537163 89.26720896 -72 91 C-85.40758718 98.83657983 -98.83159279 106.64278608 -112.28857422 114.39428711 C-119.53921986 118.57327594 -126.77472586 122.7773134 -134 127 C-143.4099033 132.49945536 -152.84470563 137.95449196 -162.2890625 143.39453125 C-169.5395149 147.57349128 -176.77488269 151.77740506 -184 156 C-193.3960195 161.49134121 -202.8167374 166.93861554 -212.24731445 172.37036133 C-220.90709922 177.36139811 -229.54538898 182.38858094 -238.17382812 187.43359375 C-239.98141246 188.49021925 -241.78978308 189.54550136 -243.59912109 190.59912109 C-245.12095051 191.48708705 -246.63988659 192.38004594 -248.15478516 193.27978516 C-252.78141426 196 -252.78141426 196 -255 196 C-257.29307396 189.12077813 -256.71803503 181.23669398 -256.89941406 174.04199219 C-256.96616572 171.94028703 -257.06162655 169.83928681 -257.18652344 167.74023438 C-258.17450414 150.78968979 -258.17450414 150.78968979 -254.59692383 146.19998169 C-251.11555188 143.23483124 -247.23597295 141.45340482 -242.99621582 139.82374573 C-239.64584541 138.44120318 -236.60317198 136.54579092 -233.5 134.6875 C-227.15206663 131.08278069 -227.15206663 131.08278069 -225.07421875 129.95166016 C-221.41892876 128.12611174 -221.41892876 128.12611174 -219 125 C-220.04897461 124.60627197 -220.04897461 124.60627197 -221.11914062 124.20458984 C-224.24290334 122.89843347 -227.130671 121.36512528 -230.09375 119.7265625 C-230.67321381 119.40693039 -231.25267761 119.08729828 -231.84970093 118.75798035 C-233.73487605 117.7167676 -235.61752857 116.67109187 -237.5 115.625 C-238.81522665 114.89665578 -240.13049396 114.16838498 -241.44580078 113.44018555 C-250.64870978 108.3379502 -259.8029274 103.1542307 -268.92578125 97.91015625 C-274.28865776 94.82824683 -279.67458687 91.78786591 -285.0625 88.75 C-294.28253407 83.54919687 -303.47505798 78.30119245 -312.66055298 73.03973389 C-320.9955389 68.26715938 -329.35970974 63.54982577 -337.75 58.875 C-347.08705134 53.67054758 -356.34077772 48.33625344 -365.56152344 42.92871094 C-373.65321736 38.18661457 -381.80270209 33.55673325 -390 29 C-390 28.34 -390 27.68 -390 27 C-386.56699264 25.48331862 -384.79811517 24.72906689 -381.17358398 25.95947266 C-380.20751221 26.5219873 -379.24144043 27.08450195 -378.24609375 27.6640625 C-377.15522461 28.28555176 -376.06435547 28.90704102 -374.94042969 29.54736328 C-373.77258025 30.23956107 -372.60494196 30.9321152 -371.4375 31.625 C-370.22277616 32.32595955 -369.00694129 33.02499705 -367.79003906 33.72216797 C-365.33588373 35.13219398 -362.88852374 36.5529696 -360.44677734 37.984375 C-356.57254799 40.24996769 -352.67573241 42.47319658 -348.7734375 44.68994141 C-346.22664797 46.13828011 -343.6851186 47.59550076 -341.14453125 49.0546875 C-335.75641489 52.14509746 -330.34794383 55.19889647 -324.9375 58.25 C-315.71750881 63.45087964 -306.52494245 68.6988073 -297.33944702 73.96026611 C-289.00446281 78.73283965 -280.64038555 83.45034721 -272.25 88.125 C-264.04596525 92.69590268 -255.90872391 97.36586595 -247.8125 102.125 C-236.05720871 109.03353907 -224.20065409 115.89967295 -212 122 C-209.43417054 120.83995489 -209.43417054 120.83995489 -206.5234375 119.08984375 C-205.39019043 118.43685303 -204.25694336 117.7838623 -203.08935547 117.11108398 C-201.85113505 116.3867302 -200.61301922 115.66219761 -199.375 114.9375 C-198.0995154 114.19861904 -196.82363185 113.46042636 -195.54736328 112.72290039 C-192.30299633 110.84532005 -189.06427558 108.95824824 -185.82763672 107.06738281 C-183.12643339 105.48981656 -180.42240806 103.91710456 -177.71875 102.34375 C-173.80745644 100.06534859 -169.89915985 97.78189563 -165.9921875 95.49609375 C-159.67623623 91.80502101 -153.33927005 88.15083684 -147 84.5 C-138.65197552 79.69155277 -130.31751697 74.86102905 -122 70 C-113.68248171 65.13897018 -105.3479115 60.30864483 -97 55.5 C-82.2841924 47.02088662 -67.61084503 38.47020259 -52.96484375 29.87109375 C-51.13254022 28.79544264 -49.30021708 27.71982497 -47.46786499 26.64425659 C-46.24453701 25.92616649 -45.02124971 25.2080071 -43.79800415 24.48977661 C-33.57374577 18.48816828 -23.31604736 12.54627371 -13.03369141 6.64477539 C-12.01968262 6.06203857 -11.00567383 5.47930176 -9.9609375 4.87890625 C-9.07196777 4.3691626 -8.18299805 3.85941895 -7.26708984 3.33422852 C-1.60164684 0 -1.60164684 0 0 0 Z " fill="#E34454" transform="translate(502,300)"/>
<path d="M0 0 C1.55012728 0.76969328 3.07457972 1.59208752 4.578125 2.44921875 C5.92958618 3.21576782 5.92958618 3.21576782 7.30834961 3.99780273 C8.76446655 4.83420288 8.76446655 4.83420288 10.25 5.6875 C11.26779541 6.26765869 12.28559082 6.84781738 13.33422852 7.44555664 C23.59362021 13.30772918 33.79783142 19.26477826 43.99267578 25.23828125 C48.95069751 28.14273691 53.91238105 31.04090775 58.875 33.9375 C59.85976318 34.51234131 60.84452637 35.08718262 61.85913086 35.67944336 C69.22639088 39.97566633 76.6102658 44.24257165 84 48.5 C92.6786637 53.50035869 101.34709886 58.51767499 110 63.5625 C110.96035156 64.12195313 111.92070312 64.68140625 112.91015625 65.2578125 C114.28494141 66.06025391 114.28494141 66.06025391 115.6875 66.87890625 C116.47511719 67.3385376 117.26273437 67.79816895 118.07421875 68.27172852 C119.52248047 69.1272229 119.52248047 69.1272229 121 70 C121.82998505 70.32579041 122.65997009 70.65158081 123.5151062 70.98724365 C126.56996376 72.37139258 128.65210458 73.59055895 131 76 C132.49036544 81.12089306 132.30502723 86.168131 132.1953125 91.4453125 C132.19953946 92.99991115 132.20821911 94.55450328 132.22106934 96.10905457 C132.24306738 100.25945918 132.20444556 104.40717209 132.15222931 108.55722427 C132.10687818 112.83392258 132.11097645 117.1105539 132.11083984 121.38745117 C132.10718388 126.4925319 132.09692178 131.59730188 132.05899048 136.70225525 C131.98846403 146.32630272 132.05971156 155.92180078 132.34375 165.54296875 C132.41583023 168.54899618 132.48444836 171.5550793 132.55169678 174.56121826 C132.60021258 176.38215636 132.66239182 178.20278632 132.73883057 180.02276611 C133.27452447 193.27987185 133.27452447 193.27987185 130.41137695 197.14404297 C128.02885233 198.81052913 125.67760581 199.86895045 123 201 C120.93548621 202.17863431 118.88275956 203.3780646 116.83984375 204.59375 C115.13495332 205.56151732 113.43000342 206.52918825 111.72265625 207.49261475 C108.64322468 209.23037521 105.56986004 210.97880683 102.49609375 212.7265625 C101.87266083 213.08074249 101.24922791 213.43492249 100.60690308 213.79983521 C93.18796382 218.02050638 85.824053 222.33475363 78.46459961 226.65820312 C77.53784424 227.20154297 76.61108887 227.74488281 75.65625 228.3046875 C74.44678711 229.0160083 74.44678711 229.0160083 73.21289062 229.74169922 C71.17148955 230.90248708 69.10400713 231.95872272 67 233 C66.93251692 207.89261985 66.93382745 182.7857039 66.99404907 157.67830658 C66.99989911 155.04540581 67.00442226 152.41250604 67.00854492 149.77960205 C67.02358361 140.8701925 67.05516835 131.96132164 67.13369846 123.0522213 C67.16653211 119.31529159 67.19130783 115.57875684 67.19528198 111.8416748 C67.20023286 107.70249579 67.2444915 103.56467951 67.29296875 99.42578125 C67.28904114 98.20133804 67.28511353 96.97689484 67.28106689 95.71534729 C67.30070496 94.60312302 67.32034302 93.49089874 67.34057617 92.3449707 C67.34723801 91.37888382 67.35389984 90.41279694 67.36076355 89.41743469 C68 87 68 87 70.3886261 85.12980652 C73 84 73 84 75.44140625 84.578125 C79.40261024 86.77946584 83.17602006 89.25086218 86.96484375 91.734375 C89.9005991 93.27645048 89.9005991 93.27645048 92.82421875 92.515625 C96.96853154 90.53777339 100.92683108 88.34213411 104.875 86 C105.65875 85.54882812 106.4425 85.09765625 107.25 84.6328125 C107.98992187 84.19710937 108.72984375 83.76140625 109.4921875 83.3125 C110.16620605 82.91675781 110.84022461 82.52101563 111.53466797 82.11328125 C112.01822754 81.74589844 112.50178711 81.37851563 113 81 C113 80.34 113 79.68 113 79 C112.01386719 78.46375 111.02773438 77.9275 110.01171875 77.375 C100.01948632 71.90095274 90.19024917 66.18370704 80.40447998 60.34918213 C71.59219516 55.098185 62.72888094 49.94714747 53.8125 44.875 C44.95396534 39.83438371 36.11524984 34.76263562 27.3125 29.625 C26.33200684 29.05563721 25.35151367 28.48627441 24.34130859 27.8996582 C19.84675957 25.28285389 15.38317059 22.63377224 10.9765625 19.87109375 C10.20401123 19.39397949 9.43145996 18.91686523 8.63549805 18.42529297 C7.22573257 17.55121645 5.82511103 16.66211195 4.43676758 15.75439453 C0.96758974 13.61778143 -0.83968896 12.99004966 -4.96484375 13.24609375 C-6.46724609 13.61927734 -6.46724609 13.61927734 -8 14 C-8.10807131 12.06372231 -8.1856225 10.12572244 -8.25 8.1875 C-8.29640625 7.10855469 -8.3428125 6.02960937 -8.390625 4.91796875 C-8 2 -8 2 -6.234375 0.05078125 C-3.49350005 -1.23819666 -2.81479663 -0.94253427 0 0 Z " fill="#78CB78" transform="translate(181,16)"/>
<path d="M0 0 C0.78294434 0.43924805 1.56588867 0.87849609 2.37255859 1.33105469 C12.03322555 6.77680704 21.59586133 12.39314142 31.16210938 18.00244141 C36.14635011 20.92410181 41.13523089 23.83779379 46.125 26.75 C47.10791016 27.32387451 48.09082031 27.89774902 49.10351562 28.48901367 C55.41540445 32.17043616 61.74019733 35.82879888 68.07299805 39.47412109 C77.66821782 44.99784613 87.25702198 50.53275751 96.8125 56.125 C97.75303223 56.670354 98.69356445 57.21570801 99.66259766 57.77758789 C100.51772949 58.2802417 101.37286133 58.78289551 102.25390625 59.30078125 C103.00486572 59.73946533 103.7558252 60.17814941 104.52954102 60.63012695 C106.25 61.8125 106.25 61.8125 107.25 63.8125 C103.5379118 66.05054621 99.80307666 68.24745631 96.0625 70.4375 C95.00740234 71.07429688 93.95230469 71.71109375 92.86523438 72.3671875 C91.33286133 73.25664062 91.33286133 73.25664062 89.76953125 74.1640625 C88.83214111 74.71916504 87.89475098 75.27426758 86.92895508 75.84619141 C84.25 76.8125 84.25 76.8125 81.58642578 76.09033203 C77.68867907 73.95858634 73.99897019 71.51247014 70.28515625 69.078125 C66.7970541 67.23349593 66.7970541 67.23349593 61.25 69.8125 C60.92 92.5825 60.59 115.3525 60.25 138.8125 C59.92 138.8125 59.59 138.8125 59.25 138.8125 C59.31396973 137.59256348 59.37793945 136.37262695 59.44384766 135.11572266 C59.65886063 130.54983892 59.75259028 125.98782261 59.81152344 121.41748047 C59.85348031 119.44776652 59.92748946 117.4784471 60.03515625 115.51123047 C60.58615115 105.96189646 60.58615115 105.96189646 58.25 96.8125 C54.02534995 92.21000792 48.18986038 89.9919804 42.4866333 87.7333374 C39.51418248 86.50955884 36.82789334 84.93623004 34.0859375 83.265625 C32.73459717 82.47490601 32.73459717 82.47490601 31.35595703 81.66821289 C30.45474121 81.13832764 29.55352539 80.60844238 28.625 80.0625 C26.56772521 78.8580441 24.51043304 77.65361787 22.453125 76.44921875 C20.91108398 75.54502197 20.91108398 75.54502197 19.33789062 74.62255859 C14.35364995 71.70089822 9.36478373 68.78718109 4.375 65.875 C3.39571533 65.30330078 2.41643066 64.73160156 1.4074707 64.14257812 C-4.99257481 60.41004364 -11.40205878 56.69441084 -17.82714844 53.00512695 C-20.05085978 51.71959432 -22.26656879 50.42010935 -24.47363281 49.10620117 C-29.28529761 46.25830899 -33.92642839 43.63268868 -39.16796875 41.6640625 C-48.20211057 38.03541809 -48.20211057 38.03541809 -50.75 33.8125 C-52.84963669 24.90227707 -53.01074023 13.69457858 -50.75 4.8125 C-48.82885742 2.91577148 -48.82885742 2.91577148 -46.75 1.8125 C-44.06977673 1.88695065 -42.2757966 2.46594032 -40.03686523 3.94165039 C-37.92973569 5.28186748 -36.17501776 6.19070738 -33.75 6.8125 C-30.42733533 5.92313017 -27.86694582 4.13732918 -25.0625 2.1875 C-23.60196464 1.23436259 -22.13976733 0.28376618 -20.67578125 -0.6640625 C-19.99467285 -1.11040039 -19.31356445 -1.55673828 -18.61181641 -2.01660156 C-11.12053345 -6.72787786 -7.21787338 -4.08594812 0 0 Z " fill="#E3E6EE" transform="translate(124.75,70.1875)"/>
<path d="M0 0 C0.07371791 4.88019659 0.14643891 9.76040742 0.21875 14.640625 C0.22999027 15.39621704 0.24123055 16.15180908 0.25281143 16.93029785 C0.38879281 26.10411193 0.51548425 35.27794839 0.62255859 44.45214844 C0.652505 46.99721028 0.68246067 49.54227201 0.71242142 52.08733368 C0.73230101 53.78214068 0.75201222 55.47694966 0.77155685 57.17176056 C0.88062591 66.52107173 1.0253976 75.8656586 1.29168701 85.2119751 C1.40519414 89.30758309 1.48708533 93.40339879 1.56176758 97.49987793 C1.60365583 99.32169348 1.66155949 101.14321672 1.73608398 102.96398926 C2.27326117 116.25261154 2.27326117 116.25261154 -0.54467773 120.11987305 C-2.93572149 121.79368708 -5.31695113 122.8500569 -8 124 C-9.69196095 124.97888451 -11.38324723 125.95930653 -13.0579834 126.96737671 C-15.49123283 128.42763075 -17.95673014 129.82856684 -20.42211914 131.23364258 C-22.32979385 132.32236976 -24.2323377 133.4197141 -26.13476562 134.51757812 C-27.35647183 135.21666862 -28.57846665 135.91525504 -29.80078125 136.61328125 C-30.89559814 137.24016846 -31.99041504 137.86705566 -33.1184082 138.51293945 C-36 140 -36 140 -40 141 C-40 102.06 -40 63.12 -40 23 C-30.76 17.72 -21.52 12.44 -12 7 C-1 0 -1 0 0 0 Z " fill="#5FAF5F" transform="translate(312,93)"/>
<path d="M0 0 C0.77077881 0.43755615 1.54155762 0.8751123 2.33569336 1.32592773 C3.22087646 1.82648682 4.10605957 2.3270459 5.01806641 2.84277344 C5.97753174 3.39280029 6.93699707 3.94282715 7.92553711 4.50952148 C8.93849854 5.08597412 9.95145996 5.66242676 10.99511719 6.25634766 C19.87453677 11.33175163 28.6666195 16.55134954 37.45239258 21.78662109 C45.60219387 26.63702412 53.80757977 31.38187157 62.05053711 36.07202148 C96.90643461 55.91181445 96.90643461 55.91181445 112.86303711 65.94702148 C108.58284216 69.23598791 104.05331642 71.99127442 99.42553711 74.75952148 C98.57926758 75.28739258 97.73299805 75.81526367 96.86108398 76.35913086 C96.03801758 76.84833008 95.21495117 77.3375293 94.36694336 77.84155273 C93.62259033 78.29377197 92.8782373 78.74599121 92.11132812 79.21191406 C89.86303711 79.94702148 89.86303711 79.94702148 87.26293945 79.19091797 C83.30446522 77.13919608 79.6243011 74.65505001 75.89819336 72.21264648 C72.41009121 70.36801742 72.41009121 70.36801742 66.86303711 72.94702148 C66.53303711 95.71702148 66.20303711 118.48702148 65.86303711 141.94702148 C63.08127301 138.46981637 60.83049334 135.41427642 58.61303711 131.63452148 C58.09225586 130.75151367 57.57147461 129.86850586 57.03491211 128.95874023 C56.64819336 128.29487305 56.26147461 127.63100586 55.86303711 126.94702148 C51.96907005 127.63419214 48.69303688 128.67035489 44.86303711 129.94702148 C44.86303711 106.84702148 44.86303711 83.74702148 44.86303711 59.94702148 C46.18303711 59.28702148 47.50303711 58.62702148 48.86303711 57.94702148 C42.36965593 53.43616055 35.64655017 49.44855219 28.75982666 45.5703125 C25.67476478 43.83207583 22.59661312 42.08172106 19.51928711 40.32983398 C18.88705231 39.96992371 18.2548175 39.61001343 17.60342407 39.23919678 C10.85227525 35.38596547 4.16647383 31.42455474 -2.51196289 27.44702148 C-11.33872124 22.19189739 -20.18108461 16.9795298 -29.13696289 11.94702148 C-25.94132139 8.39276685 -22.33898331 6.11642374 -18.19946289 3.82202148 C-17.59166992 3.47526367 -16.98387695 3.12850586 -16.35766602 2.77124023 C-6.09921827 -3.00536141 -6.09921827 -3.00536141 0 0 Z " fill="#E1E6F0" transform="translate(55.136962890625,104.052978515625)"/>
<path d="M0 0 C0.30411529 15.24638557 0.53313299 30.49263117 0.67355824 45.74137115 C0.74050534 52.8224291 0.83170859 59.90159944 0.98071289 66.98144531 C1.12447832 73.81564646 1.19971617 80.64788709 1.23340416 87.48350525 C1.25740596 90.0896642 1.30428069 92.69571704 1.37449074 95.30104065 C1.88870685 115.17474387 1.88870685 115.17474387 -1.22648239 119.83465576 C-4.63266259 123.08398887 -8.56254335 124.51217831 -13 126 C-14.30532574 126.72141883 -15.59451497 127.47496866 -16.84667969 128.28515625 C-20.14651579 130.19233367 -23.44666739 132.09888295 -26.75 134 C-27.93496274 134.68608238 -29.1198588 135.37227993 -30.3046875 136.05859375 C-31.41585937 136.69925781 -32.52703125 137.33992187 -33.671875 138 C-34.6731543 138.5775 -35.67443359 139.155 -36.70605469 139.75 C-39 141 -39 141 -40 141 C-40 101.73 -40 62.46 -40 22 C-31.42 17.05 -22.84 12.1 -14 7 C-2 0 -2 0 0 0 Z " fill="#EEA143" transform="translate(248,131)"/>
<path d="M0 0 C0.68010233 24.25846179 1.35035136 48.52113624 1.5483284 72.7890873 C1.58490914 77.17265753 1.64026947 81.55450089 1.73388672 85.93725586 C1.82653283 90.30070011 1.87528785 94.66258951 1.89283371 99.02696037 C1.90683473 100.66058046 1.93626156 102.29415109 1.98213577 103.92718697 C2.31831238 116.42329361 2.31831238 116.42329361 -0.86784363 120.23394775 C-3.18566538 121.8120559 -5.41370388 122.92937196 -8 124 C-8.99201416 124.5976416 -9.98402832 125.1952832 -11.00610352 125.81103516 C-11.87162842 126.29878418 -12.73715332 126.7865332 -13.62890625 127.2890625 C-14.60150391 127.83820313 -15.57410156 128.38734375 -16.57617188 128.953125 C-17.56166016 129.50484375 -18.54714844 130.0565625 -19.5625 130.625 C-20.55185547 131.18445313 -21.54121094 131.74390625 -22.56054688 132.3203125 C-27.98637433 135.37346557 -33.41974923 138.20987462 -39 141 C-39 101.73 -39 62.46 -39 22 C-30.42 17.05 -21.84 12.1 -13 7 C-1 0 -1 0 0 0 Z " fill="#3B53CF" transform="translate(183,168)"/>
<path d="M0 0 C6.74758842 2.24919614 6.74758842 2.24919614 10.1953125 4.2578125 C10.97874023 4.7101123 11.76216797 5.16241211 12.56933594 5.62841797 C13.41270508 6.12229004 14.25607422 6.61616211 15.125 7.125 C17.00767129 8.21378587 18.89049168 9.30231396 20.7734375 10.390625 C21.77858398 10.97392578 22.78373047 11.55722656 23.81933594 12.15820312 C28.85997699 15.07703918 33.91581022 17.96927426 38.97296143 20.859375 C40.16285947 21.53943351 41.3525961 22.21977453 42.54217529 22.90039062 C51.94084546 28.27743624 61.38103425 33.57645402 70.84008789 38.84667969 C78.00809489 42.85278332 85.10851806 46.96391898 92.1875 51.125 C100.67057013 56.10943401 109.23294342 60.90885081 117.88964844 65.58447266 C126.88746343 70.45270565 135.76446929 75.52478624 144.62670898 80.63476562 C147.74729308 82.42987994 150.87426675 84.21386671 154 86 C154 94.91 154 103.82 154 113 C149.45163786 111.48387929 146.20994737 110.14483535 142.16796875 107.796875 C141.05260742 107.15347168 139.93724609 106.51006836 138.78808594 105.84716797 C138.20184448 105.5057074 137.61560303 105.16424683 137.01159668 104.81243896 C133.87712444 102.98677617 130.73264623 101.17845872 127.58984375 99.3671875 C126.9507608 98.99816315 126.31167786 98.62913879 125.65322876 98.24893188 C119.5525407 94.73020146 113.40509635 91.29754284 107.25 87.875 C99.04555011 83.30485793 90.90875378 78.63404138 82.8125 73.875 C74.31408667 68.88155072 65.73460513 64.07673508 57.06420898 59.38916016 C48.30544674 54.64676017 39.66532607 49.70953008 31.03271484 44.7421875 C25.56623629 41.60188876 20.09049316 38.47778824 14.61602783 35.35144043 C11.5392786 33.59421612 8.46301633 31.83613983 5.38671875 30.078125 C3.60910156 29.06234375 1.83148438 28.0465625 0 27 C0 18.09 0 9.18 0 0 Z " fill="#E3E5EE" transform="translate(86,365)"/>
<path d="M0 0 C0.92675537 0.56323975 1.85351074 1.12647949 2.80834961 1.70678711 C3.86626709 2.34310059 4.92418457 2.97941406 6.01416016 3.63500977 C6.85471451 4.14707977 6.85471451 4.14707977 7.71224976 4.66949463 C10.73090953 6.50757197 13.76453682 8.32067521 16.79663086 10.13647461 C17.42423813 10.51308228 18.0518454 10.88968994 18.69847107 11.27770996 C25.2726973 15.2140616 31.92299169 19.01263223 38.58569336 22.79663086 C50.23806106 29.42417823 61.83304161 36.14515767 73.40112305 42.91870117 C76.55689641 44.76445327 79.71545205 46.6053662 82.87475586 48.44506836 C83.94564453 49.06881348 85.0165332 49.69255859 86.11987305 50.33520508 C88.14895093 51.5168963 90.1782315 52.69823958 92.20776367 53.87915039 C98.29998255 57.4295896 104.36089811 61.02857692 110.39819336 64.67163086 C108.70232886 69.75922436 103.63659991 71.41208912 99.14819336 73.98413086 C98.19299805 74.55969727 97.23780273 75.13526367 96.25366211 75.72827148 C94.8634082 76.52974609 94.8634082 76.52974609 93.44506836 77.34741211 C92.59783203 77.84152588 91.7505957 78.33563965 90.87768555 78.84472656 C88.39819336 79.67163086 88.39819336 79.67163086 85.76196289 78.92919922 C81.85859193 76.85253491 78.21334517 74.37932945 74.53100586 71.93725586 C70.81464609 70.06243151 70.81464609 70.06243151 64.39819336 72.67163086 C64.39819336 95.11163086 64.39819336 117.55163086 64.39819336 140.67163086 C64.06819336 140.67163086 63.73819336 140.67163086 63.39819336 140.67163086 C63.4673999 139.48722412 63.53660645 138.30281738 63.60791016 137.08251953 C65.901958 116.21646939 65.901958 116.21646939 60.48608398 97.11743164 C57.1935146 94.91092476 53.90775869 93.76677455 50.15649414 92.55908203 C47.39531715 91.51245993 45.54369337 90.71720962 43.39819336 88.67163086 C40.77384417 80.0911036 41.09146905 68.30526396 43.39819336 59.67163086 C45.46435547 57.78100586 45.46435547 57.78100586 47.39819336 56.67163086 C46.69138428 56.27073242 45.9845752 55.86983398 45.25634766 55.45678711 C30.79544065 47.24594299 16.40323619 38.94018463 2.11645508 30.42944336 C-8.05025043 24.38152611 -18.30433691 18.49361668 -28.60180664 12.67163086 C-28.60180664 11.35163086 -28.60180664 10.03163086 -28.60180664 8.67163086 C-26.04144743 7.20942807 -23.47867104 5.75177933 -20.91430664 4.29663086 C-20.19307617 3.88413086 -19.4718457 3.47163086 -18.72875977 3.04663086 C-7.01896015 -3.58357532 -7.01896015 -3.58357532 0 0 Z " fill="#E2E6EE" transform="translate(184.601806640625,30.328369140625)"/>
<path d="M0 0 C11.04488827 5.27184583 21.60383021 11.27393452 32.19824219 17.38964844 C36.80427519 20.03703374 41.43395108 22.64224798 46.0625 25.25 C55.28271464 30.4504811 64.47505979 35.69880858 73.66055298 40.96026611 C81.99553719 45.73283965 90.35961445 50.45034721 98.75 55.125 C107.9628438 60.25796369 117.08155827 65.53494397 126.17260742 70.88012695 C132.90235697 74.82029125 139.70202892 78.60527784 146.5625 82.3125 C149.21643059 83.75740724 151.86930131 85.20423163 154.52148438 86.65234375 C156.14189437 87.53341774 157.7654843 88.40867488 159.39257812 89.27734375 C161.5463017 90.4326402 163.68062508 91.61749585 165.8125 92.8125 C166.43519775 93.13710205 167.05789551 93.4617041 167.69946289 93.79614258 C169.39453125 94.76953125 169.39453125 94.76953125 172 97 C173.12742058 102.27995412 173.11942656 107.4873429 173.0625 112.85546875 C173.05682007 114.09155632 173.05682007 114.09155632 173.05102539 115.35261536 C173.03889264 117.96429894 173.0202583 120.5758676 173 123.1875 C172.97338661 126.63931993 172.95341715 130.09108481 172.9375 133.54296875 C172.92920166 134.33156784 172.92090332 135.12016693 172.91235352 135.93266296 C172.89652664 139.46816102 173.0460691 142.5996171 174 146 C169.83974192 145.40574517 166.8839914 144.00445795 163.265625 141.89453125 C162.14704102 141.24790527 161.02845703 140.6012793 159.87597656 139.93505859 C158.6673112 139.22755018 157.45865252 138.52003036 156.25 137.8125 C154.3533268 136.71275091 152.4551489 135.61563243 150.55682373 134.51873779 C149.26378091 133.77149296 147.97118143 133.02348047 146.67901611 132.27471924 C140.57360262 128.74033086 134.41634097 125.3018352 128.25 121.875 C120.04543049 117.3050788 111.90874831 112.63403817 103.8125 107.875 C95.31408667 102.88155072 86.73460513 98.07673508 78.06420898 93.38916016 C69.27429275 88.62989195 60.60380804 83.67437029 51.94042969 78.68945312 C46.90180525 75.79446134 41.85458331 72.91451292 36.80831909 70.03286743 C35.01332464 69.00761071 33.21864224 67.98181005 31.42407227 66.95581055 C25.81296651 63.74796846 20.20006629 60.54335607 14.58203125 57.34765625 C13.1134668 56.51137695 13.1134668 56.51137695 11.61523438 55.65820312 C9.78786499 54.61781233 7.95977374 53.57868809 6.13085938 52.54101562 C5.33099609 52.08533203 4.53113281 51.62964844 3.70703125 51.16015625 C2.66252808 50.56666382 2.66252808 50.56666382 1.59692383 49.96118164 C-0 49 -0 49 -1 48 C-1.94306765 42.94172806 -1.94306765 42.94172806 -1 40 C2.76812116 36.69596729 6.91415605 34 12 34 C12 36.31 12 38.62 12 41 C12.71341553 41.26989746 13.42683105 41.53979492 14.16186523 41.81787109 C17.03978214 43.0165699 19.68702607 44.3975562 22.41015625 45.9140625 C23.46799316 46.50195557 24.52583008 47.08984863 25.61572266 47.69555664 C26.75315918 48.33227295 27.8905957 48.96898926 29.0625 49.625 C30.26606699 50.29622558 31.46968117 50.96736657 32.67333984 51.63842773 C42.36912925 57.05264512 52.01322305 62.5562677 61.64575195 68.08203125 C69.31868707 72.48160319 77.02297967 76.82118222 84.75 81.125 C92.95409788 85.69578975 101.09123067 90.36594948 109.1875 95.125 C117.66686203 100.10725522 126.22483029 104.90592648 134.87866211 109.57788086 C144.0749568 114.55177186 153.14065183 119.74736932 162.19433594 124.9753418 C163.44404679 125.68451384 164.71479116 126.35739558 166 127 C166 118.09 166 109.18 166 100 C164.35 99.34 162.7 98.68 161 98 C159.46629285 97.22550447 157.94559155 96.42482483 156.4375 95.6015625 C155.56939697 95.12855713 154.70129395 94.65555176 153.80688477 94.16821289 C152.88061279 93.65895264 151.95434082 93.14969238 151 92.625 C150.02667725 92.09189209 149.05335449 91.55878418 148.05053711 91.00952148 C139.75378217 86.44875181 131.52876871 81.76807486 123.3203125 77.05078125 C117.87512203 73.92245807 112.40782293 70.83410512 106.9375 67.75 C97.71744868 62.54922759 88.52494186 57.30119236 79.33944702 52.03973389 C71.00446167 47.2671597 62.64032204 42.5497681 54.25 37.875 C44.95809081 32.69647024 35.75310102 27.38330528 26.57910156 21.99902344 C17.79798529 16.85491685 8.9244348 11.89040998 0 7 C0 4.69 0 2.38 0 0 Z " fill="#EC5E72" transform="translate(74,351)"/>
<path d="M0 0 C3.54290622 1.23589752 6.48047334 2.98813085 9.6875 4.9375 C9.6875 5.5975 9.6875 6.2575 9.6875 6.9375 C10.41606201 7.2149707 11.14462402 7.49244141 11.89526367 7.77832031 C14.51444348 8.86565665 16.89872742 10.08647015 19.36328125 11.484375 C20.26103271 11.99218506 21.15878418 12.49999512 22.08374023 13.02319336 C23.04610596 13.57241455 24.00847168 14.12163574 25 14.6875 C26.01328369 15.26314697 27.02656738 15.83879395 28.07055664 16.43188477 C37.27585216 21.67474378 46.43168353 27.0013454 55.5703125 32.359375 C59.84696236 34.86623305 64.13460114 37.35299049 68.4296875 39.828125 C69.52933838 40.46371338 70.62898926 41.09930176 71.76196289 41.75415039 C73.87624019 42.9757222 75.99253059 44.19381825 78.11108398 45.40795898 C79.53529663 46.23275757 79.53529663 46.23275757 80.98828125 47.07421875 C82.24378784 47.79677856 82.24378784 47.79677856 83.5246582 48.53393555 C85.53818952 49.84060577 87.07455819 51.17113122 88.6875 52.9375 C87.0375 53.5975 85.3875 54.2575 83.6875 54.9375 C83.6875 64.1775 83.6875 73.4175 83.6875 82.9375 C79.16014544 81.42838181 76.13060082 80.19706603 72.1796875 77.8046875 C71.12523437 77.17175781 70.07078125 76.53882813 68.984375 75.88671875 C68.42814453 75.54946777 67.87191406 75.2122168 67.29882812 74.86474609 C64.28777663 73.0399947 61.26470965 71.23535392 58.2421875 69.4296875 C57.30448517 68.86879425 57.30448517 68.86879425 56.34783936 68.29656982 C49.84680351 64.41742139 43.27191487 60.67278214 36.6875 56.9375 C25.73043485 50.71379414 14.86303309 44.3524395 4.0390625 37.90039062 C2.97171875 37.26423828 1.904375 36.62808594 0.8046875 35.97265625 C-0.13777832 35.4094165 -1.08024414 34.84617676 -2.05126953 34.26586914 C-3.44689005 33.44600613 -4.8647619 32.66136905 -6.3125 31.9375 C-6.41143453 27.86253897 -6.48399694 23.78804344 -6.53222656 19.7121582 C-6.55233275 18.32596662 -6.57962245 16.93985975 -6.61425781 15.55395508 C-6.66281225 13.56108094 -6.68333972 11.56758611 -6.703125 9.57421875 C-6.72407227 8.37498779 -6.74501953 7.17575684 -6.76660156 5.94018555 C-6.3125 2.9375 -6.3125 2.9375 -4.43261719 1.01879883 C-2.3125 -0.0625 -2.3125 -0.0625 0 0 Z " fill="#FDBB62" transform="translate(80.3125,72.0625)"/>
<path d="M0 0 C3.86283887 1.38312776 7.10242079 3.46661828 10.55078125 5.66796875 C12.16787262 6.67802323 13.78643996 7.68571743 15.40625 8.69140625 C16.26911621 9.22733398 17.13198242 9.76326172 18.02099609 10.31542969 C22.75712641 13.2175329 27.55999592 16.00390141 32.36328125 18.79296875 C33.37205322 19.37957275 34.3808252 19.96617676 35.42016602 20.57055664 C38.52544818 22.37516625 41.63183117 24.17787048 44.73828125 25.98046875 C59.47143106 34.53872971 74.15586394 43.16740379 88.73828125 51.98046875 C87.36328125 53.48046875 87.36328125 53.48046875 85.73828125 54.98046875 C85.07828125 54.98046875 84.41828125 54.98046875 83.73828125 54.98046875 C83.73828125 64.22046875 83.73828125 73.46046875 83.73828125 82.98046875 C80.08876642 81.52066282 76.94868277 80.07979109 73.5546875 78.1796875 C72.55638916 77.621604 71.55809082 77.06352051 70.52954102 76.48852539 C69.46405029 75.8877417 68.39855957 75.28695801 67.30078125 74.66796875 C66.18695068 74.04204834 65.07312012 73.41612793 63.92553711 72.77124023 C55.93959973 68.26578526 48.02267448 63.65373064 40.14550781 58.96118164 C31.76058188 53.97004615 23.30543633 49.10386075 14.83032227 44.26782227 C-3.46263352 33.77955398 -3.46263352 33.77955398 -6.26171875 30.98046875 C-6.57178105 26.362465 -6.54016235 21.73259868 -6.57421875 17.10546875 C-6.60322266 15.79964844 -6.63222656 14.49382813 -6.66210938 13.1484375 C-6.67048828 11.89933594 -6.67886719 10.65023437 -6.6875 9.36328125 C-6.70208252 8.21230957 -6.71666504 7.06133789 -6.73168945 5.87548828 C-6.26171875 2.98046875 -6.26171875 2.98046875 -4.37646484 1.08032227 C-2.26171875 -0.01953125 -2.26171875 -0.01953125 0 0 Z " fill="#77CB77" transform="translate(144.26171875,35.01953125)"/>
<path d="M0 0 C0.79615723 0.55179932 0.79615723 0.55179932 1.60839844 1.11474609 C7.31095174 5.00015172 13.16391158 8.38175913 19.25 11.625 C26.69846951 15.64102982 34.10010026 19.72178976 41.4375 23.9375 C42.72950317 24.6797583 42.72950317 24.6797583 44.04760742 25.43701172 C44.91619385 25.93604004 45.78478027 26.43506836 46.6796875 26.94921875 C52.12487797 30.07754193 57.59217707 33.16589488 63.0625 36.25 C72.28255132 41.45077241 81.47505814 46.69880764 90.66055298 51.96026611 C98.99553776 56.73283997 107.3596462 61.45028956 115.75 66.125 C124.99677659 71.27762197 134.15301147 76.56963655 143.28027344 81.93066406 C152.75046851 87.47627379 162.34921316 92.77626874 172 98 C169.39704371 100.74429329 166.88068447 102.94443623 163.625 104.875 C162.89539063 105.32617188 162.16578125 105.77734375 161.4140625 106.2421875 C157.29941648 107.53384013 154.50829009 105.78401385 150.81787109 103.86572266 C148.1489768 102.40391943 145.51081766 100.89562923 142.875 99.375 C141.87581543 98.80450928 140.87663086 98.23401855 139.84716797 97.64624023 C136.56187625 95.76918328 133.28088222 93.88475203 130 92 C125.96503313 89.6894323 121.92882246 87.38104339 117.89227295 85.07324219 C116.11354255 84.05594723 114.33532448 83.0377607 112.55712891 82.01953125 C104.81499236 77.58938149 97.04227481 73.216419 89.25 68.875 C81.04596361 64.3040964 72.90877221 59.63405222 64.8125 54.875 C56.3177922 49.88372799 47.74270008 45.07969874 39.07519531 40.39575195 C31.1215153 36.09072612 23.27083374 31.61915847 15.4296875 27.11328125 C9.3656375 23.62931927 3.27749052 20.18836109 -2.8125 16.75 C-3.82820068 16.17644775 -4.84390137 15.60289551 -5.89038086 15.01196289 C-8.26002009 13.67422688 -10.62987571 12.33687637 -13 11 C-13.33 12.65 -13.66 14.3 -14 16 C-14.33 16 -14.66 16 -15 16 C-15.46875 12.80859375 -15.46875 12.80859375 -15 9 C-12.81540635 6.79189163 -10.24169953 5.48274976 -7.5 4.0625 C-6.78457031 3.66482422 -6.06914063 3.26714844 -5.33203125 2.85742188 C-3.56765603 1.88113425 -1.78537967 0.93732433 0 0 Z " fill="#FC90AA" transform="translate(88,341)"/>
<path d="M0 0 C2.65527344 1.13891602 2.65527344 1.13891602 5.359375 2.75390625 C6.38087646 3.35436768 7.40237793 3.9548291 8.45483398 4.57348633 C9.54223877 5.22986084 10.62964355 5.88623535 11.75 6.5625 C13.47547857 7.58212895 15.20097055 8.60173597 16.92723083 9.62004089 C18.72927893 10.68502303 20.5280362 11.755419 22.32666016 12.82617188 C25.9953022 15.00429434 29.68707204 17.14068501 33.38671875 19.265625 C33.98189301 19.60750351 34.57706726 19.94938202 35.1902771 20.30162048 C36.36530668 20.97616554 37.5404452 21.65052087 38.71569824 22.32467651 C41.45664286 23.89719754 44.19577088 25.47283161 46.93359375 27.05078125 C48.2956897 27.83449097 48.2956897 27.83449097 49.68530273 28.6340332 C51.49126201 29.69977966 53.25521129 30.83680752 55 32 C55.1875 35.125 55.1875 35.125 55 38 C54.23856689 38.43868408 53.47713379 38.87736816 52.69262695 39.3293457 C49.85030036 40.96717549 47.00820408 42.60540352 44.16625977 44.24389648 C42.93946294 44.95108596 41.71257625 45.65811957 40.4855957 46.36499023 C38.71541709 47.38483736 36.94556931 48.40525657 35.17578125 49.42578125 C34.11270752 50.03848877 33.04963379 50.65119629 31.9543457 51.2824707 C30.0492401 52.39001701 28.16025387 53.52600565 26.29272461 54.69580078 C23.21938467 56.44404719 21.49910156 56.49178915 18 56 C15.43143332 54.74234926 13.14991762 53.46112227 10.75 51.9375 C9.25377452 51.02152301 7.75629046 50.10759993 6.2578125 49.1953125 C5.4318457 48.6890332 4.60587891 48.18275391 3.75488281 47.66113281 C-2.64302486 43.80333737 -9.16164373 40.14702647 -15.64941406 36.44311523 C-18.77730509 34.64695041 -21.89058449 32.82793242 -25 31 C-26.05606445 30.39333496 -27.11212891 29.78666992 -28.20019531 29.16162109 C-29.19889648 28.56559082 -30.19759766 27.96956055 -31.2265625 27.35546875 C-32.12197754 26.82977295 -33.01739258 26.30407715 -33.93994141 25.76245117 C-36.4535716 23.61195385 -36.71512626 22.23535179 -37 19 C-30.38938267 14.50687004 -23.660806 10.2461045 -16.8125 6.125 C-15.85408203 5.53203125 -14.89566406 4.9390625 -13.90820312 4.328125 C-12.97556641 3.76867187 -12.04292969 3.20921875 -11.08203125 2.6328125 C-10.24905518 2.12637207 -9.4160791 1.61993164 -8.55786133 1.09814453 C-5.42518897 -0.24677866 -3.3839817 -0.37757996 0 0 Z " fill="#FEFDFE" transform="translate(333,221)"/>
<path d="M0 0 C3.34668483 1.7435779 6.61500437 3.59997243 9.875 5.5 C10.75414063 5.99886719 11.63328125 6.49773437 12.5390625 7.01171875 C13.36921875 7.49253906 14.199375 7.97335938 15.0546875 8.46875 C15.81249512 8.90638672 16.57030273 9.34402344 17.35107422 9.79492188 C17.89521973 10.19259766 18.43936523 10.59027344 19 11 C19 11.66 19 12.32 19 13 C19.70600342 13.26393555 20.41200684 13.52787109 21.1394043 13.79980469 C24.16859058 15.07073408 26.92080195 16.56762793 29.76953125 18.203125 C30.89327148 18.84652832 32.01701172 19.48993164 33.17480469 20.15283203 C34.38744947 20.85174979 35.60001254 21.55080934 36.8125 22.25 C38.07313855 22.97397607 39.33388216 23.69776921 40.59472656 24.42138672 C51.45080417 30.65838592 62.2687045 36.96082583 73.07324219 43.28662109 C78.0050807 46.17381184 82.93960361 49.05639615 87.875 51.9375 C88.84493896 52.50388184 89.81487793 53.07026367 90.81420898 53.65380859 C96.26247276 56.8317013 101.71849353 59.99571024 107.18359375 63.14453125 C107.78081238 63.48866562 108.37803101 63.83279999 108.99334717 64.18736267 C111.89867793 65.86098914 114.80498473 67.53287989 117.71240234 69.20288086 C119.2720874 70.10018921 119.2720874 70.10018921 120.86328125 71.015625 C121.78407471 71.54446289 122.70486816 72.07330078 123.65356445 72.61816406 C125.47062767 73.68824811 127.24541946 74.83027964 129 76 C129.266487 79.05075084 129.34757146 81.89626179 129.29296875 84.9453125 C129.28872391 85.8303244 129.28447906 86.7153363 129.28010559 87.62716675 C129.26328259 90.46008445 129.22562425 93.29229652 129.1875 96.125 C129.17245782 98.04295849 129.15876861 99.96092811 129.14648438 101.87890625 C129.11336727 106.58621031 129.06156055 111.29298544 129 116 C128.67 116 128.34 116 128 116 C127.67 103.46 127.34 90.92 127 78 C122.545 80.536875 118.09 83.07375 113.5 85.6875 C111.41655273 86.87218872 111.41655273 86.87218872 109.29101562 88.08081055 C108.17404297 88.71801025 107.05707031 89.35520996 105.90625 90.01171875 C105.0015094 90.52492928 105.0015094 90.52492928 104.07849121 91.04850769 C100.7621466 92.94185106 97.56409872 94.93697941 94.40625 97.08203125 C91 99 91 99 86 98 C79.73 94.37 73.46 90.74 67 87 C67 109.77 67 132.54 67 156 C66.34 155.67 65.68 155.34 65 155 C65.01486026 146.05501404 65.0563866 137.11066747 65.13209057 128.16598797 C65.16640159 124.0126846 65.19147683 119.85975065 65.19555664 115.70629883 C65.19983096 111.69889798 65.2282198 107.69233102 65.27343178 103.6851902 C65.28643487 102.15541247 65.29070449 100.62553507 65.28615379 99.09570885 C65.28126702 96.954407 65.30724611 94.81556069 65.34057617 92.67456055 C65.34723801 91.45544479 65.35389984 90.23632904 65.36076355 88.98027039 C66 86 66 86 68.38887024 84.04670715 C71 83 71 83 73.4375 83.578125 C77.42485912 85.79062305 81.2367721 88.25545947 85.0625 90.734375 C87.87608529 92.32658345 87.87608529 92.32658345 90.39331055 91.24169922 C92.88438351 90.05507403 95.26329836 88.79153973 97.64453125 87.3984375 C98.48564453 86.90859375 99.32675781 86.41875 100.19335938 85.9140625 C101.05767578 85.40617187 101.92199219 84.89828125 102.8125 84.375 C104.13797852 83.6015625 104.13797852 83.6015625 105.49023438 82.8125 C107.66194789 81.54468886 109.8317818 80.27377652 112 79 C111.02281006 78.43623657 111.02281006 78.43623657 110.02587891 77.86108398 C109.10210449 77.32813721 108.17833008 76.79519043 107.2265625 76.24609375 C106.18741699 75.64659912 105.14827148 75.04710449 104.07763672 74.42944336 C101.74328358 73.08267577 99.40896765 71.73584393 97.07470703 70.38891602 C91.16021511 66.97622702 85.24511559 63.56460594 79.328125 60.15625 C65.86311989 52.39813243 52.42401454 44.5972138 39.00732422 36.75585938 C35.90367348 34.9437587 32.79783148 33.1354649 29.69140625 31.328125 C28.65258301 30.72307129 27.61375977 30.11801758 26.54345703 29.49462891 C24.49768535 28.3043442 22.45051692 27.11645639 20.40185547 25.93115234 C16.02805881 23.39267784 11.68774875 20.83329167 7.44140625 18.0859375 C6.764729 17.65450439 6.08805176 17.22307129 5.39086914 16.77856445 C3.655621 15.6625837 1.9363198 14.52190806 0.21875 13.37890625 C-4.07332235 11.54019079 -6.47242688 12.0895641 -11 13 C-11.13504138 11.06440687 -11.23201129 9.126128 -11.3125 7.1875 C-11.37050781 6.10855469 -11.42851563 5.02960938 -11.48828125 3.91796875 C-11 1 -11 1 -8.85546875 -1.01171875 C-4.97507206 -2.35472882 -3.72879898 -1.72776501 0 0 Z " fill="#7EAFFA" transform="translate(55,91)"/>
<path d="M0 0 C1.55012728 0.76969328 3.07457972 1.59208752 4.578125 2.44921875 C5.92958618 3.21576782 5.92958618 3.21576782 7.30834961 3.99780273 C8.76446655 4.83420288 8.76446655 4.83420288 10.25 5.6875 C11.26779541 6.26765869 12.28559082 6.84781738 13.33422852 7.44555664 C23.59362021 13.30772918 33.79783142 19.26477826 43.99267578 25.23828125 C48.95069751 28.14273691 53.91238105 31.04090775 58.875 33.9375 C59.85976318 34.51234131 60.84452637 35.08718262 61.85913086 35.67944336 C69.22639088 39.97566633 76.6102658 44.24257165 84 48.5 C92.6786637 53.50035869 101.34709886 58.51767499 110 63.5625 C110.96035156 64.12195313 111.92070312 64.68140625 112.91015625 65.2578125 C118.9675686 68.79343293 124.99417778 72.37745349 131 76 C128.15222869 79.06599772 125.33668676 81.16570853 121.7109375 83.2421875 C120.68613281 83.83386719 119.66132813 84.42554687 118.60546875 85.03515625 C117.53941406 85.64230469 116.47335937 86.24945313 115.375 86.875 C113.27830919 88.08014367 111.1819516 89.28586727 109.0859375 90.4921875 C108.06467773 91.07323242 107.04341797 91.65427734 105.99121094 92.25292969 C104.02720611 93.40004188 102.08610224 94.58748315 100.17285156 95.81738281 C99.30370117 96.37522461 98.43455078 96.93306641 97.5390625 97.5078125 C96.78061035 98.01199707 96.0221582 98.51618164 95.24072266 99.03564453 C92.34009597 100.28400751 90.97592851 99.96963218 88 99 C85.7800293 97.87670898 85.7800293 97.87670898 83.57421875 96.49609375 C82.77822266 96.00302734 81.98222656 95.50996094 81.16210938 95.00195312 C79.93717773 94.22754883 79.93717773 94.22754883 78.6875 93.4375 C77.85154297 92.91736328 77.01558594 92.39722656 76.15429688 91.86132812 C74.09855795 90.58089645 72.04742777 89.2936642 70 88 C70.495 86.515 70.495 86.515 71 85 C72.84619141 84.19116211 72.84619141 84.19116211 75 84 C78.25329449 85.8249293 81.27890248 87.79938031 84.3359375 89.92773438 C88.29350403 92.56118475 88.29350403 92.56118475 92.921875 92.58984375 C96.97541864 90.49619875 100.95100725 88.32779231 104.875 86 C105.65875 85.54882812 106.4425 85.09765625 107.25 84.6328125 C107.98992187 84.19710937 108.72984375 83.76140625 109.4921875 83.3125 C110.16620605 82.91675781 110.84022461 82.52101563 111.53466797 82.11328125 C112.01822754 81.74589844 112.50178711 81.37851563 113 81 C113 80.34 113 79.68 113 79 C112.01386719 78.46375 111.02773438 77.9275 110.01171875 77.375 C100.01948632 71.90095274 90.19024917 66.18370704 80.40447998 60.34918213 C71.59219516 55.098185 62.72888094 49.94714747 53.8125 44.875 C44.95396534 39.83438371 36.11524984 34.76263562 27.3125 29.625 C26.33200684 29.05563721 25.35151367 28.48627441 24.34130859 27.8996582 C19.84675957 25.28285389 15.38317059 22.63377224 10.9765625 19.87109375 C10.20401123 19.39397949 9.43145996 18.91686523 8.63549805 18.42529297 C7.22573257 17.55121645 5.82511103 16.66211195 4.43676758 15.75439453 C0.96758974 13.61778143 -0.83968896 12.99004966 -4.96484375 13.24609375 C-6.46724609 13.61927734 -6.46724609 13.61927734 -8 14 C-8.10807131 12.06372231 -8.1856225 10.12572244 -8.25 8.1875 C-8.29640625 7.10855469 -8.3428125 6.02960937 -8.390625 4.91796875 C-8 2 -8 2 -6.234375 0.05078125 C-3.49350005 -1.23819666 -2.81479663 -0.94253427 0 0 Z " fill="#96D696" transform="translate(181,16)"/>
<path d="M0 0 C4.5114075 2.07408933 8.6835528 4.56580609 12.91015625 7.1640625 C13.80782715 7.70893311 14.70549805 8.25380371 15.63037109 8.81518555 C20.26276654 11.63155194 24.87147067 14.48452389 29.47265625 17.3515625 C38.03309893 22.64566469 46.79802227 27.59402264 55.5234375 32.609375 C61.81364415 36.2263548 68.0840666 39.87622986 74.34765625 43.5390625 C82.74454032 48.44888694 91.16506684 53.31584916 99.59765625 58.1640625 C110.59490329 64.49040041 121.50085057 70.95841899 132.34765625 77.5390625 C129.23374526 79.98729842 125.98907323 81.97439538 122.55078125 83.9375 C121.42671875 84.58203125 120.30265625 85.2265625 119.14453125 85.890625 C117.96235849 86.56531255 116.78006602 87.23979041 115.59765625 87.9140625 C113.28923691 89.23242643 110.98226651 90.55324703 108.67578125 91.875 C107.03512695 92.81037598 107.03512695 92.81037598 105.36132812 93.76464844 C102.7778659 95.28576019 100.31020038 96.89459883 97.83203125 98.578125 C94.34765625 100.5390625 94.34765625 100.5390625 91.890625 100.6640625 C87.95909842 98.92476963 84.32577925 96.7776109 80.66015625 94.5390625 C79.13562419 93.62205074 77.61089401 92.70536825 76.0859375 91.7890625 C75.41602783 91.38171875 74.74611816 90.974375 74.0559082 90.5546875 C72.32357738 89.49673817 72.32357738 89.49673817 70.34765625 88.5390625 C70.34765625 111.3090625 70.34765625 134.0790625 70.34765625 157.5390625 C69.68765625 157.2090625 69.02765625 156.8790625 68.34765625 156.5390625 C68.36251651 147.59407654 68.40404285 138.64972997 68.47974682 129.70505047 C68.51405784 125.5517471 68.53913308 121.39881315 68.54321289 117.24536133 C68.54748721 113.23796048 68.57587605 109.23139352 68.62108803 105.2242527 C68.63409112 103.69447497 68.63836074 102.16459757 68.63381004 100.63477135 C68.62892327 98.4934695 68.65490236 96.35462319 68.68823242 94.21362305 C68.69489426 92.99450729 68.70155609 91.77539154 68.7084198 90.51933289 C69.34765625 87.5390625 69.34765625 87.5390625 71.73652649 85.58576965 C74.34765625 84.5390625 74.34765625 84.5390625 76.78515625 85.1171875 C80.77251537 87.32968555 84.58442835 89.79452197 88.41015625 92.2734375 C91.18503792 93.80296662 91.18503792 93.80296662 93.64453125 93.05859375 C94.5365625 92.55714844 95.42859375 92.05570312 96.34765625 91.5390625 C97.02763672 91.17635254 97.70761719 90.81364258 98.40820312 90.43994141 C100.82125761 89.14694469 103.21020395 87.81618851 105.59765625 86.4765625 C106.42523438 86.01701172 107.2528125 85.55746094 108.10546875 85.08398438 C111.9541081 83.12792959 111.9541081 83.12792959 115.34765625 80.5390625 C114.68572266 80.1579834 114.02378906 79.7769043 113.34179688 79.38427734 C96.32343845 69.58378773 79.34357832 59.71951728 62.38867188 49.80957031 C59.4170012 48.07299414 56.4449618 46.33705178 53.47265625 44.6015625 C52.49417725 44.03018555 51.51569824 43.45880859 50.50756836 42.87011719 C45.20852102 39.77933054 39.90202318 36.70202252 34.5859375 33.640625 C33.45889404 32.99150146 32.33185059 32.34237793 31.1706543 31.67358398 C28.93781136 30.3894618 26.70362645 29.10766987 24.46801758 27.82836914 C19.79945503 25.1490913 15.15742391 22.45729884 10.62109375 19.55859375 C9.93732666 19.12587158 9.25355957 18.69314941 8.54907227 18.24731445 C6.82154149 17.14229315 5.10913589 16.0137173 3.3984375 14.8828125 C-0.3873425 13.21532426 -2.67995212 13.6196662 -6.65234375 14.5390625 C-6.76041506 12.60278481 -6.83796625 10.66478494 -6.90234375 8.7265625 C-6.94875 7.64761719 -6.99515625 6.56867187 -7.04296875 5.45703125 C-6.65234375 2.5390625 -6.65234375 2.5390625 -5.01171875 0.52734375 C-2.65234375 -0.4609375 -2.65234375 -0.4609375 0 0 Z " fill="#FBDB93" transform="translate(115.65234375,52.4609375)"/>
<path d="M0 0 C3.32082852 2.04326047 6.72686772 3.92378282 10.13232422 5.8215332 C20.45551096 11.5820979 30.69403356 17.49521139 40.95236206 23.37030029 C49.28788526 28.14326283 57.65249329 32.86115788 66.04345703 37.53613281 C74.24749342 42.10703641 82.38468482 46.7770806 90.48095703 51.53613281 C98.9691423 56.52357234 107.5372235 61.32477593 116.19848633 66.00439453 C125.19209208 70.87156062 134.06239193 75.94501383 142.92382812 81.04785156 C146.47991272 83.09371766 150.04288242 85.12747368 153.60595703 87.16113281 C155.50179036 88.24446615 157.3976237 89.32779948 159.29345703 90.41113281 C158.08714059 94.03008215 156.42117838 94.85493683 153.27783203 96.83691406 C149.3007425 97.98776477 145.19342589 94.90284593 141.73095703 93.01269531 C140.42940674 92.3035498 140.42940674 92.3035498 139.1015625 91.58007812 C138.1748877 91.07057617 137.24821289 90.56107422 136.29345703 90.03613281 C135.31650879 89.50084961 134.33956055 88.96556641 133.33300781 88.4140625 C124.23384392 83.41091457 115.21659805 78.27008952 106.21630859 73.09179688 C100.66319576 69.89871061 95.10376398 66.71666851 89.54345703 63.53613281 C88.95058899 63.19684753 88.35772095 62.85756226 87.74688721 62.50799561 C78.34966082 57.13191092 68.91091003 51.83383595 59.45336914 46.56445312 C52.28536214 42.55834949 45.18493897 38.44721384 38.10595703 34.28613281 C29.62429479 29.30252604 21.06322898 24.5041379 12.40820312 19.82885742 C3.29372605 14.89702863 -5.71745909 9.78571355 -14.6796875 4.58251953 C-16.37511075 3.60267844 -18.08420339 2.64653999 -19.79638672 1.69628906 C-20.42673828 1.2721875 -21.05708984 0.84808594 -21.70654297 0.41113281 C-21.70654297 -0.24886719 -21.70654297 -0.90886719 -21.70654297 -1.58886719 C-13.80162571 -9.12960126 -8.04736611 -5.04538207 0 0 Z " fill="#FD8FA9" transform="translate(123.70654296875,334.5888671875)"/>
<path d="M0 0 C3.92484562 1.71180014 7.48340251 3.78555243 11.1171875 6.0390625 C11.80554688 6.45929688 12.49390625 6.87953125 13.203125 7.3125 C14.88610408 8.34098722 16.56461282 9.3767835 18.2421875 10.4140625 C17.2421875 13.4140625 17.2421875 13.4140625 15.2421875 14.4140625 C14.9121875 37.1840625 14.5821875 59.9540625 14.2421875 83.4140625 C11.4604234 79.93685738 9.20964373 76.88131743 6.9921875 73.1015625 C6.47140625 72.21855469 5.950625 71.33554688 5.4140625 70.42578125 C4.83398438 69.42998047 4.83398438 69.42998047 4.2421875 68.4140625 C0.34822044 69.10123316 -2.92781272 70.13739591 -6.7578125 71.4140625 C-6.7578125 48.3140625 -6.7578125 25.2140625 -6.7578125 1.4140625 C-2.7578125 -0.5859375 -2.7578125 -0.5859375 0 0 Z " fill="#FEFEFE" transform="translate(106.7578125,162.5859375)"/>
<path d="M0 0 C0 2.31 0 4.62 0 7 C0.71341553 7.26989746 1.42683105 7.53979492 2.16186523 7.81787109 C5.03978214 9.0165699 7.68702607 10.3975562 10.41015625 11.9140625 C11.46799316 12.50195557 12.52583008 13.08984863 13.61572266 13.69555664 C14.75315918 14.33227295 15.8905957 14.96898926 17.0625 15.625 C18.26606699 16.29622558 19.46968117 16.96736657 20.67333984 17.63842773 C30.36912925 23.05264512 40.01322305 28.5562677 49.64575195 34.08203125 C57.31868707 38.48160319 65.02297967 42.82118222 72.75 47.125 C80.95409788 51.69578975 89.09123067 56.36594948 97.1875 61.125 C105.66686203 66.10725522 114.22483029 70.90592648 122.87866211 75.57788086 C132.0749568 80.55177186 141.14065183 85.74736932 150.19433594 90.9753418 C151.44404679 91.68451384 152.71479116 92.35739558 154 93 C154 95.31 154 97.62 154 100 C149.98740933 98.76979344 146.53497513 97.31935044 142.9375 95.1640625 C141.98721924 94.60058105 141.03693848 94.03709961 140.05786133 93.45654297 C139.04876709 92.85213379 138.03967285 92.24772461 137 91.625 C129.01018081 86.89835405 120.98266338 82.28291713 112.8125 77.875 C103.09578765 72.62323716 93.49620322 67.18866653 83.92285156 61.68066406 C78.36973872 58.4875778 72.81030694 55.3055357 67.25 52.125 C66.65713196 51.78571472 66.06426392 51.44642944 65.45343018 51.09686279 C57.07973774 46.30633441 48.67715611 41.57104883 40.25 36.875 C30.91298397 31.67048222 21.65922391 26.3362544 12.43847656 20.92871094 C4.34678264 16.18661457 -3.80270209 11.55673325 -12 7 C-5.18801653 0 -5.18801653 0 0 0 Z " fill="#FD91AB" transform="translate(86,385)"/>
<path d="M0 0 C1.71511824 0.89422671 3.40325543 1.84186536 5.0625 2.8359375 C6.01278076 3.39941895 6.96306152 3.96290039 7.94213867 4.54345703 C8.95123291 5.14786621 9.96032715 5.75227539 11 6.375 C18.98981919 11.10164595 27.01733662 15.71708287 35.1875 20.125 C44.90421235 25.37676284 54.50379678 30.81133347 64.07714844 36.31933594 C69.63026128 39.5124222 75.18969306 42.6944643 80.75 45.875 C81.34286804 46.21428528 81.93573608 46.55357056 82.54656982 46.90313721 C91.94379621 52.27922189 101.382547 57.57729687 110.84008789 62.84667969 C119.00611409 67.41056296 127.08368013 72.11568219 135.1418457 76.86694336 C143.08182387 81.52582969 151.14388908 85.93433663 159.3112793 90.18212891 C160.17664307 90.64151855 161.04200684 91.1009082 161.93359375 91.57421875 C162.69728271 91.97213623 163.46097168 92.37005371 164.24780273 92.7800293 C166 94 166 94 167 97 C164.03 98.485 164.03 98.485 161 100 C161 99.34 161 98.68 161 98 C159.95102539 97.60627197 159.95102539 97.60627197 158.88085938 97.20458984 C155.75709666 95.89843347 152.869329 94.36512528 149.90625 92.7265625 C149.32678619 92.40693039 148.74732239 92.08729828 148.15029907 91.75798035 C146.26512395 90.7167676 144.38247143 89.67109187 142.5 88.625 C141.18477335 87.89665578 139.86950604 87.16838498 138.55419922 86.44018555 C129.35129022 81.3379502 120.1970726 76.1542307 111.07421875 70.91015625 C105.71134224 67.82824683 100.32541313 64.78786591 94.9375 61.75 C85.71746593 56.54919687 76.52494202 51.30119245 67.33944702 46.03973389 C59.0044611 41.26715938 50.64029026 36.54982577 42.25 31.875 C32.91294866 26.67054758 23.65922228 21.33625344 14.43847656 15.92871094 C6.34678264 11.18661457 -1.80270209 6.55673325 -10 2 C-10 1.34 -10 0.68 -10 0 C-6.17572024 -2.64757829 -4.15667865 -1.61641496 0 0 Z " fill="#ED5F73" transform="translate(122,327)"/>
<path d="M0 0 C3.88461437 1.55384575 7.17185557 3.13764688 10.76953125 5.203125 C11.89327148 5.84652832 13.01701172 6.48993164 14.17480469 7.15283203 C15.38744947 7.85174979 16.60001254 8.55080934 17.8125 9.25 C19.07313855 9.97397607 20.33388216 10.69776921 21.59472656 11.42138672 C32.45080417 17.65838592 43.2687045 23.96082583 54.07324219 30.28662109 C69.61816519 39.38691052 85.19301408 48.43370569 100.80078125 57.42578125 C107.33841767 61.19276797 113.86749326 64.97445944 120.3918457 68.7644043 C124.15274555 70.96123364 124.15274555 70.96123364 128 73 C128 73.66 128 74.32 128 75 C126.0390625 76.2734375 126.0390625 76.2734375 123 77 C119.88985393 75.97858672 117.18072875 74.29104128 114.375 72.625 C113.50746094 72.12895264 112.63992188 71.63290527 111.74609375 71.12182617 C108.81714812 69.4368095 105.90739556 67.7219146 103 66 C101.96907227 65.3920459 100.93814453 64.7840918 99.87597656 64.15771484 C95.43290651 61.53496613 90.99342141 58.90632779 86.56274414 56.26269531 C78.36434457 51.37411834 70.10947554 46.5941424 61.8125 41.875 C52.95388413 36.83452814 44.11524811 31.76263461 35.3125 26.625 C34.33200684 26.05563721 33.35151367 25.48627441 32.34130859 24.8996582 C27.84675957 22.28285389 23.38317059 19.63377224 18.9765625 16.87109375 C17.8177356 16.15542236 17.8177356 16.15542236 16.63549805 15.42529297 C15.22573257 14.55121645 13.82511103 13.66211195 12.43676758 12.75439453 C8.96758974 10.61778143 7.16031104 9.99004966 3.03515625 10.24609375 C1.53275391 10.61927734 1.53275391 10.61927734 0 11 C0 7.37 0 3.74 0 0 Z " fill="#7ACB7A" transform="translate(173,19)"/>
<path d="M0 0 C4.05385791 1.75118921 7.82962843 3.8292634 11.6484375 6.0390625 C12.38449219 6.45929688 13.12054688 6.87953125 13.87890625 7.3125 C15.679814 8.34159014 17.47701068 9.37717006 19.2734375 10.4140625 C19.2734375 11.0740625 19.2734375 11.7340625 19.2734375 12.4140625 C17.2934375 13.4040625 17.2934375 13.4040625 15.2734375 14.4140625 C14.9434375 37.1840625 14.6134375 59.9540625 14.2734375 83.4140625 C13.9434375 83.4140625 13.6134375 83.4140625 13.2734375 83.4140625 C13.33740723 82.19412598 13.40137695 80.97418945 13.46728516 79.71728516 C13.68229813 75.15140142 13.77602778 70.58938511 13.83496094 66.01904297 C13.87691781 64.04932902 13.95092696 62.0800096 14.05859375 60.11279297 C14.64543635 50.55084108 14.64543635 50.55084108 12.2734375 41.4140625 C7.82302346 36.79386011 1.94133538 34.31829504 -3.98648071 32.10238647 C-5.7265625 31.4140625 -5.7265625 31.4140625 -6.7265625 30.4140625 C-6.81431855 28.26847423 -6.83351469 26.12001829 -6.82421875 23.97265625 C-6.82099609 22.66748047 -6.81777344 21.36230469 -6.81445312 20.01757812 C-6.80609651 18.6289056 -6.79763155 17.24023373 -6.7890625 15.8515625 C-6.78404916 14.45898594 -6.77948597 13.06640769 -6.77539062 11.67382812 C-6.76355684 8.2538638 -6.7470713 4.83398406 -6.7265625 1.4140625 C-3.06738281 -0.65917969 -3.06738281 -0.65917969 0 0 Z " fill="#FEFEFD" transform="translate(170.7265625,125.5859375)"/>
<path d="M0 0 C3.83458442 1.53383377 7.041871 3.07223021 10.578125 5.125 C12.18204102 6.053125 12.18204102 6.053125 13.81835938 7 C15.51702148 7.99 15.51702148 7.99 17.25 9 C18.43540663 9.68774178 19.62095471 10.37523981 20.80664062 11.0625 C27.70816936 15.0666353 34.59237063 19.10000943 41.46166992 23.15917969 C47.80316513 26.90030419 54.18230962 30.57535698 60.5625 34.25 C71.06193509 40.29764416 81.53927215 46.38176748 92 52.49609375 C96.20435894 54.95350262 100.41326704 57.40290763 104.625 59.84765625 C105.71280762 60.47986084 106.80061523 61.11206543 107.92138672 61.76342773 C110.00028386 62.97144409 112.0799895 64.17807056 114.16064453 65.38305664 C118.87474133 68.12492927 123.51118199 70.9016576 128 74 C126.8125 75.5625 126.8125 75.5625 125 77 C120.91924628 76.60457982 118.05935718 75.07345615 114.58984375 72.96484375 C113.53192627 72.32853027 112.47400879 71.6922168 111.3840332 71.03662109 C110.82366364 70.69524109 110.26329407 70.35386108 109.6859436 70.00213623 C106.66728383 68.16405889 103.63365653 66.35095565 100.6015625 64.53515625 C99.97395523 64.15854858 99.34634796 63.78194092 98.69972229 63.3939209 C92.12549606 59.45756926 85.47520167 55.65899863 78.8125 51.875 C67.1601323 45.24745263 55.56515175 38.52647319 43.99707031 31.75292969 C40.84129695 29.90717759 37.6827413 28.06626466 34.5234375 26.2265625 C33.45254883 25.60281738 32.38166016 24.97907227 31.27832031 24.33642578 C29.24924243 23.15473456 27.21996186 21.97339128 25.19042969 20.79248047 C23.80065918 19.98254639 23.80065918 19.98254639 22.3828125 19.15625 C21.48836426 18.63691895 20.59391602 18.11758789 19.67236328 17.58251953 C17.843107 16.49927093 16.02943081 15.38939513 14.22998047 14.25732422 C13.34971191 13.7057666 12.46944336 13.15420898 11.5625 12.5859375 C10.78261719 12.08626465 10.00273438 11.5865918 9.19921875 11.07177734 C5.74404968 9.38791942 3.60272367 9.90351888 0 11 C0 7.37 0 3.74 0 0 Z " fill="#FCBC65" transform="translate(109,56)"/>
<path d="M0 0 C1.39510981 0.71429216 2.76449663 1.48026692 4.109375 2.28515625 C4.86347656 2.73310547 5.61757812 3.18105469 6.39453125 3.64257812 C7.56048828 4.34543945 7.56048828 4.34543945 8.75 5.0625 C9.93916016 5.77116211 9.93916016 5.77116211 11.15234375 6.49414062 C13.1043111 7.65826573 15.05335805 8.82699902 17 10 C16.34 11.32 15.68 12.64 15 14 C14.34 14 13.68 14 13 14 C13 36.44 13 58.88 13 82 C12.67 82 12.34 82 12 82 C12.06920654 80.81559326 12.13841309 79.63118652 12.2097168 78.41088867 C14.50376464 57.54483853 14.50376464 57.54483853 9.08789062 38.44580078 C5.79165045 36.23683393 2.50913525 35.09124915 -1.25048828 33.89404297 C-4.02677164 32.850084 -5.86184555 32.07320787 -8 30 C-10.58613884 20.79622233 -9.13342059 10.35094933 -8 1 C-4.91496476 -0.87305711 -3.39556239 -1.29915374 0 0 Z " fill="#E2E7EE" transform="translate(236,89)"/>
<path d="M0 0 C1.2375 0.70962891 1.2375 0.70962891 2.5 1.43359375 C3.66659559 2.10168663 4.83326889 2.76964381 6 3.4375 C6.62575928 3.79585938 7.25151855 4.15421875 7.89624023 4.5234375 C11.26679931 6.45018558 14.64364898 8.36424634 18.03515625 10.25390625 C24.05126566 13.60699177 30.03326514 16.9729276 35.875 20.625 C45.60366652 26.68292428 55.59425649 32.30192165 65.53173828 38.0078125 C79.71106858 46.15249328 93.87280904 54.32769281 108 62.5625 C109.44076904 63.40180054 109.44076904 63.40180054 110.91064453 64.25805664 C116.96786099 67.79365186 122.99433325 71.37754727 129 75 C127.16503906 76.52856445 127.16503906 76.52856445 125 78 C119.22541359 77.00055235 114.19476657 73.31331808 109.25 70.3125 C107.27420775 69.12892157 105.29761152 67.94668447 103.3203125 66.765625 C101.77005371 65.8384668 101.77005371 65.8384668 100.18847656 64.89257812 C94.86328542 61.73171429 89.49413896 58.64792552 84.125 55.5625 C72.72702722 49.00340051 61.36090753 42.39143556 50.00732422 35.75585938 C46.90367348 33.9437587 43.79783148 32.1354649 40.69140625 30.328125 C39.65258301 29.72307129 38.61375977 29.11801758 37.54345703 28.49462891 C35.49768535 27.3043442 33.45051692 26.11645639 31.40185547 24.93115234 C27.02805881 22.39267784 22.68774875 19.83329167 18.44140625 17.0859375 C17.764729 16.65450439 17.08805176 16.22307129 16.39086914 15.77856445 C14.655621 14.6625837 12.9363198 13.52190806 11.21875 12.37890625 C6.92667765 10.54019079 4.52757312 11.0895641 0 12 C0 8.04 0 4.08 0 0 Z " fill="#5A95FA" transform="translate(44,92)"/>
<path d="M0 0 C3.61798746 1.15117783 6.50570795 2.90297934 9.75 4.875 C9.75 5.535 9.75 6.195 9.75 6.875 C10.45600342 7.13893555 11.16200684 7.40287109 11.8894043 7.67480469 C14.91859058 8.94573408 17.67080195 10.44262793 20.51953125 12.078125 C21.64343262 12.72160889 22.76733398 13.36509277 23.92529297 14.02807617 C25.13778173 14.72690086 26.3501819 15.42587929 27.5625 16.125 C28.82167731 16.84823733 30.08095602 17.57129817 31.34033203 18.29418945 C50.56369282 29.33977058 69.67749419 40.57130094 88.75 51.875 C87.375 53.375 87.375 53.375 85.75 54.875 C85.09 54.875 84.43 54.875 83.75 54.875 C84.08 78.305 84.41 101.735 84.75 125.875 C84.09 125.875 83.43 125.875 82.75 125.875 C82.81781174 124.59072365 82.81781174 124.59072365 82.88699341 123.28050232 C83.29265256 115.14768634 83.5688787 107.02237315 83.70596504 98.88043118 C83.78085713 94.69432073 83.90266334 90.5214339 84.13867188 86.34106445 C85.74660461 68.13555668 85.74660461 68.13555668 79.28601074 51.94171143 C73.16709425 47.03420565 66.40652363 44.03370115 59.12049866 41.25831604 C53.66965274 39.02118636 48.76138108 35.9474788 43.75 32.875 C41.79016849 31.72375533 39.82819833 30.57613683 37.86328125 29.43359375 C36.87537598 28.85722168 35.8874707 28.28084961 34.86962891 27.68701172 C31.53726305 25.75143343 28.19766918 23.82867728 24.85546875 21.91015625 C24.27668976 21.57760834 23.69791077 21.24506042 23.10159302 20.9024353 C20.31626608 19.30223566 17.52958225 17.70451094 14.74023438 16.11132812 C9.61090204 13.1667718 4.51906166 10.16898362 -0.51171875 7.05859375 C-1.42268311 6.4958374 -2.33364746 5.93308105 -3.2722168 5.35327148 C-4.25121948 4.6215271 -4.25121948 4.6215271 -5.25 3.875 C-5.25 3.215 -5.25 2.555 -5.25 1.875 C-2.25 -0.125 -2.25 -0.125 0 0 Z " fill="#7DB1FE" transform="translate(16.25,109.125)"/>
<path d="M0 0 C3.93279086 1.28899003 7.13784772 3.38683549 10.61328125 5.60546875 C12.23037262 6.61552323 13.84893996 7.62321743 15.46875 8.62890625 C16.33161621 9.16483398 17.19448242 9.70076172 18.08349609 10.25292969 C22.81962641 13.1550329 27.62249592 15.94140141 32.42578125 18.73046875 C33.43455322 19.31707275 34.4433252 19.90367676 35.48266602 20.50805664 C38.58794818 22.31266625 41.69433117 24.11537048 44.80078125 25.91796875 C59.53393106 34.47622971 74.21836394 43.10490379 88.80078125 51.91796875 C87.61328125 53.48046875 87.61328125 53.48046875 85.80078125 54.91796875 C81.652393 54.70687146 78.57316576 52.86462382 75.03125 50.8125 C73.90750977 50.16587402 72.78376953 49.51924805 71.62597656 48.85302734 C70.41330787 48.14568537 69.20074541 47.43816126 67.98828125 46.73046875 C66.72786977 46.00154375 65.46712296 45.27319829 64.20605469 44.54541016 C61.0045137 42.6952235 57.80803177 40.83650098 54.61346436 38.9743042 C51.89753718 37.39160607 49.17897658 35.81344276 46.4609375 34.234375 C41.56847233 31.38800251 36.68233278 28.53094452 31.79785156 25.67089844 C28.6420782 23.82514634 25.48352255 21.98423341 22.32421875 20.14453125 C21.25333008 19.52078613 20.18244141 18.89704102 19.07910156 18.25439453 C17.05002368 17.07270331 15.02074311 15.89136003 12.99121094 14.71044922 C11.15551031 13.64063482 9.3214522 12.56799573 7.48925781 11.4921875 C5.62704998 10.40178466 3.75875903 9.32172957 1.88574219 8.25 C0.96825195 7.71761719 0.05076172 7.18523438 -0.89453125 6.63671875 C-1.72227051 6.16169922 -2.55000977 5.68667969 -3.40283203 5.19726562 C-3.99563965 4.77509766 -4.58844727 4.35292969 -5.19921875 3.91796875 C-5.19921875 3.25796875 -5.19921875 2.59796875 -5.19921875 1.91796875 C-2.19921875 -0.08203125 -2.19921875 -0.08203125 0 0 Z " fill="#97D697" transform="translate(144.19921875,35.08203125)"/>
<path d="M0 0 C3.61798746 1.15117783 6.50570795 2.90297934 9.75 4.875 C9.75 5.535 9.75 6.195 9.75 6.875 C10.47856201 7.1524707 11.20712402 7.42994141 11.95776367 7.71582031 C14.57694348 8.80315665 16.96122742 10.02397015 19.42578125 11.421875 C20.32353271 11.92968506 21.22128418 12.43749512 22.14624023 12.96069336 C23.10860596 13.50991455 24.07097168 14.05913574 25.0625 14.625 C26.07578369 15.20064697 27.08906738 15.77629395 28.13305664 16.36938477 C37.33835216 21.61224378 46.49418353 26.9388454 55.6328125 32.296875 C59.90946236 34.80373305 64.19710114 37.29049049 68.4921875 39.765625 C69.59183838 40.40121338 70.69148926 41.03680176 71.82446289 41.69165039 C73.93874019 42.9132222 76.05503059 44.13131825 78.17358398 45.34545898 C79.59779663 46.17025757 79.59779663 46.17025757 81.05078125 47.01171875 C82.30628784 47.73427856 82.30628784 47.73427856 83.5871582 48.47143555 C85.60068952 49.77810577 87.13705819 51.10863122 88.75 52.875 C85.75 54.875 85.75 54.875 83.35473633 54.65307617 C80.65944071 53.8479485 78.51193214 52.82473187 76.07421875 51.42578125 C75.17646729 50.91474854 74.27871582 50.40371582 73.35375977 49.87719727 C72.39139404 49.31959717 71.42902832 48.76199707 70.4375 48.1875 C69.42421631 47.60734131 68.41093262 47.02718262 67.36694336 46.42944336 C64.15607064 44.58685571 60.95205053 42.73287163 57.75 40.875 C56.74807617 40.29427734 55.74615234 39.71355469 54.71386719 39.11523438 C48.73582416 35.64588702 42.76900083 32.15763606 36.80566406 28.66308594 C32.63636673 26.22333413 28.46049374 23.79494228 24.28491211 21.3659668 C20.32979296 19.06310047 16.37894709 16.7529822 12.42919922 14.44091797 C10.70318904 13.43211268 8.97575591 12.42573607 7.24658203 11.42236328 C5.07705278 10.16326553 2.91282945 8.89556001 0.75 7.625 C0.12665771 7.26623779 -0.49668457 6.90747559 -1.13891602 6.5378418 C-2.54381392 5.70597008 -3.90357029 4.79851269 -5.25 3.875 C-5.25 3.215 -5.25 2.555 -5.25 1.875 C-2.25 -0.125 -2.25 -0.125 0 0 Z " fill="#FEDC95" transform="translate(80.25,72.125)"/>
<path d="M0 0 C2.45996775 2.45996775 2.29676247 3.23618554 2.3125 6.625 C2.12398022 14.33213213 -0.15384174 19.85499094 -5.390625 25.51953125 C-7.76074946 27.69981565 -9.95582885 28.96368642 -13 30 C-15.875 29.6875 -15.875 29.6875 -18 29 C-20.17981018 22.46056947 -18.8653162 17.01226604 -16 11 C-12.27400577 4.54161001 -7.84931445 -0.58869858 0 0 Z " fill="#3B3F52" transform="translate(292,436)"/>
<path d="M0 0 C0.14857681 4.34149055 0.25731436 8.68162732 0.32958984 13.02490234 C0.35972248 14.50140156 0.40063879 15.97772232 0.45263672 17.45361328 C0.52562629 19.57889779 0.55948491 21.70181393 0.5859375 23.828125 C0.6173584 25.1059082 0.6487793 26.38369141 0.68115234 27.70019531 C0 31 0 31 -2.91162109 33.44824219 C-6 35 -6 35 -8 35 C-8 24.77 -8 14.54 -8 4 C-1 0 -1 0 0 0 Z " fill="#FDF5F5" transform="translate(456,335)"/>
<path d="M0 0 C0 10.23 0 20.46 0 31 C-3.96 32.98 -3.96 32.98 -8 35 C-8.14857681 30.65850945 -8.25731436 26.31837268 -8.32958984 21.97509766 C-8.35972248 20.49859844 -8.40063879 19.02227768 -8.45263672 17.54638672 C-8.52562629 15.42110221 -8.55948491 13.29818607 -8.5859375 11.171875 C-8.6173584 9.8940918 -8.6487793 8.61630859 -8.68115234 7.29980469 C-8 4 -8 4 -5.08837891 1.55175781 C-2 0 -2 0 0 0 Z " fill="#FDF3F4" transform="translate(474,325)"/>
<path d="M0 0 C0 10.23 0 20.46 0 31 C-6 34 -6 34 -8 34 C-8.14860594 29.80092955 -8.25732637 25.60326021 -8.32958984 21.40234375 C-8.35971791 19.97433814 -8.40063103 18.54651694 -8.45263672 17.11914062 C-8.52564914 15.0633399 -8.55948862 13.00998787 -8.5859375 10.953125 C-8.6173584 9.71723633 -8.6487793 8.48134766 -8.68115234 7.20800781 C-8 4 -8 4 -5.08837891 1.56542969 C-2 0 -2 0 0 0 Z " fill="#FDF6F7" transform="translate(438,346)"/>
<path d="M0 0 C0.14860594 4.19907045 0.25732637 8.39673979 0.32958984 12.59765625 C0.35971791 14.02566186 0.40063103 15.45348306 0.45263672 16.88085938 C0.52564914 18.9366601 0.55948862 20.99001213 0.5859375 23.046875 C0.6173584 24.28276367 0.6487793 25.51865234 0.68115234 26.79199219 C0 30 0 30 -2.91162109 32.43457031 C-6 34 -6 34 -8 34 C-8.14860594 29.80092955 -8.25732637 25.60326021 -8.32958984 21.40234375 C-8.35971791 19.97433814 -8.40063103 18.54651694 -8.45263672 17.11914062 C-8.52564914 15.0633399 -8.55948862 13.00998787 -8.5859375 10.953125 C-8.6173584 9.71723633 -8.6487793 8.48134766 -8.68115234 7.20800781 C-8 4 -8 4 -5.08837891 1.56542969 C-2 0 -2 0 0 0 Z " fill="#FDF2F3" transform="translate(492,315)"/>
<path d="M0 0 C3.6875 0.375 3.6875 0.375 6.125 2.1875 C8.4923624 7.0169193 8.586854 11.10059306 7.6875 16.375 C5.19656427 23.09473359 1.7697848 29.2927152 -3.3125 34.375 C-4.7975 34.87 -4.7975 34.87 -6.3125 35.375 C-6.3125 34.715 -6.3125 34.055 -6.3125 33.375 C-7.3025 33.87 -7.3025 33.87 -8.3125 34.375 C-10.6454866 34.41522391 -12.97956666 34.41820247 -15.3125 34.375 C-13.3125 32.375 -13.3125 32.375 -10.0625 30.8125 C-4.98280743 27.99635245 -1.48480472 22.88493616 0.34375 17.41015625 C0.74830898 15.01498317 0.81982709 12.74142875 0.8125 10.3125 C0.81507813 9.45527344 0.81765625 8.59804688 0.8203125 7.71484375 C0.78115135 5.21935799 0.78115135 5.21935799 -0.3125 2.375 C-2.32758358 1.64176204 -2.32758358 1.64176204 -4.3125 1.375 C-3.3125 0.375 -3.3125 0.375 0 0 Z " fill="#EC5C70" transform="translate(292.3125,432.625)"/>
<path d="M0 0 C0.721875 0.391875 1.44375 0.78375 2.1875 1.1875 C2.1875 1.5175 2.1875 1.8475 2.1875 2.1875 C1.59582031 2.33445312 1.00414062 2.48140625 0.39453125 2.6328125 C-7.08182134 4.75497457 -9.74622848 7.49772944 -13.5625 14.3125 C-16.00141503 19.92200457 -16.79692391 25.23422826 -14.8125 31.1875 C-12.40704362 32.39022819 -10.86253047 32.28821472 -8.1875 32.25 C-7.37023437 32.24097656 -6.55296875 32.23195313 -5.7109375 32.22265625 C-5.08445312 32.21105469 -4.45796875 32.19945312 -3.8125 32.1875 C-3.8125 33.1775 -3.8125 34.1675 -3.8125 35.1875 C-8.11999607 37.40651313 -11.14706261 37.48345483 -15.8125 36.1875 C-19.85285155 30.88806215 -19.65759374 25.58151111 -18.8125 19.1875 C-16.26636234 11.50556329 -11.51457847 5.1672217 -5.25 0.125 C-2.8125 -0.8125 -2.8125 -0.8125 0 0 Z " fill="#EB5B6F" transform="translate(289.8125,433.8125)"/>
<path d="M0 0 C2.19719634 0.88162633 4.14688869 1.89946368 6.17871094 3.11547852 C6.9328125 3.56342773 7.68691406 4.01137695 8.46386719 4.47290039 C9.62982422 5.17576172 9.62982422 5.17576172 10.81933594 5.89282227 C12.00849609 6.60148437 12.00849609 6.60148437 13.22167969 7.32446289 C15.17364704 8.488588 17.12269398 9.65732128 19.06933594 10.83032227 C18.73933594 11.82032227 18.40933594 12.81032227 18.06933594 13.83032227 C12.17320047 13.38764117 8.10437795 10.79290747 3.19433594 7.76782227 C2.41058594 7.29538086 1.62683594 6.82293945 0.81933594 6.33618164 C-1.10264839 5.17595939 -3.01888941 4.00726451 -4.93066406 2.83032227 C-2.49125007 -0.21894522 -2.49125007 -0.21894522 0 0 Z " fill="#FDFEFD" transform="translate(233.9306640625,88.169677734375)"/>
<path d="M0 0 C3.83109319 3.33602151 3.83109319 3.33602151 4.56640625 6.2265625 C4.55349936 14.15139354 2.30235124 20.13804531 -2.8671875 26.18359375 C-6.03582403 29.24743102 -8.45998452 31.40992906 -13 31.4375 C-13.99 31.293125 -14.98 31.14875 -16 31 C-14 29 -14 29 -10.75 27.4375 C-5.67460235 24.62373352 -2.23887313 19.54801534 -0.33984375 14.109375 C0.11247346 11.30188887 0.09339093 8.59196527 0.0625 5.75 C0.05347656 4.67234375 0.04445313 3.5946875 0.03515625 2.484375 C0.02355469 1.66453125 0.01195312 0.8446875 0 0 Z " fill="#F38BA5" transform="translate(293,436)"/>
<path d="M0 0 C2.625 0.9375 2.625 0.9375 5 2 C5 2.33 5 2.66 5 3 C4.40832031 3.14695312 3.81664062 3.29390625 3.20703125 3.4453125 C-2.78846032 5.14713229 -5.53385046 6.80077569 -9 12 C-10.06246527 13.96752828 -11.07137808 15.96587579 -12 18 C-12.66666667 19.33333333 -13.33333333 20.66666667 -14 22 C-14.89272617 19.01893224 -15.18607096 17.47343055 -14.03125 14.53515625 C-10.31601553 8.53581079 -6.44617818 3.22308909 0 0 Z " fill="#E4596D" transform="translate(287,433)"/>
<path d="M0 0 C0.66 0.66 1.32 1.32 2 2 C0.33333333 5.33333333 -1.33333333 8.66666667 -3 12 C-3.94721072 9.39517051 -4.30222393 7.69325299 -3.17578125 5.109375 C-2.17063275 3.37417127 -1.0893855 1.68359577 0 0 Z " fill="#DF576B" transform="translate(276,443)"/>
</svg>
